<svg width="47" height="46" viewBox="0 0 47 46" fill="none" xmlns="http://www.w3.org/2000/svg">
<path d="M16.2522 26.7021V8.15946C16.2522 7.17589 15.8621 6.23261 15.1677 5.53713C14.4733 4.84165 13.5315 4.45093 12.5495 4.45093C11.5674 4.45093 10.6256 4.84165 9.9312 5.53713C9.23679 6.23261 8.84668 7.17589 8.84668 8.15946V26.7021" stroke="white" stroke-width="2" stroke-linecap="round" stroke-linejoin="round"/>
<path d="M16.2522 13.8526C19.0761 12.2194 22.3591 11.5651 25.592 11.9912C28.825 12.4172 31.8272 13.8997 34.1332 16.2089C36.4391 18.518 37.9199 21.5247 38.3458 24.7626C38.7717 28.0005 38.119 31.2887 36.4889 34.1172C34.8587 36.9457 32.3423 39.1564 29.3298 40.4065C26.3173 41.6566 22.9771 41.8763 19.8273 41.0313C16.6775 40.1864 13.8941 38.3241 11.9088 35.7333C9.9234 33.1426 8.84707 29.9681 8.84668 26.7022" stroke="white" stroke-width="2" stroke-linecap="round" stroke-linejoin="round"/>
<path d="M16.2516 18.4102C18.1474 16.7119 20.5677 15.7167 23.108 15.5907C25.6484 15.4648 28.1549 16.2158 30.2089 17.7183C32.2629 19.2207 33.7398 21.3837 34.393 23.8457C35.0461 26.3076 34.8359 28.9196 33.7975 31.245C32.7591 33.5704 30.9553 35.4685 28.6876 36.6221C26.4199 37.7757 23.8256 38.1149 21.3382 37.5831C18.8507 37.0513 16.6209 35.6807 15.0211 33.7002C13.4214 31.7198 12.5487 29.2495 12.5488 26.7021V8.15942" stroke="white" stroke-width="2" stroke-linecap="round" stroke-linejoin="round"/>
<path d="M23.6575 34.1191C27.7475 34.1191 31.0631 30.7984 31.0631 26.7021C31.0631 22.6058 27.7475 19.285 23.6575 19.285C19.5675 19.285 16.252 22.6058 16.252 26.7021C16.252 30.7984 19.5675 34.1191 23.6575 34.1191Z" stroke="white" stroke-width="2" stroke-linecap="round" stroke-linejoin="round"/>
</svg>
