<svg width="46" height="41" viewBox="0 0 46 41" fill="none" xmlns="http://www.w3.org/2000/svg">
<g filter="url(#filter0_d_695_10)">
<path d="M40.6386 6.34583H5.96484V25.8981H40.6386V6.34583Z" fill="#F47628"/>
</g>
<g filter="url(#filter1_d_695_10)">
<path d="M10.0923 15.3202C9.27895 15.3202 8.61621 15.9987 8.61621 16.8313C8.61621 17.664 9.27895 18.3425 10.0923 18.3425C10.9057 18.3425 11.5685 17.664 11.5685 16.8313C11.5685 15.9987 10.9057 15.3202 10.0923 15.3202Z" fill="white"/>
</g>
<g filter="url(#filter2_d_695_10)">
<path d="M24.5811 15.1661C23.7075 15.1661 23.0146 15.9063 23.0146 16.7698C23.0146 17.6641 23.7377 18.3735 24.5811 18.3735C25.4548 18.3735 26.1476 17.6641 26.1476 16.7698C26.1778 15.8754 25.4548 15.1661 24.5811 15.1661Z" fill="white"/>
</g>
<path d="M37.7164 0.393921H6.47681C3.3137 0.393921 0.783203 3.01528 0.783203 6.2226V25.1889C0.783203 28.4271 3.34382 31.0176 6.47681 31.0176H17.5025L21.2682 40.0536C21.2682 40.0536 21.5393 40.8246 22.1418 40.8246C22.7744 40.8246 23.0154 40.0536 23.0154 40.0536L26.781 31.0176H37.7164C40.8795 31.0176 43.41 28.3963 43.41 25.1889V6.2226C43.4401 2.98444 40.8795 0.393921 37.7164 0.393921ZM14.1888 17.1707C14.1587 20.6247 10.6642 20.748 10.6642 20.748C9.30856 20.748 8.55544 19.8229 8.55544 19.8229V20.4396H5.99482V9.67663C6.14545 9.70747 8.55544 9.67663 8.55544 9.67663V13.8091C9.15794 12.7606 10.9052 12.7914 10.9052 12.7914C14.6407 13.0998 14.1888 17.1707 14.1888 17.1707ZM18.6774 13.069V20.4396H16.177V13.1307C16.177 12.1438 14.972 11.8662 14.972 11.8662V9.27572C18.9485 9.46076 18.6774 13.069 18.6774 13.069ZM24.5819 20.7172C22.2623 20.7172 20.3945 18.9593 20.3945 16.7697C20.3945 14.5801 22.2623 12.8223 24.5819 12.8223C26.9015 12.8223 28.7693 14.5801 28.7693 16.7697C28.7693 18.9593 26.9015 20.7172 24.5819 20.7172ZM38.2887 20.7172C38.2887 20.7172 38.3189 24.4796 34.6135 24.4796H33.4688V22.0433H34.1616C34.1616 22.0433 35.7281 22.1975 35.698 19.7303C35.698 19.7303 35.3967 20.7172 33.1976 20.7172C33.1976 20.7172 30.0948 20.5013 30.0948 17.3865V16.2146C30.0948 16.2146 30.155 13.0073 33.5892 12.7298C33.5892 12.7298 34.9449 12.5756 35.7582 13.7166V12.9148H38.2887V20.7172Z" fill="white"/>
<g filter="url(#filter3_d_695_10)">
<path d="M34.3127 15.1969C33.4693 15.1969 32.7764 15.9062 32.7764 16.7697C32.7764 17.6332 33.4693 18.3425 34.3127 18.3425C35.1562 18.3425 35.8491 17.6332 35.8491 16.7697C35.8491 15.9062 35.1562 15.1969 34.3127 15.1969Z" fill="white"/>
</g>
<defs>
<filter id="filter0_d_695_10" x="0.964844" y="1.34583" width="44.6738" height="29.5522" filterUnits="userSpaceOnUse" color-interpolation-filters="sRGB">
<feFlood flood-opacity="0" result="BackgroundImageFix"/>
<feColorMatrix in="SourceAlpha" type="matrix" values="0 0 0 0 0 0 0 0 0 0 0 0 0 0 0 0 0 0 127 0" result="hardAlpha"/>
<feOffset/>
<feGaussianBlur stdDeviation="2.5"/>
<feComposite in2="hardAlpha" operator="out"/>
<feColorMatrix type="matrix" values="0 0 0 0 0 0 0 0 0 0 0 0 0 0 0 0 0 0 0.5 0"/>
<feBlend mode="normal" in2="BackgroundImageFix" result="effect1_dropShadow_695_10"/>
<feBlend mode="normal" in="SourceGraphic" in2="effect1_dropShadow_695_10" result="shape"/>
</filter>
<filter id="filter1_d_695_10" x="3.61621" y="10.3202" width="12.9521" height="13.0223" filterUnits="userSpaceOnUse" color-interpolation-filters="sRGB">
<feFlood flood-opacity="0" result="BackgroundImageFix"/>
<feColorMatrix in="SourceAlpha" type="matrix" values="0 0 0 0 0 0 0 0 0 0 0 0 0 0 0 0 0 0 127 0" result="hardAlpha"/>
<feOffset/>
<feGaussianBlur stdDeviation="2.5"/>
<feComposite in2="hardAlpha" operator="out"/>
<feColorMatrix type="matrix" values="0 0 0 0 0 0 0 0 0 0 0 0 0 0 0 0 0 0 0.5 0"/>
<feBlend mode="normal" in2="BackgroundImageFix" result="effect1_dropShadow_695_10"/>
<feBlend mode="normal" in="SourceGraphic" in2="effect1_dropShadow_695_10" result="shape"/>
</filter>
<filter id="filter2_d_695_10" x="18.0146" y="10.1661" width="13.1338" height="13.2073" filterUnits="userSpaceOnUse" color-interpolation-filters="sRGB">
<feFlood flood-opacity="0" result="BackgroundImageFix"/>
<feColorMatrix in="SourceAlpha" type="matrix" values="0 0 0 0 0 0 0 0 0 0 0 0 0 0 0 0 0 0 127 0" result="hardAlpha"/>
<feOffset/>
<feGaussianBlur stdDeviation="2.5"/>
<feComposite in2="hardAlpha" operator="out"/>
<feColorMatrix type="matrix" values="0 0 0 0 0 0 0 0 0 0 0 0 0 0 0 0 0 0 0.5 0"/>
<feBlend mode="normal" in2="BackgroundImageFix" result="effect1_dropShadow_695_10"/>
<feBlend mode="normal" in="SourceGraphic" in2="effect1_dropShadow_695_10" result="shape"/>
</filter>
<filter id="filter3_d_695_10" x="27.7764" y="10.1969" width="13.0723" height="13.1456" filterUnits="userSpaceOnUse" color-interpolation-filters="sRGB">
<feFlood flood-opacity="0" result="BackgroundImageFix"/>
<feColorMatrix in="SourceAlpha" type="matrix" values="0 0 0 0 0 0 0 0 0 0 0 0 0 0 0 0 0 0 127 0" result="hardAlpha"/>
<feOffset/>
<feGaussianBlur stdDeviation="2.5"/>
<feComposite in2="hardAlpha" operator="out"/>
<feColorMatrix type="matrix" values="0 0 0 0 0 0 0 0 0 0 0 0 0 0 0 0 0 0 0.5 0"/>
<feBlend mode="normal" in2="BackgroundImageFix" result="effect1_dropShadow_695_10"/>
<feBlend mode="normal" in="SourceGraphic" in2="effect1_dropShadow_695_10" result="shape"/>
</filter>
</defs>
</svg>
