<svg width="255" height="429" viewBox="0 0 255 429" fill="none" xmlns="http://www.w3.org/2000/svg">
<mask id="mask0_489_1208" style="mask-type:luminance" maskUnits="userSpaceOnUse" x="0" y="0" width="429" height="429">
<path d="M68.2309 0L371.789 40.3816C402.423 40.3816 428.88 65.446 428.88 97.4728L412.171 371.789C412.171 402.423 387.106 428.88 355.079 428.88L57.0912 394.068C26.4569 394.068 0 369.004 0 336.977L11.1398 57.0912C11.1398 25.0644 36.2042 0 68.2309 0Z" fill="white"/>
</mask>
<g mask="url(#mask0_489_1208)">
<path d="M-215.854 111.398H563.928L467.848 544.455H-311.935L-215.854 111.398Z" fill="#F7C408" fill-opacity="0.3"/>
<path d="M667.465 167.27L541.015 111.493H6.14772L-24.5918 -69.4495L622.906 -109.831L667.465 167.27Z" fill="#F7C408" fill-opacity="0.3"/>
<path d="M508.251 171.273L487.364 168.488C423.31 160.133 357.864 172.666 302.165 204.692L282.671 215.832C258.999 229.757 232.542 239.504 206.085 246.466L153.171 258.999C121.145 265.961 73.8006 270.138 40.3813 265.961L-58.4839 253.429C-69.6236 252.036 -80.7634 250.644 -91.9031 247.859L-158.742 232.542C-201.908 222.794 -242.29 203.3 -277.101 175.451L-324.445 137.854L-297.988 143.424C-285.456 146.209 -274.316 148.994 -261.784 151.779L-249.252 155.956C-226.973 162.918 -203.301 167.096 -178.236 168.488L-27.8496 178.235L45.9512 185.198C84.9403 189.375 122.537 185.198 160.134 174.058L254.821 146.209L289.633 136.461C362.041 115.574 441.412 123.929 508.251 158.741V171.273Z" fill="white"/>
<path d="M323.031 207.478L154.542 304.95C153.15 304.95 153.15 306.343 151.757 306.343C135.048 311.913 121.123 317.483 107.198 318.875C65.4243 324.445 22.2578 324.445 -20.9087 318.875H-22.3012C-32.0485 318.875 -41.7957 317.483 -51.543 316.09L-149.016 275.709L-144.838 318.875H-311.935V300.773H-144.838L-150.408 257.607L-50.1505 297.988C-41.7957 299.381 -33.4409 300.773 -23.6936 300.773C18.0804 306.343 61.2469 307.735 104.413 302.166H105.806C122.516 300.773 139.225 296.596 154.542 289.633L316.069 192.161C329.993 183.806 345.31 167.096 360.628 167.096L427.466 155.956L506.837 162.919C474.81 132.284 420.504 158.741 359.235 186.591" fill="white"/>
</g>
</svg>
