<svg width="1920" height="1954" viewBox="0 0 1920 1954" fill="none" xmlns="http://www.w3.org/2000/svg">
<mask id="mask0_552_2" style="mask-type:luminance" maskUnits="userSpaceOnUse" x="-104" y="64" width="2048" height="2039">
<path d="M1672.22 2102.48L185.539 1960.61C36.2437 1966.16 -97.2289 1848.8 -103.025 1692.71L-71.2345 352.822C-76.7784 203.527 40.584 70.055 196.665 64.2591L1655.2 179.985C1804.49 174.441 1937.97 291.804 1943.76 447.885L1940.12 1813.91C1945.92 1969.99 1828.3 2096.68 1672.22 2102.48Z" fill="white"/>
</mask>
<g mask="url(#mask0_552_2)">
<path d="M-503.19 1347.42L-400.893 1357.21C-87.2194 1386.33 229.461 1313.41 495.111 1147.25L588.101 1089.44C700.945 1017.29 828.118 964.999 955.794 926.281L1211.4 855.63C1366.22 815.903 1596.19 786.977 1759.82 801.287L2243.9 844.471C2298.44 849.241 2352.98 854.011 2407.77 865.567L2736.28 928.119C2948.42 967.81 3148.74 1055.51 3323.43 1184.93L3560.97 1359.59L3431.02 1337.23C3369.44 1325.93 3314.65 1314.37 3253.07 1303.07L3191.24 1284.98C3081.4 1255.08 2965.28 1239 2842.88 1236.75L2108.21 1216.47L1747.29 1195.89C1556.52 1182.59 1374.05 1209.75 1192.84 1270.84L736.423 1423.7L568.534 1477.5C219.435 1592.4 -168.887 1566.05 -500.922 1408.49L-503.19 1347.42Z" fill="url(#paint0_linear_552_2)"/>
<path d="M392.916 1137.45L1196.4 631.934C1203.18 631.682 1202.93 624.895 1209.72 624.643C1290.14 594.475 1357 564.81 1424.61 555.504C1627.18 520.8 1837.55 512.988 2048.93 532.321L2055.72 532.069C2103.22 530.305 2150.98 535.327 2198.73 540.349L2681.07 719.507L2652.9 509.893L3467.23 479.653L3470.51 567.873L2656.17 598.113L2691.13 807.475L2195.22 628.821C2154.25 623.547 2113.28 618.273 2065.78 620.036C1861.19 600.452 1650.57 601.478 1441.2 636.434L1434.42 636.686C1353.24 646.496 1272.56 669.878 1199.17 706.581L429.618 1210.84C363.269 1254.08 291.645 1338.28 216.998 1341.06L-106.721 1407.44L-494.79 1387.87C-333.165 1531.37 -73.2938 1392.61 220.256 1245.8" fill="url(#paint1_linear_552_2)"/>
</g>
<defs>
<linearGradient id="paint0_linear_552_2" x1="1508.43" y1="802.488" x2="1534.21" y2="1496.89" gradientUnits="userSpaceOnUse">
<stop stop-color="#FCEFBC"/>
<stop offset="1" stop-color="#E3F9FE"/>
</linearGradient>
<linearGradient id="paint1_linear_552_2" x1="1471.35" y1="533.382" x2="1502.81" y2="1380.54" gradientUnits="userSpaceOnUse">
<stop stop-color="#FCEFBC"/>
<stop offset="1" stop-color="#E3F9FE"/>
</linearGradient>
</defs>
</svg>
