<svg width="73" height="73" viewBox="0 0 73 73" fill="none" xmlns="http://www.w3.org/2000/svg">
<circle cx="36.252" cy="36.3849" r="36" fill="url(#paint0_linear_663_231)"/>
<path d="M28.0145 16.1387H44.3117C50.5202 16.1387 55.5645 21.3031 55.5645 27.6594V44.3446C55.5645 47.4001 54.379 50.3305 52.2687 52.491C50.1583 54.6516 47.2962 55.8654 44.3117 55.8654H28.0145C21.8061 55.8654 16.7617 50.7009 16.7617 44.3446V27.6594C16.7617 24.6039 17.9473 21.6736 20.0576 19.513C22.1679 17.3525 25.0301 16.1387 28.0145 16.1387ZM27.6265 20.1113C25.7741 20.1113 23.9976 20.8647 22.6877 22.2058C21.3779 23.5468 20.642 25.3656 20.642 27.2621V44.7419C20.642 48.6947 23.7656 51.8927 27.6265 51.8927H44.6997C46.5522 51.8927 48.3287 51.1393 49.6385 49.7983C50.9484 48.4572 51.6842 46.6384 51.6842 44.7419V27.2621C51.6842 23.3093 48.5606 20.1113 44.6997 20.1113H27.6265ZM46.3489 23.0908C46.9921 23.0908 47.6089 23.3524 48.0637 23.8181C48.5185 24.2837 48.774 24.9152 48.774 25.5738C48.774 26.2323 48.5185 26.8638 48.0637 27.3294C47.6089 27.7951 46.9921 28.0567 46.3489 28.0567C45.7057 28.0567 45.0888 27.7951 44.634 27.3294C44.1792 26.8638 43.9237 26.2323 43.9237 25.5738C43.9237 24.9152 44.1792 24.2837 44.634 23.8181C45.0888 23.3524 45.7057 23.0908 46.3489 23.0908ZM36.1631 26.0703C38.7359 26.0703 41.2033 27.1167 43.0226 28.9793C44.8418 30.8418 45.8638 33.368 45.8638 36.002C45.8638 38.6361 44.8418 41.1622 43.0226 43.0248C41.2033 44.8873 38.7359 45.9337 36.1631 45.9337C33.5903 45.9337 31.1229 44.8873 29.3037 43.0248C27.4845 41.1622 26.4624 38.6361 26.4624 36.002C26.4624 33.368 27.4845 30.8418 29.3037 28.9793C31.1229 27.1167 33.5903 26.0703 36.1631 26.0703ZM36.1631 30.043C34.6195 30.043 33.139 30.6708 32.0475 31.7884C30.9559 32.9059 30.3427 34.4216 30.3427 36.002C30.3427 37.5824 30.9559 39.0981 32.0475 40.2157C33.139 41.3332 34.6195 41.961 36.1631 41.961C37.7068 41.961 39.1872 41.3332 40.2788 40.2157C41.3703 39.0981 41.9835 37.5824 41.9835 36.002C41.9835 34.4216 41.3703 32.9059 40.2788 31.7884C39.1872 30.6708 37.7068 30.043 36.1631 30.043Z" fill="white"/>
<defs>
<linearGradient id="paint0_linear_663_231" x1="36.252" y1="0.384888" x2="36.252" y2="72.3849" gradientUnits="userSpaceOnUse">
<stop stop-color="#151FFF"/>
<stop offset="0.5" stop-color="#E23A76"/>
<stop offset="1" stop-color="#FBA905"/>
</linearGradient>
</defs>
</svg>
