<svg width="73" height="73" viewBox="0 0 73 73" fill="none" xmlns="http://www.w3.org/2000/svg">
<circle cx="36.1875" cy="36.5247" r="36" fill="#CD201F"/>
<path d="M36.7614 24.4573H36.9486C38.6781 24.4637 47.4411 24.5275 49.8039 25.1706C50.5182 25.3669 51.1691 25.7495 51.6915 26.2801C52.2139 26.8107 52.5896 27.4708 52.781 28.1944C52.9935 29.0036 53.1429 30.0747 53.2439 31.1799L53.2649 31.4013L53.3112 31.955L53.3281 32.1764C53.4648 34.1227 53.4816 35.9455 53.4837 36.3437V36.5034C53.4816 36.9165 53.4627 38.8628 53.3112 40.89L53.2944 41.1136L53.2755 41.3351C53.1703 42.5531 53.0146 43.7626 52.781 44.6527C52.5896 45.3763 52.2139 46.0365 51.6915 46.5671C51.1691 47.0977 50.5182 47.4803 49.8039 47.6765C47.3633 48.3409 38.0869 48.3877 36.8013 48.3899H36.5026C35.8524 48.3899 33.1636 48.3771 30.3442 48.2791L29.9866 48.2664L29.8035 48.2579L29.4437 48.2429L29.084 48.228C26.7485 48.1237 24.5246 47.9555 23.5 47.6744C22.786 47.4783 22.1353 47.0961 21.6129 46.5658C21.0904 46.0356 20.7146 45.376 20.5229 44.6527C20.2893 43.7648 20.1337 42.5531 20.0285 41.3351L20.0116 41.1115L19.9948 40.89C19.8904 39.4472 19.8328 38.0012 19.8223 36.5545L19.8223 36.2926C19.8265 35.8348 19.8433 34.2526 19.9569 32.5065L19.9716 32.2872L19.978 32.1764L19.9948 31.955L20.0411 31.4013L20.0621 31.1799C20.1631 30.0747 20.3125 29.0015 20.525 28.1944C20.7164 27.4708 21.0921 26.8107 21.6145 26.2801C22.1369 25.7495 22.7878 25.3669 23.5021 25.1706C24.5268 24.8938 26.7507 24.7235 29.0861 24.617L29.4437 24.6021L29.8056 24.5893L29.9866 24.5829L30.3463 24.568C32.3487 24.5029 34.3519 24.4666 36.3553 24.4594L36.7614 24.4573ZM33.2877 31.2927V41.5523L42.0339 36.4246L33.2877 31.2927Z" fill="white"/>
</svg>
