<svg width="73" height="73" viewBox="0 0 73 73" fill="none" xmlns="http://www.w3.org/2000/svg">
<path d="M72.2832 36.9309C72.2832 56.8132 56.1655 72.9309 36.2832 72.9309C16.401 72.9309 0.283203 56.8132 0.283203 36.9309C0.283203 17.0487 16.401 0.930908 36.2832 0.930908C56.1655 0.930908 72.2832 17.0487 72.2832 36.9309Z" fill="#32B44A"/>
<g filter="url(#filter0_d_663_209)">
<path d="M54.6386 24.3458H19.9648V43.8981H54.6386V24.3458Z" fill="#F47628"/>
</g>
<g filter="url(#filter1_d_663_209)">
<path d="M24.0923 33.3202C23.2789 33.3202 22.6162 33.9987 22.6162 34.8313C22.6162 35.664 23.2789 36.3425 24.0923 36.3425C24.9057 36.3425 25.5685 35.664 25.5685 34.8313C25.5685 33.9987 24.9057 33.3202 24.0923 33.3202Z" fill="white"/>
</g>
<g filter="url(#filter2_d_663_209)">
<path d="M38.5811 33.1661C37.7075 33.1661 37.0146 33.9063 37.0146 34.7698C37.0146 35.6641 37.7377 36.3735 38.5811 36.3735C39.4548 36.3735 40.1476 35.6641 40.1476 34.7698C40.1778 33.8754 39.4548 33.1661 38.5811 33.1661Z" fill="white"/>
</g>
<path d="M51.7164 18.3939H20.4768C17.3137 18.3939 14.7832 21.0153 14.7832 24.2226V43.1889C14.7832 46.4271 17.3438 49.0176 20.4768 49.0176H31.5025L35.2682 58.0536C35.2682 58.0536 35.5393 58.8246 36.1418 58.8246C36.7744 58.8246 37.0154 58.0536 37.0154 58.0536L40.781 49.0176H51.7164C54.8795 49.0176 57.41 46.3963 57.41 43.1889V24.2226C57.4401 20.9844 54.8795 18.3939 51.7164 18.3939ZM28.1888 35.1707C28.1587 38.6247 24.6642 38.748 24.6642 38.748C23.3086 38.748 22.5554 37.8229 22.5554 37.8229V38.4396H19.9948V27.6766C20.1454 27.7075 22.5554 27.6766 22.5554 27.6766V31.8091C23.1579 30.7606 24.9052 30.7914 24.9052 30.7914C28.6407 31.0998 28.1888 35.1707 28.1888 35.1707ZM32.6774 31.069V38.4396H30.177V31.1307C30.177 30.1438 28.972 29.8662 28.972 29.8662V27.2757C32.9485 27.4608 32.6774 31.069 32.6774 31.069ZM38.5819 38.7172C36.2623 38.7172 34.3945 36.9593 34.3945 34.7697C34.3945 32.5801 36.2623 30.8223 38.5819 30.8223C40.9015 30.8223 42.7693 32.5801 42.7693 34.7697C42.7693 36.9593 40.9015 38.7172 38.5819 38.7172ZM52.2887 38.7172C52.2887 38.7172 52.3189 42.4796 48.6135 42.4796H47.4688V40.0433H48.1616C48.1616 40.0433 49.7281 40.1975 49.698 37.7303C49.698 37.7303 49.3967 38.7172 47.1976 38.7172C47.1976 38.7172 44.0948 38.5013 44.0948 35.3865V34.2146C44.0948 34.2146 44.155 31.0073 47.5892 30.7298C47.5892 30.7298 48.9449 30.5756 49.7582 31.7166V30.9148H52.2887V38.7172Z" fill="white"/>
<g filter="url(#filter3_d_663_209)">
<path d="M48.3127 33.1969C47.4693 33.1969 46.7764 33.9062 46.7764 34.7697C46.7764 35.6332 47.4693 36.3425 48.3127 36.3425C49.1562 36.3425 49.8491 35.6332 49.8491 34.7697C49.8491 33.9062 49.1562 33.1969 48.3127 33.1969Z" fill="white"/>
</g>
<defs>
<filter id="filter0_d_663_209" x="14.9648" y="19.3458" width="44.6738" height="29.5522" filterUnits="userSpaceOnUse" color-interpolation-filters="sRGB">
<feFlood flood-opacity="0" result="BackgroundImageFix"/>
<feColorMatrix in="SourceAlpha" type="matrix" values="0 0 0 0 0 0 0 0 0 0 0 0 0 0 0 0 0 0 127 0" result="hardAlpha"/>
<feOffset/>
<feGaussianBlur stdDeviation="2.5"/>
<feComposite in2="hardAlpha" operator="out"/>
<feColorMatrix type="matrix" values="0 0 0 0 0 0 0 0 0 0 0 0 0 0 0 0 0 0 0.5 0"/>
<feBlend mode="normal" in2="BackgroundImageFix" result="effect1_dropShadow_663_209"/>
<feBlend mode="normal" in="SourceGraphic" in2="effect1_dropShadow_663_209" result="shape"/>
</filter>
<filter id="filter1_d_663_209" x="17.6162" y="28.3202" width="12.9521" height="13.0223" filterUnits="userSpaceOnUse" color-interpolation-filters="sRGB">
<feFlood flood-opacity="0" result="BackgroundImageFix"/>
<feColorMatrix in="SourceAlpha" type="matrix" values="0 0 0 0 0 0 0 0 0 0 0 0 0 0 0 0 0 0 127 0" result="hardAlpha"/>
<feOffset/>
<feGaussianBlur stdDeviation="2.5"/>
<feComposite in2="hardAlpha" operator="out"/>
<feColorMatrix type="matrix" values="0 0 0 0 0 0 0 0 0 0 0 0 0 0 0 0 0 0 0.5 0"/>
<feBlend mode="normal" in2="BackgroundImageFix" result="effect1_dropShadow_663_209"/>
<feBlend mode="normal" in="SourceGraphic" in2="effect1_dropShadow_663_209" result="shape"/>
</filter>
<filter id="filter2_d_663_209" x="32.0146" y="28.1661" width="13.1338" height="13.2073" filterUnits="userSpaceOnUse" color-interpolation-filters="sRGB">
<feFlood flood-opacity="0" result="BackgroundImageFix"/>
<feColorMatrix in="SourceAlpha" type="matrix" values="0 0 0 0 0 0 0 0 0 0 0 0 0 0 0 0 0 0 127 0" result="hardAlpha"/>
<feOffset/>
<feGaussianBlur stdDeviation="2.5"/>
<feComposite in2="hardAlpha" operator="out"/>
<feColorMatrix type="matrix" values="0 0 0 0 0 0 0 0 0 0 0 0 0 0 0 0 0 0 0.5 0"/>
<feBlend mode="normal" in2="BackgroundImageFix" result="effect1_dropShadow_663_209"/>
<feBlend mode="normal" in="SourceGraphic" in2="effect1_dropShadow_663_209" result="shape"/>
</filter>
<filter id="filter3_d_663_209" x="41.7764" y="28.1969" width="13.0723" height="13.1456" filterUnits="userSpaceOnUse" color-interpolation-filters="sRGB">
<feFlood flood-opacity="0" result="BackgroundImageFix"/>
<feColorMatrix in="SourceAlpha" type="matrix" values="0 0 0 0 0 0 0 0 0 0 0 0 0 0 0 0 0 0 127 0" result="hardAlpha"/>
<feOffset/>
<feGaussianBlur stdDeviation="2.5"/>
<feComposite in2="hardAlpha" operator="out"/>
<feColorMatrix type="matrix" values="0 0 0 0 0 0 0 0 0 0 0 0 0 0 0 0 0 0 0.5 0"/>
<feBlend mode="normal" in2="BackgroundImageFix" result="effect1_dropShadow_663_209"/>
<feBlend mode="normal" in="SourceGraphic" in2="effect1_dropShadow_663_209" result="shape"/>
</filter>
</defs>
</svg>
