<svg width="73" height="73" viewBox="0 0 73 73" fill="none" xmlns="http://www.w3.org/2000/svg">
<circle cx="36.1875" cy="36.9785" r="36" fill="#1AC620"/>
<path d="M29.2522 39.7021V21.1595C29.2522 20.1759 28.8621 19.2326 28.1677 18.5371C27.4733 17.8416 26.5315 17.4509 25.5495 17.4509C24.5674 17.4509 23.6256 17.8416 22.9312 18.5371C22.2368 19.2326 21.8467 20.1759 21.8467 21.1595V39.7021" stroke="white" stroke-width="2" stroke-linecap="round" stroke-linejoin="round"/>
<path d="M29.2522 26.8526C32.0761 25.2194 35.3591 24.5651 38.592 24.9912C41.825 25.4172 44.8272 26.8997 47.1332 29.2089C49.4391 31.518 50.9199 34.5247 51.3458 37.7626C51.7717 41.0005 51.119 44.2887 49.4889 47.1172C47.8587 49.9457 45.3423 52.1564 42.3298 53.4065C39.3173 54.6566 35.9771 54.8763 32.8273 54.0313C29.6775 53.1864 26.8941 51.3241 24.9088 48.7333C22.9234 46.1426 21.8471 42.9681 21.8467 39.7022" stroke="white" stroke-width="2" stroke-linecap="round" stroke-linejoin="round"/>
<path d="M29.2516 31.4102C31.1474 29.7119 33.5677 28.7167 36.108 28.5907C38.6484 28.4648 41.1549 29.2158 43.2089 30.7183C45.2629 32.2207 46.7398 34.3837 47.393 36.8457C48.0461 39.3076 47.8359 41.9196 46.7975 44.245C45.7591 46.5704 43.9553 48.4685 41.6876 49.6221C39.4199 50.7757 36.8256 51.1149 34.3382 50.5831C31.8507 50.0513 29.6209 48.6807 28.0211 46.7002C26.4214 44.7198 25.5487 42.2495 25.5488 39.7021V21.1594" stroke="white" stroke-width="2" stroke-linecap="round" stroke-linejoin="round"/>
<path d="M36.6575 47.1191C40.7475 47.1191 44.0631 43.7984 44.0631 39.7021C44.0631 35.6058 40.7475 32.285 36.6575 32.285C32.5675 32.285 29.252 35.6058 29.252 39.7021C29.252 43.7984 32.5675 47.1191 36.6575 47.1191Z" stroke="white" stroke-width="2" stroke-linecap="round" stroke-linejoin="round"/>
</svg>
