<svg width="73" height="73" viewBox="0 0 73 73" fill="none" xmlns="http://www.w3.org/2000/svg">
<circle cx="36.2188" cy="36.7277" r="36" fill="#F34900"/>
<path d="M19.8164 27.5025C19.8164 28.6121 20.247 29.6763 21.0134 30.461C21.7798 31.2456 22.8192 31.6864 23.9031 31.6864C24.9869 31.6864 26.0264 31.2456 26.7928 30.461C27.5592 29.6763 27.9898 28.6121 27.9898 27.5025C27.9898 26.3928 27.5592 25.3286 26.7928 24.5439C26.0264 23.7593 24.9869 23.3185 23.9031 23.3185C22.8192 23.3185 21.7798 23.7593 21.0134 24.5439C20.247 25.3286 19.8164 26.3928 19.8164 27.5025ZM32.0764 52.6063C32.0764 53.716 32.507 54.7802 33.2734 55.5649C34.0398 56.3495 35.0793 56.7903 36.1631 56.7903C37.247 56.7903 38.2864 56.3495 39.0528 55.5649C39.8192 54.7802 40.2498 53.716 40.2498 52.6063C40.2498 51.4967 39.8192 50.4325 39.0528 49.6478C38.2864 48.8632 37.247 48.4224 36.1631 48.4224C35.0793 48.4224 34.0398 48.8632 33.2734 49.6478C32.507 50.4325 32.0764 51.4967 32.0764 52.6063ZM32.0764 40.0544C32.0764 41.1641 32.507 42.2283 33.2734 43.0129C34.0398 43.7976 35.0793 44.2384 36.1631 44.2384C37.247 44.2384 38.2864 43.7976 39.0528 43.0129C39.8192 42.2283 40.2498 41.1641 40.2498 40.0544C40.2498 38.9447 39.8192 37.8805 39.0528 37.0959C38.2864 36.3112 37.247 35.8704 36.1631 35.8704C35.0793 35.8704 34.0398 36.3112 33.2734 37.0959C32.507 37.8805 32.0764 38.9447 32.0764 40.0544ZM32.0764 27.5025C32.0764 28.6121 32.507 29.6763 33.2734 30.461C34.0398 31.2456 35.0793 31.6864 36.1631 31.6864C37.247 31.6864 38.2864 31.2456 39.0528 30.461C39.8192 29.6763 40.2498 28.6121 40.2498 27.5025C40.2498 26.3928 39.8192 25.3286 39.0528 24.5439C38.2864 23.7593 37.247 23.3185 36.1631 23.3185C35.0793 23.3185 34.0398 23.7593 33.2734 24.5439C32.507 25.3286 32.0764 26.3928 32.0764 27.5025ZM44.3365 27.5025C44.3365 28.6121 44.767 29.6763 45.5334 30.461C46.2998 31.2456 47.3393 31.6864 48.4232 31.6864C49.507 31.6864 50.5465 31.2456 51.3129 30.461C52.0793 29.6763 52.5098 28.6121 52.5098 27.5025C52.5098 26.3928 52.0793 25.3286 51.3129 24.5439C50.5465 23.7593 49.507 23.3185 48.4232 23.3185C47.3393 23.3185 46.2998 23.7593 45.5334 24.5439C44.767 25.3286 44.3365 26.3928 44.3365 27.5025Z" fill="white"/>
</svg>
