<svg width="40" height="40" viewBox="0 0 40 40" fill="none" xmlns="http://www.w3.org/2000/svg">
<path d="M12.0145 0.138672H28.3117C34.5202 0.138672 39.5645 5.30314 39.5645 11.6594V28.3446C39.5645 31.4001 38.379 34.3305 36.2687 36.491C34.1583 38.6516 31.2962 39.8654 28.3117 39.8654H12.0145C5.80609 39.8654 0.761719 34.7009 0.761719 28.3446V11.6594C0.761719 8.60392 1.94728 5.67358 4.05759 3.51302C6.1679 1.35246 9.0301 0.138672 12.0145 0.138672ZM11.6265 4.11134C9.7741 4.11134 7.99756 4.86473 6.68772 6.20576C5.37787 7.5468 4.642 9.36563 4.642 11.2621V28.7419C4.642 32.6947 7.76563 35.8927 11.6265 35.8927H28.6997C30.5522 35.8927 32.3287 35.1393 33.6385 33.7983C34.9484 32.4572 35.6842 30.6384 35.6842 28.7419V11.2621C35.6842 7.30934 32.5606 4.11134 28.6997 4.11134H11.6265ZM30.3489 7.09084C30.9921 7.09084 31.6089 7.35244 32.0637 7.81807C32.5185 8.28371 32.774 8.91525 32.774 9.57376C32.774 10.2323 32.5185 10.8638 32.0637 11.3294C31.6089 11.7951 30.9921 12.0567 30.3489 12.0567C29.7057 12.0567 29.0888 11.7951 28.634 11.3294C28.1792 10.8638 27.9237 10.2323 27.9237 9.57376C27.9237 8.91525 28.1792 8.28371 28.634 7.81807C29.0888 7.35244 29.7057 7.09084 30.3489 7.09084ZM20.1631 10.0703C22.7359 10.0703 25.2033 11.1167 27.0226 12.9793C28.8418 14.8418 29.8638 17.368 29.8638 20.002C29.8638 22.6361 28.8418 25.1622 27.0226 27.0248C25.2033 28.8873 22.7359 29.9337 20.1631 29.9337C17.5903 29.9337 15.1229 28.8873 13.3037 27.0248C11.4845 25.1622 10.4624 22.6361 10.4624 20.002C10.4624 17.368 11.4845 14.8418 13.3037 12.9793C15.1229 11.1167 17.5903 10.0703 20.1631 10.0703ZM20.1631 14.043C18.6195 14.043 17.139 14.6708 16.0475 15.7884C14.9559 16.9059 14.3427 18.4216 14.3427 20.002C14.3427 21.5824 14.9559 23.0981 16.0475 24.2157C17.139 25.3332 18.6195 25.961 20.1631 25.961C21.7068 25.961 23.1872 25.3332 24.2788 24.2157C25.3703 23.0981 25.9835 21.5824 25.9835 20.002C25.9835 18.4216 25.3703 16.9059 24.2788 15.7884C23.1872 14.6708 21.7068 14.043 20.1631 14.043Z" fill="white"/>
</svg>
