<svg width="312" height="95" viewBox="0 0 312 95" fill="none" xmlns="http://www.w3.org/2000/svg">
<path d="M223.065 94.9999H32.9347C14.7464 94.9999 0 76.5314 0 53.7467C0 30.9675 14.7464 12.499 32.9347 12.499H223.065C241.254 12.499 256 30.9675 256 53.7467C256 76.5258 241.254 94.9943 223.065 94.9943V94.9999Z" fill="#CCCCCC"/>
<path d="M224.808 82.5009H33.192C14.8616 82.5009 0 64.0323 0 41.2477C0 18.4685 14.8616 0 33.192 0H224.808C243.138 0 258 18.4685 258 41.2477C258 64.0268 243.138 82.4953 224.808 82.4953V82.5009Z" fill="#186DA8"/>
<g style="mix-blend-mode:multiply">
<path d="M224.808 70.6231H33.192C16.4866 70.6231 2.70536 55.2724 0.383929 35.3115C0.15625 37.2532 0 39.2282 0 41.2476C0 64.0323 14.8616 82.5009 33.192 82.5009H224.808C243.138 82.5009 258 64.0323 258 41.2532C258 39.2338 257.844 37.2588 257.616 35.3171C255.295 55.2779 241.509 70.6286 224.804 70.6286L224.808 70.6231Z" fill="#186DA8"/>
</g>
<path d="M44.8301 62.845C60.0363 62.845 72.3633 50.6072 72.3633 35.5111C72.3633 20.415 60.0363 8.17725 44.8301 8.17725C29.6239 8.17725 17.2969 20.415 17.2969 35.5111C17.2969 50.6072 29.6239 62.845 44.8301 62.845Z" fill="white"/>
<mask id="mask0_569_96" style="mask-type:luminance" maskUnits="userSpaceOnUse" x="31" y="22" width="28" height="28">
<path d="M35.4583 22.2632L54.9098 24.8318C56.8749 24.8318 58.5701 26.424 58.5701 28.4656L57.5011 45.9133C57.5011 47.8606 55.8977 49.5471 53.8408 49.5471L34.7511 47.3336C32.786 47.3336 31.0908 45.7413 31.0908 43.6998L31.8034 25.897C31.8034 23.8609 33.4068 22.2632 35.4637 22.2632H35.4583Z" fill="white"/>
</mask>
<g mask="url(#mask0_569_96)">
<path d="M17.2541 29.3477H67.2188L61.0643 56.8923H11.0996L17.2541 29.3477Z" fill="#FBA905"/>
<path d="M69.0004 35.55L60.5245 31.1173L26.8044 35.55L24.6611 20.4878L66.1499 17.9192L69.0004 35.55Z" fill="#FC0400"/>
<path d="M63.65 33.1588L62.3111 32.9813C58.2081 32.4487 54.0134 33.2476 50.4448 35.2836L49.1977 35.9937C47.6807 36.8813 45.9855 37.4971 44.2904 37.941L40.9 38.7398C38.8485 39.1837 35.8144 39.45 33.6712 39.1837L27.3385 38.3848C26.6259 38.296 25.9133 38.2073 25.1953 38.0297L20.9141 37.0533C18.15 36.432 15.5586 35.1948 13.329 33.4195L10.2949 31.0284L11.9901 31.3835C12.7945 31.561 13.5071 31.7386 14.3115 31.9161L15.1159 32.1824C16.5412 32.6262 18.0582 32.8925 19.667 32.9813L29.3036 33.6026L34.0329 34.0464C36.5325 34.3127 38.9403 34.0464 41.3481 33.3363L47.4162 31.5666L49.6458 30.9452C54.2833 29.6193 59.3688 30.1464 63.6554 32.3599V33.1588H63.65Z" fill="white"/>
<path d="M51.784 35.4613L40.9867 41.6637C40.8949 41.6637 40.8949 41.7525 40.8085 41.7525C39.7396 42.1076 38.8434 42.4626 37.9526 42.5514C35.2749 42.9064 32.5107 42.9064 29.7466 42.5514H29.6548C29.0286 42.5514 28.4078 42.4626 27.7815 42.3739L21.5352 39.8052L21.8052 42.5514H11.0996V41.3974H21.8052L21.4489 38.6513L27.8733 41.2199C28.4078 41.3087 28.9422 41.3974 29.5685 41.3974C32.2462 41.7525 35.0103 41.8413 37.7744 41.4862H37.8662C38.9352 41.3974 40.0095 41.1312 40.9867 40.6873L51.3359 34.4849C52.2267 33.9523 53.2092 32.8927 54.1918 32.8927L58.473 32.1826L63.5585 32.6264C61.507 30.6792 58.0249 32.3601 54.1 34.1299" fill="white"/>
</g>
<path d="M90.1435 31.824H105.696V34.368H90.1435V31.824ZM87.6715 36.888H107.784V39.456H87.6715V36.888ZM96.0235 38.424H99.2155V47.136H96.0235V38.424ZM90.1435 25.896H93.3355V33.024H90.1435V25.896ZM125.038 24.888H128.23V47.184H125.038V24.888ZM110.926 39.408H112.894C116.83 39.408 119.974 39.264 123.502 38.664L123.814 41.232C120.214 41.88 116.95 42 112.894 42H110.926V39.408ZM110.902 26.784H121.39V35.376H114.166V40.368H110.926V32.856H118.126V29.328H110.902V26.784ZM139.964 25.824H143.324C143.324 31.944 140.348 35.904 133.148 37.968L131.948 35.472C137.996 33.816 139.964 30.96 139.964 27.264V25.824ZM133.1 25.824H142.004V28.368H133.1V25.824ZM140.348 29.856V32.04L132.404 32.64L131.972 30.144L140.348 29.856ZM146.108 24.912H149.3V37.176H146.108V24.912ZM148.412 29.76H152.252V32.376H148.412V29.76ZM134.828 38.136H137.996V40.08H146.132V38.136H149.3V46.896H134.828V38.136ZM137.996 42.528V44.352H146.132V42.528H137.996ZM162.138 26.184H164.922V27.792C164.922 32.616 161.49 36.888 155.73 38.016L154.362 35.376C159.378 34.512 162.138 30.984 162.138 27.792V26.184ZM162.786 26.184H165.546V27.792C165.546 31.056 168.282 34.512 173.322 35.376L171.954 38.016C166.194 36.888 162.786 32.688 162.786 27.792V26.184ZM153.906 41.832H174.018V44.424H153.906V41.832ZM181.14 41.928H201.252V44.544H181.14V41.928ZM189.492 36.984H192.66V42.624H189.492V36.984ZM189.372 26.136H192.156V27.744C192.156 32.472 188.724 36.648 182.916 37.704L181.596 35.04C186.66 34.224 189.372 30.816 189.372 27.744V26.136ZM189.996 26.136H192.78V27.744C192.78 30.888 195.492 34.224 200.58 35.04L199.26 37.704C193.428 36.624 189.996 32.544 189.996 27.744V26.136ZM219.178 24.912H222.226V47.136H219.178V24.912ZM216.37 33.288H220.042V35.832H216.37V33.288ZM209.746 27.624H212.794C212.794 33.888 210.97 38.952 204.754 42.576L202.906 40.368C207.97 37.368 209.746 33.624 209.746 28.296V27.624ZM204.034 27.624H210.682V30.192H204.034V27.624ZM214.258 25.488H217.234V46.176H214.258V25.488Z" fill="white"/>
</svg>
