<svg width="256" height="95" viewBox="0 0 256 95" fill="none" xmlns="http://www.w3.org/2000/svg">
<path d="M223.065 94.9999H32.9347C14.7464 94.9999 0 75.4938 0 51.429C0 27.3701 14.7464 7.86401 32.9347 7.86401H223.065C241.254 7.86401 256 27.3701 256 51.429C256 75.488 241.254 94.9941 223.065 94.9941V94.9999Z" fill="#CCCCCC"/>
<path d="M223.065 87.1359H32.9347C14.7464 87.1359 0 67.6298 0 43.565C0 19.5061 14.7464 0 32.9347 0H223.065C241.254 0 256 19.5061 256 43.565C256 67.6239 241.254 87.1301 223.065 87.1301V87.1359Z" fill="#022F6F"/>
<path d="M44.5 67.4097C60.2401 67.4097 73 54.47 73 38.5082C73 22.5463 60.2401 9.60669 44.5 9.60669C28.7599 9.60669 16 22.5463 16 38.5082C16 54.47 28.7599 67.4097 44.5 67.4097Z" fill="white"/>
<mask id="mask0_723_8" style="mask-type:luminance" maskUnits="userSpaceOnUse" x="30" y="23" width="28" height="29">
<path d="M34.4583 23L53.9098 25.7302C55.8749 25.7302 57.5701 27.4225 57.5701 29.5925L56.5011 48.1377C56.5011 50.2074 54.8977 52 52.8408 52L33.7511 49.6472C31.786 49.6472 30.0908 47.9549 30.0908 45.7849L30.8034 26.8623C30.8034 24.6983 32.4068 23 34.4637 23H34.4583Z" fill="white"/>
</mask>
<g mask="url(#mask0_723_8)">
<path d="M16.2536 30.53H66.2183L60.0638 59.8072H10.0991L16.2536 30.53Z" fill="#FBA905"/>
<path d="M67.9999 37.1225L59.524 32.4111L25.8039 37.1225L23.6606 21.113L65.1494 18.3828L67.9999 37.1225Z" fill="#FC0400"/>
<path d="M62.65 34.5808L61.3111 34.3921C57.2081 33.826 53.0134 34.6752 49.4448 36.8393L48.1978 37.594C46.6807 38.5375 44.9855 39.192 43.2904 39.6638L39.9 40.5129C37.8485 40.9846 34.8144 41.2677 32.6712 40.9846L26.3385 40.1355C25.6259 40.0412 24.9133 39.9468 24.1953 39.7581L19.9141 38.7203C17.15 38.0599 14.5586 36.7449 12.329 34.858L9.29492 32.3165L10.9901 32.6939C11.7945 32.8826 12.5071 33.0713 13.3115 33.26L14.1159 33.543C15.5412 34.0147 17.0582 34.2978 18.667 34.3921L28.3036 35.0526L33.0329 35.5243C35.5325 35.8073 37.9403 35.5243 40.3481 34.7695L46.4162 32.8885L48.6458 32.228C53.2833 30.8187 58.3688 31.3789 62.6554 33.7317V34.5808H62.65Z" fill="white"/>
<path d="M50.7835 37.0282L39.9862 43.6207C39.8944 43.6207 39.8944 43.715 39.808 43.715C38.7391 44.0924 37.8429 44.4698 36.9521 44.5641C34.2744 44.9415 31.5103 44.9415 28.7461 44.5641H28.6544C28.0281 44.5641 27.4073 44.4698 26.781 44.3754L20.5348 41.6453L20.8047 44.5641H10.0991V43.3376H20.8047L20.4484 40.4188L26.8728 43.1489C27.4073 43.2433 27.9417 43.3376 28.568 43.3376C31.2457 43.715 34.0098 43.8094 36.774 43.432H36.8657C37.9347 43.3376 39.009 43.0546 39.9862 42.5828L50.3354 35.9903C51.2262 35.4242 52.2088 34.298 53.1913 34.298L57.4725 33.5432L62.558 34.0149C60.5065 31.9452 57.0244 33.7319 53.0995 35.6129" fill="white"/>
</g>
<path d="M90.1435 34.824H105.696V37.368H90.1435V34.824ZM87.6715 39.888H107.784V42.456H87.6715V39.888ZM96.0235 41.424H99.2155V50.136H96.0235V41.424ZM90.1435 28.896H93.3355V36.024H90.1435V28.896ZM125.038 27.888H128.23V50.184H125.038V27.888ZM110.926 42.408H112.894C116.83 42.408 119.974 42.264 123.502 41.664L123.814 44.232C120.214 44.88 116.95 45 112.894 45H110.926V42.408ZM110.902 29.784H121.39V38.376H114.166V43.368H110.926V35.856H118.126V32.328H110.902V29.784ZM139.964 28.824H143.324C143.324 34.944 140.348 38.904 133.148 40.968L131.948 38.472C137.996 36.816 139.964 33.96 139.964 30.264V28.824ZM133.1 28.824H142.004V31.368H133.1V28.824ZM140.348 32.856V35.04L132.404 35.64L131.972 33.144L140.348 32.856ZM146.108 27.912H149.3V40.176H146.108V27.912ZM148.412 32.76H152.252V35.376H148.412V32.76ZM134.828 41.136H137.996V43.08H146.132V41.136H149.3V49.896H134.828V41.136ZM137.996 45.528V47.352H146.132V45.528H137.996ZM162.138 29.184H164.922V30.792C164.922 35.616 161.49 39.888 155.73 41.016L154.362 38.376C159.378 37.512 162.138 33.984 162.138 30.792V29.184ZM162.786 29.184H165.546V30.792C165.546 34.056 168.282 37.512 173.322 38.376L171.954 41.016C166.194 39.888 162.786 35.688 162.786 30.792V29.184ZM153.906 44.832H174.018V47.424H153.906V44.832ZM181.14 44.928H201.252V47.544H181.14V44.928ZM189.492 39.984H192.66V45.624H189.492V39.984ZM189.372 29.136H192.156V30.744C192.156 35.472 188.724 39.648 182.916 40.704L181.596 38.04C186.66 37.224 189.372 33.816 189.372 30.744V29.136ZM189.996 29.136H192.78V30.744C192.78 33.888 195.492 37.224 200.58 38.04L199.26 40.704C193.428 39.624 189.996 35.544 189.996 30.744V29.136ZM219.178 27.912H222.226V50.136H219.178V27.912ZM216.37 36.288H220.042V38.832H216.37V36.288ZM209.746 30.624H212.794C212.794 36.888 210.97 41.952 204.754 45.576L202.906 43.368C207.97 40.368 209.746 36.624 209.746 31.296V30.624ZM204.034 30.624H210.682V33.192H204.034V30.624ZM214.258 28.488H217.234V49.176H214.258V28.488Z" fill="white"/>
</svg>
