<svg width="56" height="68" viewBox="0 0 56 68" fill="none" xmlns="http://www.w3.org/2000/svg">
<path d="M53 42.5V33.75C53 30.7663 51.8147 27.9048 49.705 25.795C47.5952 23.6853 44.7337 22.5 41.75 22.5H36.75C35.7554 22.5 34.8016 22.1049 34.0983 21.4016C33.3951 20.6984 33 19.7446 33 18.75V13.75C33 10.7663 31.8147 7.90483 29.7049 5.79505C27.5952 3.68526 24.7337 2.5 21.75 2.5H15.5M32.9367 47.4367L38 52.5M32.9367 47.4367C33.7492 46.6242 34.3942 45.6601 34.8339 44.5985C35.2737 43.5369 35.5 42.3991 35.5 41.25C35.5 38.9294 34.5781 36.7038 32.9372 35.0628C31.2962 33.4219 29.0706 32.5 26.75 32.5C24.4294 32.5 22.2038 33.4219 20.5628 35.0628C18.9219 36.7038 18 38.9294 18 41.25C18 42.3991 18.2263 43.5369 18.6661 44.5985C19.1058 45.6601 19.7503 46.6247 20.5628 47.4372C21.3753 48.2497 22.3399 48.8942 23.4015 49.3339C24.4631 49.7737 25.6009 50 26.75 50C27.8991 50 29.0369 49.7737 30.0985 49.3339C31.1601 48.8942 32.1242 48.2492 32.9367 47.4367ZM23 2.5H6.75C4.68 2.5 3 4.18 3 6.25V61.25C3 63.32 4.68 65 6.75 65H49.25C51.32 65 53 63.32 53 61.25V32.5C53 24.5435 49.8393 16.9129 44.2132 11.2868C38.5871 5.6607 30.9565 2.5 23 2.5Z" stroke="#3EA2B8" stroke-width="5" stroke-linecap="round" stroke-linejoin="round"/>
</svg>
