<svg width="65" height="65" viewBox="0 0 65 65" fill="none" xmlns="http://www.w3.org/2000/svg">
<path d="M14.8958 18.9583C14.8958 17.8913 15.106 16.8348 15.5143 15.849C15.9226 14.8632 16.5211 13.9676 17.2756 13.2131C18.0301 12.4586 18.9258 11.8601 19.9115 11.4518C20.8973 11.0435 21.9538 10.8333 23.0208 10.8333C24.0878 10.8333 25.1444 11.0435 26.1301 11.4518C27.1159 11.8601 28.0116 12.4586 28.7661 13.2131C29.5206 13.9676 30.119 14.8632 30.5274 15.849C30.9357 16.8348 31.1458 17.8913 31.1458 18.9583C31.1458 21.1132 30.2898 23.1798 28.7661 24.7036C27.2423 26.2273 25.1757 27.0833 23.0208 27.0833C20.8659 27.0833 18.7993 26.2273 17.2756 24.7036C15.7519 23.1798 14.8958 21.1132 14.8958 18.9583ZM23.0208 5.41666C19.4294 5.41666 15.985 6.84336 13.4454 9.38292C10.9059 11.9225 9.47917 15.3668 9.47917 18.9583C9.47917 22.5498 10.9059 25.9942 13.4454 28.5337C15.985 31.0733 19.4294 32.5 23.0208 32.5C26.6123 32.5 30.0567 31.0733 32.5962 28.5337C35.1358 25.9942 36.5625 22.5498 36.5625 18.9583C36.5625 15.3668 35.1358 11.9225 32.5962 9.38292C30.0567 6.84336 26.6123 5.41666 23.0208 5.41666ZM41.9792 5.41666H39.2708V10.8333H41.9792C43.0462 10.8333 44.1027 11.0435 45.0885 11.4518C46.0742 11.8601 46.9699 12.4586 47.7244 13.2131C48.4789 13.9676 49.0774 14.8632 49.4857 15.849C49.894 16.8348 50.1042 17.8913 50.1042 18.9583C50.1042 20.0253 49.894 21.0819 49.4857 22.0676C49.0774 23.0534 48.4789 23.9491 47.7244 24.7036C46.9699 25.458 46.0742 26.0565 45.0885 26.4648C44.1027 26.8732 43.0462 27.0833 41.9792 27.0833H39.2708V32.5H41.9792C45.5706 32.5 49.015 31.0733 51.5546 28.5337C54.0941 25.9942 55.5208 22.5498 55.5208 18.9583C55.5208 15.3668 54.0941 11.9225 51.5546 9.38292C49.015 6.84336 45.5706 5.41666 41.9792 5.41666ZM0 51.4583C0 47.8668 1.42671 44.4225 3.96626 41.8829C6.50582 39.3434 9.95019 37.9167 13.5417 37.9167H32.5C36.0915 37.9167 39.5358 39.3434 42.0754 41.8829C44.615 44.4225 46.0417 47.8668 46.0417 51.4583V56.875H40.625V51.4583C40.625 49.3034 39.769 47.2368 38.2452 45.7131C36.7215 44.1893 34.6549 43.3333 32.5 43.3333H13.5417C11.3868 43.3333 9.32016 44.1893 7.79642 45.7131C6.27269 47.2368 5.41667 49.3034 5.41667 51.4583V56.875H0V51.4583ZM65 51.4583C65 49.68 64.6497 47.9191 63.9692 46.2761C63.2887 44.6332 62.2912 43.1404 61.0337 41.8829C59.7763 40.6255 58.2835 39.628 56.6405 38.9475C54.9976 38.2669 53.2366 37.9167 51.4583 37.9167H48.75V43.3333H51.4583C53.6132 43.3333 55.6798 44.1893 57.2036 45.7131C58.7273 47.2368 59.5833 49.3034 59.5833 51.4583V56.875H65V51.4583Z" fill="#3EA2B8"/>
</svg>
