<svg width="333" height="66" viewBox="0 0 333 66" fill="none" xmlns="http://www.w3.org/2000/svg">
<rect y="10" width="260" height="56" rx="28" fill="#CCCCCC"/>
<rect width="260" height="61" rx="30.5" fill="#F56E00"/>
<path d="M38.5 50C50.3741 50 60 40.8218 60 29.5C60 18.1782 50.3741 9 38.5 9C26.6259 9 17 18.1782 17 29.5C17 40.8218 26.6259 50 38.5 50Z" fill="white"/>
<path fill-rule="evenodd" clip-rule="evenodd" d="M27.3948 21.1165C27.3948 19.9405 28.3381 19 29.4867 19H50.9081C52.0518 19 53 19.9356 53 21.1165V34.0054C53 35.1814 52.0567 36.1219 50.9081 36.1219H33.834V38.0546C33.834 39.1384 32.9643 40 31.912 40H25.922C24.8698 40 24 39.1384 24 38.0546V32.0228C24 30.939 24.8698 30.0774 25.922 30.0774L27.3948 30.0774V21.1165ZM25.922 31.1703C25.4408 31.1703 25.0656 31.5624 25.0656 32.0228V38.0546C25.0656 38.515 25.4408 38.9071 25.922 38.9071H31.912C32.3932 38.9071 32.7684 38.515 32.7684 38.0546V32.0228C32.7684 31.5614 32.3943 31.1703 31.912 31.1703L25.922 31.1703ZM33.834 35.029V32.0228C33.834 30.939 32.9643 30.0774 31.912 30.0774L28.4604 30.0774V21.1165C28.4604 20.5614 28.9096 20.0929 29.4867 20.0929H50.9081C51.4833 20.0929 51.9344 20.5595 51.9344 21.1165V34.0054C51.9344 34.5605 51.4852 35.029 50.9081 35.029H33.834ZM30.6598 23.5349C30.391 23.5349 30.1898 23.7517 30.1898 23.9982V24.4712C30.1898 24.7177 30.391 24.9345 30.6598 24.9345H38.0823C38.3511 24.9345 38.5523 24.7177 38.5523 24.4712V23.9982C38.5523 23.7517 38.3511 23.5349 38.0823 23.5349H30.6598ZM29.1242 23.9982C29.1242 23.1293 29.821 22.442 30.6598 22.442H38.0823C38.9211 22.442 39.6179 23.1293 39.6179 23.9982V24.4712C39.6179 25.3401 38.9211 26.0274 38.0823 26.0274H30.6598C29.821 26.0274 29.1242 25.3401 29.1242 24.4712V23.9982ZM45.4879 23.5349C43.2651 23.5349 41.4799 25.3468 41.4799 27.5609C41.4799 28.3267 41.6935 29.0444 42.0649 29.6556C42.5137 29.1249 43.1532 28.7215 43.888 28.482C43.6153 28.1039 43.456 27.6302 43.456 27.1281C43.456 25.9519 44.3308 24.9312 45.4879 24.9312C46.6451 24.9312 47.5199 25.9519 47.5199 27.1281C47.5199 27.6304 47.3604 28.1044 47.0875 28.4826C47.8224 28.7225 48.462 29.1262 48.9109 29.656C49.2823 29.0447 49.4959 28.3269 49.4959 27.5609C49.4959 25.3468 47.7107 23.5349 45.4879 23.5349ZM49.5026 30.6918C50.1659 29.8275 50.5615 28.7423 50.5615 27.5609C50.5615 24.7244 48.2807 22.442 45.4879 22.442C42.6951 22.442 40.4143 24.7244 40.4143 27.5609C40.4143 28.7427 40.8102 29.8282 41.4742 30.6926L41.4711 30.6996L41.5467 30.7849C42.4452 31.9009 43.7993 32.6264 45.3179 32.677C45.3745 32.6789 45.4313 32.6799 45.4883 32.6799C45.532 32.6799 45.5755 32.6793 45.6189 32.6782C47.1506 32.6391 48.5179 31.9135 49.424 30.7917L49.5059 30.6993L49.5026 30.6918ZM48.2104 30.5082C47.7388 29.8509 46.7426 29.3251 45.4879 29.3251C44.2321 29.3251 43.2367 29.8492 42.7658 30.5078C43.4816 31.176 44.4353 31.587 45.4883 31.587C46.5411 31.587 47.4946 31.1762 48.2104 30.5082ZM45.4879 28.2322C45.9867 28.2322 46.4543 27.775 46.4543 27.1281C46.4543 26.4812 45.9867 26.0241 45.4879 26.0241C44.9892 26.0241 44.5216 26.4812 44.5216 27.1281C44.5216 27.775 44.9892 28.2322 45.4879 28.2322ZM29.5137 27.3127C29.5137 27.0109 29.7522 26.7662 30.0465 26.7662H38.3552C38.6494 26.7662 38.888 27.0109 38.888 27.3127C38.888 27.6145 38.6494 27.8591 38.3552 27.8591H30.0465C29.7522 27.8591 29.5137 27.6145 29.5137 27.3127ZM32.0521 29.3624C32.0521 29.0606 32.2907 28.816 32.5849 28.816H38.0219C38.3161 28.816 38.5547 29.0606 38.5547 29.3624C38.5547 29.6642 38.3161 29.9089 38.0219 29.9089H32.5849C32.2907 29.9089 32.0521 29.6642 32.0521 29.3624ZM25.5128 32.7575C25.5128 32.4557 25.7514 32.211 26.0456 32.211H30.763C31.0572 32.211 31.2958 32.4557 31.2958 32.7575C31.2958 33.0593 31.0572 33.3039 30.763 33.3039H26.0456C25.7514 33.3039 25.5128 33.0593 25.5128 32.7575ZM25.5128 34.6562C25.5128 34.3544 25.7514 34.1098 26.0456 34.1098H30.763C31.0572 34.1098 31.2958 34.3544 31.2958 34.6562C31.2958 34.958 31.0572 35.2027 30.763 35.2027H26.0456C25.7514 35.2027 25.5128 34.958 25.5128 34.6562ZM25.5128 36.5583C25.5128 36.2566 25.7514 36.0119 26.0456 36.0119H28.4043C28.6986 36.0119 28.9371 36.2566 28.9371 36.5583C28.9371 36.8601 28.6986 37.1048 28.4043 37.1048H26.0456C25.7514 37.1048 25.5128 36.8601 25.5128 36.5583ZM32.2314 36.3557C32.4489 36.5589 32.4646 36.9046 32.2665 37.1277L30.9139 38.6507C30.7955 38.7841 30.6205 38.8489 30.4463 38.824C30.2721 38.799 30.1212 38.6875 30.0429 38.5259L29.3066 37.0062C29.1757 36.7359 29.2832 36.408 29.5467 36.2737C29.8102 36.1394 30.13 36.2496 30.2609 36.5199L30.6506 37.3242L31.4787 36.3917C31.6769 36.1686 32.0138 36.1525 32.2314 36.3557Z" fill="#FF6B03"/>
<path d="M92.64 21.24H95.32V39.76H92.64V21.24ZM94.62 28.32H97.88V30.5H94.62V28.32ZM87.78 23.16H90.38C90.38 28.72 88.26 33.48 82.1 36.58L80.62 34.56C85.48 32.04 87.78 28.64 87.78 23.62V23.16ZM81.64 23.16H89.14V25.3H81.64V23.16ZM111.918 21.26H114.598V31.22H111.918V21.26ZM102.278 32.02H104.898V33.74H111.958V32.02H114.598V39.58H102.278V32.02ZM104.898 35.78V37.46H111.958V35.78H104.898ZM104.518 22.02C107.398 22.02 109.538 23.84 109.538 26.4C109.538 28.96 107.398 30.78 104.518 30.78C101.638 30.78 99.4784 28.96 99.4784 26.4C99.4784 23.84 101.638 22.02 104.518 22.02ZM104.518 24.22C103.098 24.22 102.078 25.04 102.078 26.4C102.078 27.78 103.098 28.58 104.518 28.58C105.918 28.58 106.938 27.78 106.938 26.4C106.938 25.04 105.918 24.22 104.518 24.22ZM134.614 21.28H137.294V34.78H134.614V21.28ZM124.954 37.34H137.754V39.46H124.954V37.34ZM124.954 33.48H127.614V38.44H124.954V33.48ZM126.234 22.28H128.434V24.08C128.434 27.7 126.774 31.04 123.174 32.3L121.834 30.18C124.934 29.12 126.234 26.54 126.234 24.08V22.28ZM126.774 22.28H128.954V24.08C128.954 26.5 130.214 28.88 133.254 29.86L131.894 31.98C128.394 30.8 126.774 27.66 126.774 24.08V22.28ZM144.452 24.5H146.592V25.18C146.592 28.4 144.952 31.3 141.412 32.32L140.172 30.24C143.152 29.4 144.452 27.28 144.452 25.18V24.5ZM144.952 24.5H147.112V25.18C147.112 27.08 148.432 29.02 151.412 29.8L150.212 31.86C146.652 30.92 144.952 28.22 144.952 25.18V24.5ZM140.812 23.18H150.752V25.26H140.812V23.18ZM144.452 21.2H147.112V24H144.452V21.2ZM150.232 26.2H153.772V28.34H150.232V26.2ZM153.132 21.26H155.792V32.44H153.132V21.26ZM149.512 32.76C153.432 32.76 155.852 34.04 155.852 36.26C155.852 38.48 153.432 39.78 149.512 39.78C145.592 39.78 143.172 38.48 143.172 36.26C143.172 34.04 145.592 32.76 149.512 32.76ZM149.512 34.78C147.092 34.78 145.832 35.26 145.832 36.26C145.832 37.26 147.092 37.76 149.512 37.76C151.952 37.76 153.212 37.26 153.212 36.26C153.212 35.26 151.952 34.78 149.512 34.78ZM168.031 27.04H172.911V29.18H168.031V27.04ZM162.991 22.68H165.151V25.36C165.151 30.02 163.571 34.32 160.091 36.06L158.431 33.92C161.591 32.46 162.991 28.88 162.991 25.36V22.68ZM163.551 22.68H165.671V25.36C165.671 28.88 167.011 32.26 170.071 33.62L168.491 35.74C165.011 34.06 163.551 29.98 163.551 25.36V22.68ZM171.591 21.24H174.231V39.82H171.591V21.24ZM185.506 23.16H187.686V24.32C187.686 27.82 186.026 30.96 182.486 32.1L181.106 30.04C184.206 29.04 185.506 26.64 185.506 24.32V23.16ZM186.046 23.16H188.206V24.32C188.206 26.5 189.466 28.76 192.466 29.72L191.106 31.78C187.646 30.66 186.046 27.64 186.046 24.32V23.16ZM181.826 22.34H191.826V24.46H181.826V22.34ZM193.306 21.26H195.966V32.42H193.306V21.26ZM195.226 25.74H198.426V27.92H195.226V25.74ZM183.606 33.22H195.966V39.78H193.306V35.36H183.606V33.22ZM204.084 22.22H206.304V23.88C206.304 27.6 204.644 30.86 201.004 32.08L199.624 29.94C202.784 28.92 204.084 26.42 204.084 23.88V22.22ZM204.644 22.22H206.784V23.76C206.784 26.22 207.984 28.5 210.924 29.44L209.544 31.52C206.124 30.34 204.644 27.36 204.644 23.76V22.22ZM212.624 21.26H215.284V32.1H212.624V21.26ZM209.004 32.58C212.924 32.58 215.344 33.92 215.344 36.18C215.344 38.46 212.924 39.78 209.004 39.78C205.084 39.78 202.664 38.46 202.664 36.18C202.664 33.92 205.084 32.58 209.004 32.58ZM209.004 34.64C206.604 34.64 205.324 35.14 205.324 36.18C205.324 37.22 206.604 37.74 209.004 37.74C211.424 37.74 212.704 37.22 212.704 36.18C212.704 35.14 211.424 34.64 209.004 34.64ZM209.244 24.62H213.004V26.78H209.244V24.62Z" fill="white"/>
</svg>
