<svg width="77" height="77" viewBox="0 0 77 77" fill="none" xmlns="http://www.w3.org/2000/svg">
<path fill-rule="evenodd" clip-rule="evenodd" d="M67 10.9246C67 7.99494 63.8733 6.03767 61.2413 7.49155C57.704 9.44257 47.232 15.1268 40.9631 17.6312C33.6676 20.5421 27.3862 21.6365 20.1871 21.9741C15.2 22.2055 11 26.2545 11 31.4791V43.9857C11 49.2103 15.2 53.2593 20.1871 53.4907C21.0375 53.5323 21.8775 53.5834 22.7071 53.6439L20.3924 65.2593C20.2307 66.0728 20.3972 66.9175 20.8552 67.6077C21.3132 68.2978 22.0252 68.7768 22.8347 68.9394C23.6441 69.1019 24.4846 68.9346 25.1714 68.4743C25.8581 68.014 26.3347 67.2984 26.4964 66.485L28.9013 54.3911C32.8307 55.0633 36.7258 56.142 40.9631 57.8336C47.232 60.338 57.7009 66.0253 61.2413 67.9732C63.8733 69.4271 67 67.4698 67 64.5402V10.9246ZM29.6667 48.1816C34.0782 48.9164 38.4804 50.1139 43.2622 52.0243C48.4018 54.0753 55.9742 58.0243 60.7778 60.61V14.8548C55.9742 17.4405 48.4018 21.3895 43.2622 23.4405C38.4804 25.3478 34.0782 26.5484 29.6667 27.2863V48.1816ZM23.4444 28.0367C22.4655 28.1117 21.4761 28.1732 20.4764 28.2212C18.6004 28.3087 17.2222 29.797 17.2222 31.4791V43.9857C17.2222 45.6678 18.6004 47.1561 20.4764 47.2436C21.4782 47.2895 22.4676 47.352 23.4444 47.4312V28.0367Z" fill="#3EA2B8"/>
<path d="M61.4828 7.92937L61.4831 7.92922C63.7678 6.66715 66.5 8.35954 66.5 10.9246V64.5402C66.5 67.1053 63.7678 68.7976 61.4831 67.5356L61.4824 67.5352C57.9492 65.5913 47.4517 59.8874 41.1486 57.3692L41.1485 57.3692C36.8795 55.665 32.9505 54.5766 28.9856 53.8983L28.5059 53.8162L28.4109 54.2936L26.006 66.3874L26.4964 66.485L26.006 66.3875C25.87 67.0716 25.4693 67.6727 24.893 68.059C24.3167 68.4453 23.6118 68.5854 22.9331 68.4492C22.2544 68.3129 21.6566 67.9111 21.2718 67.3312C20.8869 66.7513 20.7469 66.0411 20.8828 65.357C20.8828 65.357 20.8828 65.3569 20.8828 65.3568L23.1975 53.7416L23.3081 53.1863L22.7434 53.1452C21.9098 53.0844 21.0658 53.0331 20.2116 52.9912L20.2103 52.9912C15.4742 52.7715 11.5 48.9276 11.5 43.9857V31.4791C11.5 26.5372 15.4742 22.6933 20.2103 22.4736L20.2105 22.4736C27.4546 22.1338 33.7923 21.0307 41.1484 18.0956L41.1486 18.0956C47.4518 15.5774 57.952 9.8768 61.4828 7.92937ZM29.1667 48.1816V48.6052L29.5845 48.6748C33.9604 49.4036 38.328 50.5914 43.0767 52.4886L43.0769 52.4886C48.1861 54.5276 55.7347 58.4632 60.5408 61.0503L61.2778 61.447V60.61V14.8548V14.0178L60.5408 14.4145C55.7347 17.0016 48.1862 20.9371 43.077 22.9761C38.3279 24.8703 33.9601 26.0612 29.5842 26.7931L29.1667 26.863V27.2863V48.1816ZM23.9444 28.0367V27.4969L23.4062 27.5382C22.4322 27.6128 21.4477 27.674 20.4528 27.7217C18.3205 27.8214 16.7222 29.5198 16.7222 31.4791V43.9857C16.7222 45.9451 18.3207 47.6436 20.4531 47.7431L20.4536 47.7431C21.4496 47.7887 22.4331 47.8509 23.404 47.9296L23.9444 47.9734V47.4312V28.0367Z" stroke="#3EA2B8" stroke-opacity="0.05"/>
</svg>
