<svg width="87" height="87" viewBox="0 0 87 87" fill="none" xmlns="http://www.w3.org/2000/svg">
<mask id="path-1-outside-1_533_57" maskUnits="userSpaceOnUse" x="6.24707" y="9.80612" width="75" height="68" fill="black">
<rect fill="white" x="6.24707" y="9.80612" width="75" height="68"/>
<path d="M42.4197 72.2897C42.8934 72.2897 43.3791 72.1834 43.8769 71.9707C44.3748 71.7581 44.7771 71.4983 45.0841 71.1914L73.3446 42.9272C74.2556 42.0162 74.9589 41.0857 75.4543 40.136C75.9473 39.1814 76.1938 38.135 76.1938 36.9967C76.1938 35.844 75.9473 34.7251 75.4543 33.64C74.9589 32.5525 74.2556 31.5617 73.3446 30.6675L59.7508 17.0737C58.8542 16.1627 57.9323 15.4945 56.9849 15.0691C56.04 14.6438 54.9912 14.4311 53.8384 14.4311C52.7002 14.4311 51.6429 14.6438 50.6666 15.0691C49.6902 15.4945 48.7707 16.1615 47.9079 17.0701L44.7469 20.2311L51.4532 26.9555C52.1734 27.6636 52.7111 28.4683 53.0663 29.3697C53.4191 30.2712 53.5956 31.1859 53.5956 32.1139C53.5956 34.0013 52.9781 35.5625 51.7432 36.7974C50.5083 38.0323 48.9483 38.6485 47.0633 38.6461C46.1329 38.6461 45.2254 38.5047 44.3409 38.222C43.4564 37.9392 42.6601 37.4438 41.9521 36.7357L35.0174 29.8265L19.3647 45.4756C18.9998 45.843 18.7255 46.2598 18.5418 46.7262C18.3581 47.1927 18.2663 47.6639 18.2663 48.14C18.2663 48.9955 18.5406 49.7 19.0892 50.2534C19.6354 50.8092 20.3362 51.0871 21.1917 51.0871C21.6654 51.0871 22.1511 50.9808 22.6489 50.7681C23.1468 50.553 23.5491 50.292 23.8561 49.9851L35.3437 38.4975L37.9102 41.064L26.4407 52.5552C26.0734 52.9202 25.7979 53.3358 25.6142 53.8022C25.4329 54.2711 25.3423 54.7423 25.3423 55.216C25.3423 56.0256 25.6275 56.7155 26.1978 57.2859C26.7681 57.8562 27.4581 58.1426 28.2677 58.145C28.7414 58.145 29.2271 58.0375 29.7249 57.8224C30.2228 57.6073 30.6251 57.3475 30.9321 57.043L43.2571 44.7397L45.8236 47.3026L33.5167 59.6276C33.1953 59.9345 32.9319 60.3369 32.7264 60.8347C32.5186 61.3326 32.4147 61.8183 32.4147 62.292C32.4147 63.0992 32.7011 63.7879 33.2738 64.3582C33.8441 64.9334 34.5341 65.221 35.3437 65.221C35.8174 65.221 36.2886 65.1292 36.7574 64.9455C37.2263 64.7618 37.6419 64.4863 38.0044 64.119L50.3294 51.8121L52.8959 54.3786L40.5709 66.7036C40.206 67.0709 39.9317 67.512 39.7481 68.0267C39.5644 68.5415 39.4726 69.0115 39.4726 69.4369C39.4726 70.2924 39.7734 70.9823 40.3752 71.5067C40.9769 72.0312 41.6584 72.2934 42.4197 72.2934M42.3979 75.9184C40.5347 75.9184 38.9397 75.2369 37.6129 73.8739C36.2862 72.5084 35.7038 70.824 35.8657 68.8206C33.8115 68.8448 32.1017 68.2322 30.7363 66.9827C29.3709 65.7309 28.722 63.9861 28.7897 61.7482C26.5519 61.7724 24.7877 61.132 23.4972 59.827C22.2067 58.522 21.6194 56.8037 21.7354 54.6722C19.7199 54.6964 18.0331 54.1285 16.6749 52.9685C15.3192 51.8133 14.6413 50.2038 14.6413 48.14C14.6413 47.2096 14.8214 46.2792 15.1814 45.3487C15.5415 44.4159 16.0732 43.5967 16.7764 42.891L35.0174 24.6717L44.3772 34.0315C44.6841 34.3529 45.0635 34.6175 45.5154 34.8254C45.9674 35.0332 46.4761 35.1359 47.0416 35.1335C47.8173 35.1335 48.5024 34.8628 49.0969 34.3215C49.6914 33.7802 49.9899 33.0745 49.9923 32.2045C49.9923 31.639 49.8884 31.1315 49.6806 30.682C49.4727 30.2301 49.2093 29.8507 48.8903 29.5437L36.4203 17.0737C35.5213 16.1627 34.5873 15.4945 33.6182 15.0691C32.6491 14.6438 31.5882 14.4311 30.4354 14.4311C29.2972 14.4311 28.2629 14.6438 27.3324 15.0691C26.4044 15.4945 25.4849 16.1627 24.5738 17.0737L13.5393 28.13C12.7611 28.9033 12.1328 29.8277 11.6543 30.9031C11.1758 31.9761 10.9221 33.0842 10.8931 34.2272C10.8689 35.0465 10.939 35.8331 11.1033 36.5871C11.2676 37.3411 11.5335 38.0516 11.9008 38.7186L9.15306 41.4664C8.54406 40.4949 8.06798 39.376 7.72481 38.1096C7.38165 36.8433 7.22335 35.5504 7.24994 34.2309C7.27894 32.5827 7.60881 31.0058 8.23956 29.5002C8.87031 27.9947 9.77415 26.6522 10.9511 25.4729L21.9167 14.5072C23.1806 13.2554 24.5182 12.325 25.9296 11.716C27.3409 11.1094 28.867 10.8061 30.5079 10.8061C32.1489 10.8061 33.6617 11.1106 35.0464 11.7196C36.4336 12.3262 37.7531 13.2554 39.0049 14.5072L42.1587 17.6646L45.3197 14.5072C46.5836 13.2554 47.9091 12.325 49.2963 11.716C50.6835 11.1094 52.1975 10.8061 53.8384 10.8061C55.4794 10.8061 57.0055 11.1106 58.4168 11.7196C59.8257 12.3262 61.1549 13.2554 62.4043 14.5072L75.9111 28.0104C77.1605 29.2598 78.1247 30.6627 78.8038 32.219C79.4829 33.7753 79.8212 35.374 79.8188 37.0149C79.8188 38.6582 79.4805 40.1722 78.8038 41.557C78.1272 42.9417 77.1629 44.2612 75.9111 45.5155L47.6469 73.7542C46.8954 74.5082 46.0761 75.0568 45.1892 75.4C44.3047 75.7432 43.3743 75.9147 42.3979 75.9147"/>
</mask>
<path d="M42.4197 72.2897C42.8934 72.2897 43.3791 72.1834 43.8769 71.9707C44.3748 71.7581 44.7771 71.4983 45.0841 71.1914L73.3446 42.9272C74.2556 42.0162 74.9589 41.0857 75.4543 40.136C75.9473 39.1814 76.1938 38.135 76.1938 36.9967C76.1938 35.844 75.9473 34.7251 75.4543 33.64C74.9589 32.5525 74.2556 31.5617 73.3446 30.6675L59.7508 17.0737C58.8542 16.1627 57.9323 15.4945 56.9849 15.0691C56.04 14.6438 54.9912 14.4311 53.8384 14.4311C52.7002 14.4311 51.6429 14.6438 50.6666 15.0691C49.6902 15.4945 48.7707 16.1615 47.9079 17.0701L44.7469 20.2311L51.4532 26.9555C52.1734 27.6636 52.7111 28.4683 53.0663 29.3697C53.4191 30.2712 53.5956 31.1859 53.5956 32.1139C53.5956 34.0013 52.9781 35.5625 51.7432 36.7974C50.5083 38.0323 48.9483 38.6485 47.0633 38.6461C46.1329 38.6461 45.2254 38.5047 44.3409 38.222C43.4564 37.9392 42.6601 37.4438 41.9521 36.7357L35.0174 29.8265L19.3647 45.4756C18.9998 45.843 18.7255 46.2598 18.5418 46.7262C18.3581 47.1927 18.2663 47.6639 18.2663 48.14C18.2663 48.9955 18.5406 49.7 19.0892 50.2534C19.6354 50.8092 20.3362 51.0871 21.1917 51.0871C21.6654 51.0871 22.1511 50.9808 22.6489 50.7681C23.1468 50.553 23.5491 50.292 23.8561 49.9851L35.3437 38.4975L37.9102 41.064L26.4407 52.5552C26.0734 52.9202 25.7979 53.3358 25.6142 53.8022C25.4329 54.2711 25.3423 54.7423 25.3423 55.216C25.3423 56.0256 25.6275 56.7155 26.1978 57.2859C26.7681 57.8562 27.4581 58.1426 28.2677 58.145C28.7414 58.145 29.2271 58.0375 29.7249 57.8224C30.2228 57.6073 30.6251 57.3475 30.9321 57.043L43.2571 44.7397L45.8236 47.3026L33.5167 59.6276C33.1953 59.9345 32.9319 60.3369 32.7264 60.8347C32.5186 61.3326 32.4147 61.8183 32.4147 62.292C32.4147 63.0992 32.7011 63.7879 33.2738 64.3582C33.8441 64.9334 34.5341 65.221 35.3437 65.221C35.8174 65.221 36.2886 65.1292 36.7574 64.9455C37.2263 64.7618 37.6419 64.4863 38.0044 64.119L50.3294 51.8121L52.8959 54.3786L40.5709 66.7036C40.206 67.0709 39.9317 67.512 39.7481 68.0267C39.5644 68.5415 39.4726 69.0115 39.4726 69.4369C39.4726 70.2924 39.7734 70.9823 40.3752 71.5067C40.9769 72.0312 41.6584 72.2934 42.4197 72.2934M42.3979 75.9184C40.5347 75.9184 38.9397 75.2369 37.6129 73.8739C36.2862 72.5084 35.7038 70.824 35.8657 68.8206C33.8115 68.8448 32.1017 68.2322 30.7363 66.9827C29.3709 65.7309 28.722 63.9861 28.7897 61.7482C26.5519 61.7724 24.7877 61.132 23.4972 59.827C22.2067 58.522 21.6194 56.8037 21.7354 54.6722C19.7199 54.6964 18.0331 54.1285 16.6749 52.9685C15.3192 51.8133 14.6413 50.2038 14.6413 48.14C14.6413 47.2096 14.8214 46.2792 15.1814 45.3487C15.5415 44.4159 16.0732 43.5967 16.7764 42.891L35.0174 24.6717L44.3772 34.0315C44.6841 34.3529 45.0635 34.6175 45.5154 34.8254C45.9674 35.0332 46.4761 35.1359 47.0416 35.1335C47.8173 35.1335 48.5024 34.8628 49.0969 34.3215C49.6914 33.7802 49.9899 33.0745 49.9923 32.2045C49.9923 31.639 49.8884 31.1315 49.6806 30.682C49.4727 30.2301 49.2093 29.8507 48.8903 29.5437L36.4203 17.0737C35.5213 16.1627 34.5873 15.4945 33.6182 15.0691C32.6491 14.6438 31.5882 14.4311 30.4354 14.4311C29.2972 14.4311 28.2629 14.6438 27.3324 15.0691C26.4044 15.4945 25.4849 16.1627 24.5738 17.0737L13.5393 28.13C12.7611 28.9033 12.1328 29.8277 11.6543 30.9031C11.1758 31.9761 10.9221 33.0842 10.8931 34.2272C10.8689 35.0465 10.939 35.8331 11.1033 36.5871C11.2676 37.3411 11.5335 38.0516 11.9008 38.7186L9.15306 41.4664C8.54406 40.4949 8.06798 39.376 7.72481 38.1096C7.38165 36.8433 7.22335 35.5504 7.24994 34.2309C7.27894 32.5827 7.60881 31.0058 8.23956 29.5002C8.87031 27.9947 9.77415 26.6522 10.9511 25.4729L21.9167 14.5072C23.1806 13.2554 24.5182 12.325 25.9296 11.716C27.3409 11.1094 28.867 10.8061 30.5079 10.8061C32.1489 10.8061 33.6617 11.1106 35.0464 11.7196C36.4336 12.3262 37.7531 13.2554 39.0049 14.5072L42.1587 17.6646L45.3197 14.5072C46.5836 13.2554 47.9091 12.325 49.2963 11.716C50.6835 11.1094 52.1975 10.8061 53.8384 10.8061C55.4794 10.8061 57.0055 11.1106 58.4168 11.7196C59.8257 12.3262 61.1549 13.2554 62.4043 14.5072L75.9111 28.0104C77.1605 29.2598 78.1247 30.6627 78.8038 32.219C79.4829 33.7753 79.8212 35.374 79.8188 37.0149C79.8188 38.6582 79.4805 40.1722 78.8038 41.557C78.1272 42.9417 77.1629 44.2612 75.9111 45.5155L47.6469 73.7542C46.8954 74.5082 46.0761 75.0568 45.1892 75.4C44.3047 75.7432 43.3743 75.9147 42.3979 75.9147" fill="#3EA2B8"/>
<path d="M45.0841 71.1914L45.7912 71.8985L45.7912 71.8984L45.0841 71.1914ZM73.3446 42.9272L72.6375 42.2201L72.6374 42.2202L73.3446 42.9272ZM75.4543 40.136L76.341 40.5985L76.3428 40.5949L75.4543 40.136ZM75.4543 33.64L76.3648 33.2263L76.3643 33.2254L75.4543 33.64ZM73.3446 30.6675L72.6374 31.3746L72.6441 31.3812L73.3446 30.6675ZM59.7508 17.0737L59.038 17.7752L59.0437 17.7809L59.7508 17.0737ZM56.9849 15.0691L56.5745 15.981L56.5753 15.9814L56.9849 15.0691ZM47.9079 17.0701L48.615 17.7772L48.6242 17.7681L48.6331 17.7587L47.9079 17.0701ZM44.7469 20.2311L44.0398 19.524L43.3337 20.2302L44.0389 20.9373L44.7469 20.2311ZM51.4532 26.9555L50.7451 27.6617L50.7521 27.6686L51.4532 26.9555ZM53.0663 29.3697L53.9975 29.0053L53.9967 29.0031L53.0663 29.3697ZM47.0633 38.6461L47.0646 37.6461H47.0633V38.6461ZM41.9521 36.7357L42.6592 36.0286L42.6579 36.0273L41.9521 36.7357ZM35.0174 29.8265L35.7232 29.1181L35.0162 28.4137L34.3104 29.1193L35.0174 29.8265ZM19.3647 45.4756L18.6577 44.7684L18.6553 44.7709L19.3647 45.4756ZM18.2663 48.14H19.2663H18.2663ZM19.0892 50.2534L19.8025 49.5525L19.7994 49.5494L19.0892 50.2534ZM22.6489 50.7681L23.0418 51.6877L23.0455 51.6861L22.6489 50.7681ZM23.8561 49.9851L23.149 49.278L23.8561 49.9851ZM35.3437 38.4975L36.0508 37.7904L35.3437 37.0833L34.6366 37.7904L35.3437 38.4975ZM37.9102 41.064L38.618 41.7704L39.3237 41.0633L38.6173 40.3569L37.9102 41.064ZM26.4407 52.5552L27.1455 53.2647L27.1485 53.2617L26.4407 52.5552ZM25.6142 53.8022L24.6837 53.4358L24.6815 53.4417L25.6142 53.8022ZM28.2677 58.145L28.2647 59.145H28.2677V58.145ZM30.9321 57.043L31.6364 57.7529L31.6385 57.7507L30.9321 57.043ZM43.2571 44.7397L43.9637 44.0321L43.2572 43.3267L42.5506 44.032L43.2571 44.7397ZM45.8236 47.3026L46.5312 48.0092L47.2378 47.3016L46.5302 46.595L45.8236 47.3026ZM33.5167 59.6276L34.2073 60.3508L34.2159 60.3426L34.2243 60.3342L33.5167 59.6276ZM32.7264 60.8347L33.6493 61.22L33.6508 61.2162L32.7264 60.8347ZM33.2738 64.3582L33.9839 63.6541L33.9794 63.6496L33.2738 64.3582ZM38.0044 64.119L37.2978 63.4113L37.2927 63.4166L38.0044 64.119ZM50.3294 51.8121L51.0365 51.105L50.33 50.3984L49.6228 51.1045L50.3294 51.8121ZM52.8959 54.3786L53.603 55.0857L54.3102 54.3786L53.603 53.6715L52.8959 54.3786ZM40.5709 66.7036L39.8638 65.9965L39.8615 65.9988L40.5709 66.7036ZM37.6129 73.8739L36.8957 74.5707L36.8964 74.5714L37.6129 73.8739ZM35.8657 68.8206L36.8624 68.9012L36.9508 67.8078L35.8539 67.8207L35.8657 68.8206ZM30.7363 66.9827L30.0605 67.7198L30.0612 67.7205L30.7363 66.9827ZM28.7897 61.7482L29.7892 61.7785L29.8207 60.7371L28.7789 60.7483L28.7897 61.7482ZM21.7354 54.6722L22.734 54.7266L22.792 53.6595L21.7234 53.6723L21.7354 54.6722ZM16.6749 52.9685L17.3244 52.2081L17.3235 52.2073L16.6749 52.9685ZM15.1814 45.3487L16.114 45.7097L16.1143 45.7089L15.1814 45.3487ZM16.7764 42.891L16.0697 42.1835L16.0681 42.1851L16.7764 42.891ZM35.0174 24.6717L35.7245 23.9646L35.0179 23.258L34.3108 23.9642L35.0174 24.6717ZM44.3772 34.0315L45.1004 33.3409L45.0924 33.3325L45.0843 33.3244L44.3772 34.0315ZM47.0416 35.1335V34.1335L47.0373 34.1335L47.0416 35.1335ZM49.9923 32.2045L50.9923 32.2073V32.2045H49.9923ZM49.6806 30.682L48.772 31.0998L48.7729 31.1017L49.6806 30.682ZM48.8903 29.5437L48.1832 30.2509L48.19 30.2577L48.197 30.2644L48.8903 29.5437ZM36.4203 17.0737L35.7085 17.7761L35.7132 17.7809L36.4203 17.0737ZM27.3324 15.0691L26.9167 14.1596L26.9158 14.1601L27.3324 15.0691ZM24.5738 17.0737L23.8667 16.3666L23.866 16.3673L24.5738 17.0737ZM13.5393 28.13L14.2442 28.8393L14.2471 28.8364L13.5393 28.13ZM11.6543 30.9031L12.5676 31.3104L12.568 31.3096L11.6543 30.9031ZM10.8931 34.2272L11.8926 34.2567L11.8927 34.2526L10.8931 34.2272ZM11.9008 38.7186L12.6079 39.4257L13.1392 38.8944L12.7768 38.2362L11.9008 38.7186ZM9.15306 41.4664L8.30578 41.9975L8.97252 43.0611L9.86017 42.1735L9.15306 41.4664ZM7.24994 34.2309L8.24974 34.251L8.24978 34.2485L7.24994 34.2309ZM10.9511 25.4729L10.244 24.7658L10.2432 24.7665L10.9511 25.4729ZM21.9167 14.5072L21.213 13.7967L21.2096 13.8001L21.9167 14.5072ZM25.9296 11.716L25.5347 10.7973L25.5334 10.7978L25.9296 11.716ZM35.0464 11.7196L34.6439 12.635L34.6458 12.6359L35.0464 11.7196ZM39.0049 14.5072L39.7125 13.8005L39.712 13.8001L39.0049 14.5072ZM42.1587 17.6646L41.4512 18.3713L42.1579 19.0788L42.8654 18.3721L42.1587 17.6646ZM45.3197 14.5072L44.616 13.7967L44.613 13.7997L45.3197 14.5072ZM49.2963 11.716L48.8957 10.7998L48.8943 10.8004L49.2963 11.716ZM58.4168 11.7196L58.0206 12.6378L58.0214 12.6381L58.4168 11.7196ZM62.4043 14.5072L61.6965 15.2137L61.6973 15.2144L62.4043 14.5072ZM75.9111 28.0104L76.6182 27.3033L76.6181 27.3032L75.9111 28.0104ZM79.8188 37.0149L78.8188 37.0134V37.0149H79.8188ZM75.9111 45.5155L76.6179 46.2229L76.6189 46.2219L75.9111 45.5155ZM47.6469 73.7542L46.9401 73.0468L46.9387 73.0483L47.6469 73.7542ZM45.1892 75.4L44.8283 74.4674L44.8275 74.4677L45.1892 75.4ZM42.4197 73.2897C43.0463 73.2897 43.6654 73.1485 44.2698 72.8904L43.4841 71.0511C43.0928 71.2183 42.7404 71.2897 42.4197 71.2897V73.2897ZM44.2698 72.8904C44.857 72.6395 45.3747 72.3149 45.7912 71.8985L44.377 70.4843C44.1796 70.6817 43.8926 70.8766 43.4841 71.0511L44.2698 72.8904ZM45.7912 71.8984L74.0517 43.6343L72.6374 42.2202L44.3769 70.4843L45.7912 71.8984ZM74.0517 43.6344C75.0206 42.6654 75.7901 41.6546 76.3409 40.5985L74.5677 39.6735C74.1277 40.5169 73.4907 41.3669 72.6375 42.2201L74.0517 43.6344ZM76.3428 40.5949C76.9134 39.49 77.1938 38.2849 77.1938 36.9967H75.1938C75.1938 37.9851 74.9812 38.8728 74.5658 39.6771L76.3428 40.5949ZM77.1938 36.9967C77.1938 35.6964 76.9147 34.4368 76.3648 33.2263L74.5439 34.0536C74.9799 35.0133 75.1938 35.9916 75.1938 36.9967H77.1938ZM76.3643 33.2254C75.8146 32.0188 75.0377 30.928 74.045 29.9538L72.6441 31.3812C73.4736 32.1953 74.1032 33.0862 74.5443 34.0546L76.3643 33.2254ZM74.0517 29.9604L60.4579 16.3666L59.0437 17.7809L72.6375 31.3746L74.0517 29.9604ZM60.4636 16.3723C59.4994 15.3925 58.478 14.6433 57.3945 14.1569L56.5753 15.9814C57.3866 16.3456 58.2091 16.9328 59.0381 17.7752L60.4636 16.3723ZM57.3954 14.1572C56.3076 13.6676 55.1167 13.4311 53.8384 13.4311V15.4311C54.8657 15.4311 55.7724 15.62 56.5745 15.981L57.3954 14.1572ZM53.8384 13.4311C52.5723 13.4311 51.378 13.6684 50.2672 14.1523L51.066 15.9859C51.9078 15.6192 52.828 15.4311 53.8384 15.4311V13.4311ZM50.2672 14.1523C49.1483 14.6397 48.1217 15.3927 47.1827 16.3816L48.6331 17.7587C49.4197 16.9302 50.2321 16.3492 51.066 15.9859L50.2672 14.1523ZM47.2008 16.363L44.0398 19.524L45.454 20.9382L48.615 17.7772L47.2008 16.363ZM44.0389 20.9373L50.7451 27.6616L52.1612 26.2493L45.455 19.525L44.0389 20.9373ZM50.7521 27.6686C51.3768 28.2827 51.8342 28.9708 52.136 29.7364L53.9967 29.0031C53.5879 27.9659 52.97 27.0444 52.1543 26.2424L50.7521 27.6686ZM52.1351 29.7342C52.4445 30.5246 52.5956 31.3159 52.5956 32.1139H54.5956C54.5956 31.0558 54.3938 30.0177 53.9975 29.0053L52.1351 29.7342ZM52.5956 32.1139C52.5956 33.7597 52.0674 35.059 51.0361 36.0903L52.4503 37.5045C53.8888 36.0659 54.5956 34.2429 54.5956 32.1139H52.5956ZM51.0361 36.0903C50.0049 37.1215 48.7072 37.6482 47.0646 37.6461L47.062 39.6461C49.1894 39.6488 51.0117 38.9431 52.4503 37.5045L51.0361 36.0903ZM47.0633 37.6461C46.236 37.6461 45.4313 37.5207 44.6454 37.2695L44.0364 39.1745C45.0196 39.4888 46.0298 39.6461 47.0633 39.6461V37.6461ZM44.6454 37.2695C43.9245 37.039 43.2636 36.633 42.6592 36.0286L41.245 37.4429C42.0567 38.2546 42.9884 38.8395 44.0364 39.1745L44.6454 37.2695ZM42.6579 36.0273L35.7232 29.1181L34.3116 30.5349L41.2463 37.4441L42.6579 36.0273ZM34.3104 29.1193L18.6577 44.7684L20.0717 46.1828L35.7245 30.5337L34.3104 29.1193ZM18.6553 44.7709C18.1976 45.2315 17.8465 45.7626 17.6114 46.3598L19.4723 47.0926C19.6044 46.7571 19.8019 46.4544 20.0741 46.1804L18.6553 44.7709ZM17.6114 46.3598C17.3842 46.9367 17.2663 47.5319 17.2663 48.14H19.2663C19.2663 47.7959 19.3321 47.4486 19.4723 47.0926L17.6114 46.3598ZM17.2663 48.14C17.2663 49.2309 17.6257 50.1975 18.379 50.9574L19.7994 49.5494C19.4555 49.2024 19.2663 48.7601 19.2663 48.14H17.2663ZM18.3759 50.9542C19.1294 51.7211 20.0969 52.0871 21.1917 52.0871V50.0871C20.5755 50.0871 20.1413 49.8973 19.8025 49.5525L18.3759 50.9542ZM21.1917 52.0871C21.8183 52.0871 22.4374 51.9459 23.0418 51.6877L22.2561 49.8485C21.8648 50.0157 21.5124 50.0871 21.1917 50.0871V52.0871ZM23.0455 51.6861C23.6314 51.433 24.1478 51.1076 24.5632 50.6922L23.149 49.278C22.9505 49.4765 22.6621 49.6731 22.2523 49.8501L23.0455 51.6861ZM24.5632 50.6922L36.0508 39.2046L34.6366 37.7904L23.149 49.278L24.5632 50.6922ZM34.6366 39.2046L37.2031 41.7711L38.6173 40.3569L36.0508 37.7904L34.6366 39.2046ZM37.2024 40.3576L25.7329 51.8488L27.1485 53.2617L38.618 41.7704L37.2024 40.3576ZM25.7359 51.8458C25.2737 52.3049 24.9198 52.8364 24.6837 53.4358L26.5446 54.1686C26.6759 53.8352 26.873 53.5354 27.1455 53.2647L25.7359 51.8458ZM24.6815 53.4417C24.4585 54.0184 24.3423 54.6116 24.3423 55.216H26.3423C26.3423 54.873 26.4074 54.5238 26.5469 54.1628L24.6815 53.4417ZM24.3423 55.216C24.3423 56.2897 24.732 57.2343 25.4907 57.993L26.9049 56.5788C26.5229 56.1968 26.3423 55.7615 26.3423 55.216H24.3423ZM25.4907 57.993C26.2486 58.7509 27.192 59.1418 28.2647 59.145L28.2707 57.145C27.7242 57.1434 27.2877 56.9615 26.9049 56.5788L25.4907 57.993ZM28.2677 59.145C28.8961 59.145 29.5165 59.0017 30.1215 58.7404L29.3283 56.9044C28.9377 57.0732 28.5866 57.145 28.2677 57.145V59.145ZM30.1215 58.7404C30.706 58.4879 31.2214 58.1646 31.6364 57.7529L30.2278 56.3331C30.0289 56.5304 29.7396 56.7267 29.3283 56.9044L30.1215 58.7404ZM31.6385 57.7507L43.9635 45.4475L42.5506 44.032L30.2256 56.3353L31.6385 57.7507ZM42.5505 45.4473L45.117 48.0102L46.5302 46.595L43.9637 44.0321L42.5505 45.4473ZM45.1159 46.596L32.8091 58.921L34.2243 60.3342L46.5312 48.0092L45.1159 46.596ZM32.8261 58.9044C32.3847 59.3258 32.0496 59.8532 31.802 60.4533L33.6508 61.2162C33.8141 60.8206 34.0058 60.5432 34.2073 60.3508L32.8261 58.9044ZM31.8036 60.4495C31.5519 61.0525 31.4147 61.6689 31.4147 62.292H33.4147C33.4147 61.9677 33.4853 61.6126 33.6493 61.22L31.8036 60.4495ZM31.4147 62.292C31.4147 63.3655 31.8073 64.3091 32.5682 65.0668L33.9794 63.6496C33.5948 63.2667 33.4147 62.8328 33.4147 62.292H31.4147ZM32.5637 65.0624C33.3217 65.8268 34.2673 66.221 35.3437 66.221V64.221C34.8009 64.221 34.3666 64.04 33.9839 63.6541L32.5637 65.0624ZM35.3437 66.221C35.9499 66.221 36.5445 66.1029 37.1222 65.8766L36.3927 64.0144C36.0327 64.1554 35.6848 64.221 35.3437 64.221V66.221ZM37.1222 65.8766C37.7247 65.6405 38.2579 65.2859 38.7162 64.8214L37.2927 63.4166C37.026 63.6868 36.7278 63.8831 36.3927 64.0144L37.1222 65.8766ZM38.711 64.8266L51.036 52.5197L49.6228 51.1045L37.2979 63.4114L38.711 64.8266ZM49.6223 52.5192L52.1888 55.0857L53.603 53.6715L51.0365 51.105L49.6223 52.5192ZM52.1888 53.6715L39.8638 65.9965L41.278 67.4107L53.603 55.0857L52.1888 53.6715ZM39.8615 65.9988C39.3872 66.4763 39.0365 67.0453 38.8062 67.6907L40.6899 68.3628C40.827 67.9787 41.0248 67.6656 41.2804 67.4084L39.8615 65.9988ZM38.8062 67.6907C38.5945 68.2841 38.4726 68.8696 38.4726 69.4369H40.4726C40.4726 69.1534 40.5343 68.7989 40.6899 68.3628L38.8062 67.6907ZM38.4726 69.4369C38.4726 70.5579 38.8814 71.5314 39.7182 72.2606L41.0322 70.7528C40.6655 70.4333 40.4726 70.0268 40.4726 69.4369H38.4726ZM39.7182 72.2606C40.4924 72.9353 41.4044 73.2934 42.4197 73.2934V71.2934C41.9125 71.2934 41.4615 71.127 41.0322 70.7528L39.7182 72.2606ZM42.3979 74.9184C40.8109 74.9184 39.4724 74.3505 38.3295 73.1763L36.8964 74.5714C38.4069 76.1232 40.2585 76.9184 42.3979 76.9184V74.9184ZM38.3301 73.177C37.2166 72.031 36.7223 70.6355 36.8624 68.9012L34.8689 68.7401C34.6853 71.0126 35.3557 72.9859 36.8957 74.5707L38.3301 73.177ZM35.8539 67.8207C34.0234 67.8422 32.5682 67.3036 31.4114 66.245L30.0612 67.7205C31.6352 69.1608 33.5996 69.8474 35.8775 69.8206L35.8539 67.8207ZM31.4121 66.2456C30.3056 65.2312 29.7283 63.792 29.7892 61.7785L27.7901 61.718C27.7157 64.1802 28.4362 66.2307 30.0605 67.7198L31.4121 66.2456ZM28.7789 60.7483C26.7483 60.7702 25.2677 60.1953 24.2082 59.1238L22.7861 60.5301C24.3076 62.0687 26.3554 62.7746 28.8005 62.7482L28.7789 60.7483ZM24.2082 59.1238C23.1491 58.0528 22.6305 56.6268 22.734 54.7266L20.7369 54.6179C20.6083 56.9807 21.2643 58.9912 22.7861 60.5301L24.2082 59.1238ZM21.7234 53.6723C19.9169 53.694 18.4745 53.1904 17.3244 52.2081L16.0255 53.7289C17.5917 55.0666 19.523 55.6988 21.7474 55.6722L21.7234 53.6723ZM17.3235 52.2073C16.2273 51.2733 15.6413 49.9625 15.6413 48.14H13.6413C13.6413 50.4451 14.4111 52.3534 16.0264 53.7297L17.3235 52.2073ZM15.6413 48.14C15.6413 47.3417 15.7953 46.5334 16.114 45.7097L14.2488 44.9878C13.8475 46.025 13.6413 47.0775 13.6413 48.14H15.6413ZM16.1143 45.7089C16.4246 44.9051 16.8799 44.2038 17.4848 43.5969L16.0681 42.1851C15.2664 42.9895 14.6585 43.9267 14.2485 44.9886L16.1143 45.7089ZM17.4831 43.5985L35.7241 25.3793L34.3108 23.9642L16.0698 42.1835L17.4831 43.5985ZM34.3103 25.3789L43.6701 34.7386L45.0843 33.3244L35.7245 23.9646L34.3103 25.3789ZM43.654 34.7221C44.0578 35.145 44.5447 35.4796 45.0976 35.7339L45.9333 33.9168C45.5824 33.7555 45.3104 33.5608 45.1004 33.3409L43.654 34.7221ZM45.0976 35.7339C45.6989 36.0104 46.3546 36.1364 47.0458 36.1335L47.0373 34.1335C46.5975 34.1354 46.2358 34.056 45.9333 33.9168L45.0976 35.7339ZM47.0416 36.1335C48.0762 36.1335 48.999 35.7632 49.7702 35.0609L48.4237 33.5821C48.0059 33.9625 47.5584 34.1335 47.0416 34.1335V36.1335ZM49.7702 35.0609C50.5904 34.314 50.9892 33.332 50.9923 32.2073L48.9923 32.2017C48.9906 32.817 48.7924 33.2463 48.4237 33.5821L49.7702 35.0609ZM50.9923 32.2045C50.9923 31.5146 50.865 30.8608 50.5882 30.2623L48.7729 31.1017C48.9118 31.4022 48.9923 31.7634 48.9923 32.2045H50.9923ZM50.5891 30.2642C50.3355 29.7127 50.0031 29.2267 49.5836 28.8231L48.197 30.2644C48.4155 30.4746 48.61 30.7474 48.772 31.0998L50.5891 30.2642ZM49.5974 28.8366L37.1274 16.3666L35.7132 17.7809L48.1832 30.2509L49.5974 28.8366ZM37.1321 16.3714C36.1624 15.3886 35.1265 14.6391 34.0201 14.1534L33.2163 15.9848C34.048 16.3498 34.8802 16.9367 35.7085 17.7761L37.1321 16.3714ZM34.0201 14.1534C32.9134 13.6677 31.7141 13.4311 30.4354 13.4311V15.4311C31.4623 15.4311 32.3848 15.6199 33.2163 15.9848L34.0201 14.1534ZM30.4354 13.4311C29.17 13.4311 27.9916 13.6683 26.9167 14.1596L27.7482 15.9786C28.5341 15.6193 29.4244 15.4311 30.4354 15.4311V13.4311ZM26.9158 14.1601C25.8556 14.646 24.8407 15.3926 23.8667 16.3666L25.2809 17.7809C26.1291 16.9327 26.9533 16.3429 27.7491 15.9782L26.9158 14.1601ZM23.866 16.3673L12.8315 27.4236L14.2471 28.8364L25.2816 17.7802L23.866 16.3673ZM12.8344 27.4207C11.9623 28.2874 11.2657 29.3165 10.7407 30.4966L12.568 31.3096C12.9999 30.3389 13.56 29.5193 14.2442 28.8393L12.8344 27.4207ZM10.741 30.4958C10.2103 31.6858 9.92582 32.9234 9.89338 34.2019L11.8927 34.2526C11.9183 33.2449 12.1413 32.2664 12.5676 31.3104L10.741 30.4958ZM9.8935 34.1978C9.86708 35.0934 9.94353 35.9617 10.1262 36.8001L12.0804 36.3742C11.9344 35.7045 11.8707 34.9996 11.8926 34.2567L9.8935 34.1978ZM10.1262 36.8001C10.3108 37.647 10.6104 38.4484 11.0249 39.201L12.7768 38.2362C12.4566 37.6548 12.2245 37.0352 12.0804 36.3742L10.1262 36.8001ZM11.1937 38.0115L8.44596 40.7593L9.86017 42.1735L12.6079 39.4257L11.1937 38.0115ZM10.0003 40.9352C9.45065 40.0583 9.01102 39.0327 8.69 37.8481L6.75962 38.3712C7.12494 39.7192 7.63748 40.9314 8.30578 41.9975L10.0003 40.9352ZM8.69 37.8481C8.37185 36.6741 8.22505 35.476 8.24973 34.251L6.25014 34.2107C6.22165 35.6247 6.39144 37.0125 6.75962 38.3712L8.69 37.8481ZM8.24978 34.2485C8.27657 32.7258 8.58061 31.2741 9.16189 29.8866L7.31723 29.1138C6.63701 30.7375 6.2813 32.4396 6.25009 34.2133L8.24978 34.2485ZM9.16189 29.8866C9.74151 28.5031 10.5716 27.2688 11.6589 26.1793L10.2432 24.7665C8.97669 26.0356 7.99912 27.4862 7.31723 29.1138L9.16189 29.8866ZM11.6582 26.18L22.6238 15.2144L21.2096 13.8001L10.244 24.7658L11.6582 26.18ZM22.6204 15.2177C23.8094 14.0401 25.0455 13.1866 26.3258 12.6342L25.5334 10.7978C23.9909 11.4634 22.5518 12.4707 21.213 13.7968L22.6204 15.2177ZM26.3244 12.6347C27.6027 12.0854 28.9934 11.8061 30.5079 11.8061V9.80612C28.7406 9.80612 27.0791 10.1335 25.5347 10.7973L26.3244 12.6347ZM30.5079 11.8061C32.0221 11.8061 33.3964 12.0864 34.6439 12.635L35.449 10.8042C33.927 10.1348 32.2756 9.80612 30.5079 9.80612V11.8061ZM34.6458 12.6359C35.901 13.1848 37.1195 14.036 38.2978 15.2144L39.712 13.8001C38.3867 12.4748 36.9662 11.4677 35.4471 10.8034L34.6458 12.6359ZM38.2974 15.2139L41.4512 18.3713L42.8662 16.9579L39.7124 13.8005L38.2974 15.2139ZM42.8654 18.3721L46.0264 15.2148L44.613 13.7997L41.452 16.9571L42.8654 18.3721ZM46.0234 15.2177C47.2151 14.0375 48.4412 13.1836 49.6983 12.6316L48.8943 10.8004C47.3771 11.4664 45.9521 12.4734 44.616 13.7968L46.0234 15.2177ZM49.697 12.6322C50.9475 12.0854 52.3237 11.8061 53.8384 11.8061V9.80612C52.0713 9.80612 50.4195 10.1334 48.8957 10.7998L49.697 12.6322ZM53.8384 11.8061C55.3524 11.8061 56.7427 12.0864 58.0206 12.6378L58.813 10.8015C57.2683 10.1349 55.6063 9.80612 53.8384 9.80612V11.8061ZM58.0214 12.6381C59.2972 13.1874 60.5232 14.0381 61.6965 15.2137L63.1121 13.8008C61.7865 12.4727 60.3542 11.465 58.8123 10.8011L58.0214 12.6381ZM61.6973 15.2144L75.2041 28.7176L76.6181 27.3032L63.1113 13.8L61.6973 15.2144ZM75.204 28.7175C76.3686 29.8821 77.2602 31.1818 77.8873 32.6189L79.7204 31.8191C78.9893 30.1435 77.9523 28.6374 76.6182 27.3033L75.204 28.7175ZM77.8873 32.6189C78.5131 34.0532 78.821 35.5154 78.8188 37.0134L80.8188 37.0163C80.8214 35.2325 80.4527 33.4975 79.7204 31.8191L77.8873 32.6189ZM78.8188 37.0149C78.8188 38.5163 78.5108 39.8789 77.9053 41.118L79.7023 41.996C80.4501 40.4656 80.8188 38.8001 80.8188 37.0149H78.8188ZM77.9053 41.118C77.2837 42.3901 76.3887 43.6213 75.2033 44.8091L76.6189 46.2219C77.9371 44.9011 78.9706 43.4934 79.7023 41.996L77.9053 41.118ZM75.2043 44.8081L46.9401 73.0468L48.3537 74.4617L76.6179 46.2229L75.2043 44.8081ZM46.9387 73.0483C46.274 73.7151 45.5701 74.1804 44.8283 74.4674L45.55 76.3326C46.5821 75.9333 47.5167 75.3014 48.3552 74.4602L46.9387 73.0483ZM44.8275 74.4677C44.0617 74.7648 43.2542 74.9147 42.3979 74.9147V76.9147C43.4943 76.9147 44.5477 76.7215 45.5509 76.3323L44.8275 74.4677Z" fill="#3EA2B8" mask="url(#path-1-outside-1_533_57)"/>
</svg>
