<svg width="63" height="63" viewBox="0 0 63 63" fill="none" xmlns="http://www.w3.org/2000/svg">
<g clip-path="url(#clip0_533_20)">
<path d="M50.9375 21.1838C50.9375 22.4243 51.9157 23.4025 53.1562 23.4025C54.3968 23.4025 55.375 22.4243 55.375 21.1838V5.90625C55.375 2.50005 52.6249 -0.25 49.2188 -0.25H13.7812C10.3751 -0.25 7.625 2.50005 7.625 5.90625V13.7812C7.625 15.0218 8.60318 16 9.84375 16C11.0843 16 12.0625 15.0218 12.0625 13.7812V5.90625C12.0625 4.94182 12.8168 4.1875 13.7812 4.1875H49.2188C50.1832 4.1875 50.9375 4.94182 50.9375 5.90625V21.1838Z" fill="#3EA2B8" stroke="#3EA2B8" stroke-width="0.5"/>
<path d="M5.90625 63.25H57.0938C60.4999 63.25 63.25 60.4999 63.25 57.0938V25.5938C63.25 22.1876 60.4999 19.4375 57.0938 19.4375H31.625L26.3871 12.4537C25.9803 11.869 25.3097 11.5625 24.6094 11.5625H5.90625C2.50005 11.5625 -0.25 14.3126 -0.25 17.7188V57.0938C-0.25 60.4999 2.50005 63.25 5.90625 63.25ZM4.1875 17.7188C4.1875 16.7543 4.94182 16 5.90625 16H23.5L28.7391 22.9855C28.9415 23.2667 29.2091 23.4945 29.519 23.6495C29.8289 23.8044 30.1718 23.8818 30.5182 23.875H57.0938C58.0582 23.875 58.8125 24.6293 58.8125 25.5938V57.0938C58.8125 58.0582 58.0582 58.8125 57.0938 58.8125H5.90625C4.94182 58.8125 4.1875 58.0582 4.1875 57.0938V17.7188Z" fill="#3EA2B8" stroke="#3EA2B8" stroke-width="0.5"/>
<path d="M13.7812 51.4375H21.6562C22.8968 51.4375 23.875 50.4593 23.875 49.2188C23.875 47.9782 22.8968 47 21.6562 47H13.7812C12.5407 47 11.5625 47.9782 11.5625 49.2188C11.5625 50.4593 12.5407 51.4375 13.7812 51.4375Z" fill="#3EA2B8" stroke="#3EA2B8" stroke-width="0.5"/>
</g>
<defs>
<clipPath id="clip0_533_20">
<rect width="63" height="63" fill="white"/>
</clipPath>
</defs>
</svg>
