<svg width="333" height="68" viewBox="0 0 333 68" fill="none" xmlns="http://www.w3.org/2000/svg">
<rect y="12" width="260" height="56" rx="28" fill="#CCCCCC"/>
<rect y="1" width="260" height="61" rx="30.5" fill="#F56E00"/>
<rect width="260" height="56" rx="28" fill="#FEB274"/>
<path d="M38.5 48C50.3741 48 60 39.0457 60 28C60 16.9543 50.3741 8 38.5 8C26.6259 8 17 16.9543 17 28C17 39.0457 26.6259 48 38.5 48Z" fill="white"/>
<path d="M92.64 19.24H95.32V37.76H92.64V19.24ZM94.62 26.32H97.88V28.5H94.62V26.32ZM87.78 21.16H90.38C90.38 26.72 88.26 31.48 82.1 34.58L80.62 32.56C85.48 30.04 87.78 26.64 87.78 21.62V21.16ZM81.64 21.16H89.14V23.3H81.64V21.16ZM111.918 19.26H114.598V29.22H111.918V19.26ZM102.278 30.02H104.898V31.74H111.958V30.02H114.598V37.58H102.278V30.02ZM104.898 33.78V35.46H111.958V33.78H104.898ZM104.518 20.02C107.398 20.02 109.538 21.84 109.538 24.4C109.538 26.96 107.398 28.78 104.518 28.78C101.638 28.78 99.4784 26.96 99.4784 24.4C99.4784 21.84 101.638 20.02 104.518 20.02ZM104.518 22.22C103.098 22.22 102.078 23.04 102.078 24.4C102.078 25.78 103.098 26.58 104.518 26.58C105.918 26.58 106.938 25.78 106.938 24.4C106.938 23.04 105.918 22.22 104.518 22.22ZM134.614 19.28H137.294V32.78H134.614V19.28ZM124.954 35.34H137.754V37.46H124.954V35.34ZM124.954 31.48H127.614V36.44H124.954V31.48ZM126.234 20.28H128.434V22.08C128.434 25.7 126.774 29.04 123.174 30.3L121.834 28.18C124.934 27.12 126.234 24.54 126.234 22.08V20.28ZM126.774 20.28H128.954V22.08C128.954 24.5 130.214 26.88 133.254 27.86L131.894 29.98C128.394 28.8 126.774 25.66 126.774 22.08V20.28ZM144.452 22.5H146.592V23.18C146.592 26.4 144.952 29.3 141.412 30.32L140.172 28.24C143.152 27.4 144.452 25.28 144.452 23.18V22.5ZM144.952 22.5H147.112V23.18C147.112 25.08 148.432 27.02 151.412 27.8L150.212 29.86C146.652 28.92 144.952 26.22 144.952 23.18V22.5ZM140.812 21.18H150.752V23.26H140.812V21.18ZM144.452 19.2H147.112V22H144.452V19.2ZM150.232 24.2H153.772V26.34H150.232V24.2ZM153.132 19.26H155.792V30.44H153.132V19.26ZM149.512 30.76C153.432 30.76 155.852 32.04 155.852 34.26C155.852 36.48 153.432 37.78 149.512 37.78C145.592 37.78 143.172 36.48 143.172 34.26C143.172 32.04 145.592 30.76 149.512 30.76ZM149.512 32.78C147.092 32.78 145.832 33.26 145.832 34.26C145.832 35.26 147.092 35.76 149.512 35.76C151.952 35.76 153.212 35.26 153.212 34.26C153.212 33.26 151.952 32.78 149.512 32.78ZM168.031 25.04H172.911V27.18H168.031V25.04ZM162.991 20.68H165.151V23.36C165.151 28.02 163.571 32.32 160.091 34.06L158.431 31.92C161.591 30.46 162.991 26.88 162.991 23.36V20.68ZM163.551 20.68H165.671V23.36C165.671 26.88 167.011 30.26 170.071 31.62L168.491 33.74C165.011 32.06 163.551 27.98 163.551 23.36V20.68ZM171.591 19.24H174.231V37.82H171.591V19.24ZM185.506 21.16H187.686V22.32C187.686 25.82 186.026 28.96 182.486 30.1L181.106 28.04C184.206 27.04 185.506 24.64 185.506 22.32V21.16ZM186.046 21.16H188.206V22.32C188.206 24.5 189.466 26.76 192.466 27.72L191.106 29.78C187.646 28.66 186.046 25.64 186.046 22.32V21.16ZM181.826 20.34H191.826V22.46H181.826V20.34ZM193.306 19.26H195.966V30.42H193.306V19.26ZM195.226 23.74H198.426V25.92H195.226V23.74ZM183.606 31.22H195.966V37.78H193.306V33.36H183.606V31.22ZM204.084 20.22H206.304V21.88C206.304 25.6 204.644 28.86 201.004 30.08L199.624 27.94C202.784 26.92 204.084 24.42 204.084 21.88V20.22ZM204.644 20.22H206.784V21.76C206.784 24.22 207.984 26.5 210.924 27.44L209.544 29.52C206.124 28.34 204.644 25.36 204.644 21.76V20.22ZM212.624 19.26H215.284V30.1H212.624V19.26ZM209.004 30.58C212.924 30.58 215.344 31.92 215.344 34.18C215.344 36.46 212.924 37.78 209.004 37.78C205.084 37.78 202.664 36.46 202.664 34.18C202.664 31.92 205.084 30.58 209.004 30.58ZM209.004 32.64C206.604 32.64 205.324 33.14 205.324 34.18C205.324 35.22 206.604 35.74 209.004 35.74C211.424 35.74 212.704 35.22 212.704 34.18C212.704 33.14 211.424 32.64 209.004 32.64ZM209.244 22.62H213.004V24.78H209.244V22.62Z" fill="white"/>
<path fill-rule="evenodd" clip-rule="evenodd" d="M27.3948 20.0157C27.3948 18.8957 28.3381 18 29.4867 18H50.9081C52.0518 18 53 18.8911 53 20.0157V32.2909C53 33.4109 52.0567 34.3066 50.9081 34.3066H33.834V36.1473C33.834 37.1795 32.9643 38 31.912 38H25.922C24.8698 38 24 37.1795 24 36.1473V30.4026C24 29.3704 24.8698 28.5499 25.922 28.5499L27.3948 28.5499V20.0157ZM25.922 29.5908C25.4408 29.5908 25.0656 29.9642 25.0656 30.4026V36.1473C25.0656 36.5857 25.4408 36.9591 25.922 36.9591H31.912C32.3932 36.9591 32.7684 36.5857 32.7684 36.1473V30.4027C32.7684 29.9632 32.3943 29.5908 31.912 29.5908L25.922 29.5908ZM33.834 33.2657V30.4027C33.834 29.3705 32.9643 28.5499 31.912 28.5499L28.4604 28.5499V20.0157C28.4604 19.487 28.9096 19.0409 29.4867 19.0409H50.9081C51.4833 19.0409 51.9344 19.4853 51.9344 20.0157V32.2909C51.9344 32.8195 51.4852 33.2657 50.9081 33.2657H33.834ZM30.6598 22.3189C30.391 22.3189 30.1898 22.5254 30.1898 22.7602V23.2107C30.1898 23.4454 30.391 23.6519 30.6598 23.6519H38.0823C38.3511 23.6519 38.5523 23.4454 38.5523 23.2107V22.7602C38.5523 22.5254 38.3511 22.3189 38.0823 22.3189H30.6598ZM29.1242 22.7602C29.1242 21.9327 29.821 21.2781 30.6598 21.2781H38.0823C38.9211 21.2781 39.6179 21.9327 39.6179 22.7602V23.2107C39.6179 24.0382 38.9211 24.6928 38.0823 24.6928H30.6598C29.821 24.6928 29.1242 24.0382 29.1242 23.2107V22.7602ZM45.4879 22.3189C43.2651 22.3189 41.4799 24.0446 41.4799 26.1533C41.4799 26.8826 41.6935 27.5661 42.0649 28.1482C42.5137 27.6427 43.1532 27.2586 43.888 27.0305C43.6153 26.6704 43.456 26.2192 43.456 25.7411C43.456 24.6209 44.3308 23.6487 45.4879 23.6487C46.6451 23.6487 47.5199 24.6209 47.5199 25.7411C47.5199 26.2194 47.3604 26.6708 47.0875 27.031C47.8224 27.2595 48.462 27.644 48.9109 28.1485C49.2823 27.5663 49.4959 26.8827 49.4959 26.1533C49.4959 24.0446 47.7107 22.3189 45.4879 22.3189ZM49.5026 29.1351C50.1659 28.3119 50.5615 27.2784 50.5615 26.1533C50.5615 23.4518 48.2807 21.2781 45.4879 21.2781C42.6951 21.2781 40.4143 23.4518 40.4143 26.1533C40.4143 27.2788 40.8102 28.3126 41.4742 29.1359L41.4711 29.1425L41.5467 29.2237C42.4452 30.2865 43.7993 30.9775 45.3179 31.0258C45.3745 31.0276 45.4313 31.0285 45.4883 31.0285C45.532 31.0285 45.5755 31.0279 45.6189 31.0269C47.1506 30.9896 48.5179 30.2986 49.424 29.2301L49.5059 29.1422L49.5026 29.1351ZM48.2104 28.9602C47.7388 28.3342 46.7426 27.8335 45.4879 27.8335C44.2321 27.8335 43.2367 28.3326 42.7658 28.9598C43.4816 29.5962 44.4353 29.9876 45.4883 29.9876C46.5411 29.9876 47.4946 29.5964 48.2104 28.9602ZM45.4879 26.7926C45.9867 26.7926 46.4543 26.3572 46.4543 25.7411C46.4543 25.125 45.9867 24.6896 45.4879 24.6896C44.9892 24.6896 44.5216 25.125 44.5216 25.7411C44.5216 26.3572 44.9892 26.7926 45.4879 26.7926ZM29.5137 25.9168C29.5137 25.6294 29.7522 25.3964 30.0465 25.3964H38.3552C38.6494 25.3964 38.888 25.6294 38.888 25.9168C38.888 26.2042 38.6494 26.4372 38.3552 26.4372H30.0465C29.7522 26.4372 29.5137 26.2042 29.5137 25.9168ZM32.0521 27.869C32.0521 27.5816 32.2907 27.3485 32.5849 27.3485H38.0219C38.3161 27.3485 38.5547 27.5816 38.5547 27.869C38.5547 28.1564 38.3161 28.3894 38.0219 28.3894H32.5849C32.2907 28.3894 32.0521 28.1564 32.0521 27.869ZM25.5128 31.1023C25.5128 30.8149 25.7514 30.5819 26.0456 30.5819H30.763C31.0572 30.5819 31.2958 30.8149 31.2958 31.1023C31.2958 31.3898 31.0572 31.6228 30.763 31.6228H26.0456C25.7514 31.6228 25.5128 31.3898 25.5128 31.1023ZM25.5128 32.9107C25.5128 32.6233 25.7514 32.3903 26.0456 32.3903H30.763C31.0572 32.3903 31.2958 32.6233 31.2958 32.9107C31.2958 33.1981 31.0572 33.4311 30.763 33.4311H26.0456C25.7514 33.4311 25.5128 33.1981 25.5128 32.9107ZM25.5128 34.7222C25.5128 34.4348 25.7514 34.2018 26.0456 34.2018H28.4043C28.6986 34.2018 28.9371 34.4348 28.9371 34.7222C28.9371 35.0097 28.6986 35.2427 28.4043 35.2427H26.0456C25.7514 35.2427 25.5128 35.0097 25.5128 34.7222ZM32.2314 34.5293C32.4489 34.7228 32.4646 35.052 32.2665 35.2644L30.9139 36.715C30.7955 36.842 30.6205 36.9037 30.4463 36.88C30.2721 36.8562 30.1212 36.75 30.0429 36.5961L29.3066 35.1488C29.1757 34.8914 29.2832 34.579 29.5467 34.4511C29.8102 34.3232 30.13 34.4282 30.2609 34.6856L30.6506 35.4517L31.4787 34.5636C31.6769 34.3511 32.0138 34.3357 32.2314 34.5293Z" fill="#FF6B03"/>
</svg>
