<svg width="76" height="75" viewBox="0 0 76 75" fill="none" xmlns="http://www.w3.org/2000/svg">
<path d="M45 24H12.3333C11.7145 24 11.121 23.7542 10.6834 23.3166C10.2458 22.879 10 22.2855 10 21.6667V12.3333C10 11.7145 10.2458 11.121 10.6834 10.6834C11.121 10.2458 11.7145 10 12.3333 10H45C45.6188 10 46.2123 10.2458 46.6499 10.6834C47.0875 11.121 47.3333 11.7145 47.3333 12.3333V21.6667C47.3333 22.2855 47.0875 22.879 46.6499 23.3166C46.2123 23.7542 45.6188 24 45 24ZM14.6667 19.3333H42.6667V14.5267H14.6667V19.3333Z" fill="#3EA2B8"/>
<path d="M45 28.8533H12.3333C11.7145 28.8533 11.121 29.0992 10.6834 29.5368C10.2458 29.9743 10 30.5678 10 31.1867V40.3333C10 40.9522 10.2458 41.5457 10.6834 41.9832C11.121 42.4208 11.7145 42.6667 12.3333 42.6667H38.84L47.3333 34.0333V31.1867C47.3333 30.5678 47.0875 29.9743 46.6499 29.5368C46.2123 29.0992 45.6188 28.8533 45 28.8533ZM42.6667 38H14.6667V33.3333H42.6667V38Z" fill="#3EA2B8"/>
<path d="M21.807 69.5233V69.3833L22.5537 66.14H5.33366V5.33329H52.0003V29.25L56.667 24.84V2.99996C56.667 2.38112 56.4212 1.78763 55.9836 1.35004C55.546 0.912458 54.9525 0.666626 54.3337 0.666626H3.00033C2.38149 0.666626 1.78799 0.912458 1.35041 1.35004C0.912825 1.78763 0.666992 2.38112 0.666992 2.99996V68.3333C0.666992 68.9521 0.912825 69.5456 1.35041 69.9832C1.78799 70.4208 2.38149 70.6666 3.00033 70.6666H21.667C21.6859 70.2826 21.7327 69.9005 21.807 69.5233Z" fill="#3EA2B8"/>
<path d="M47.3337 40.73L45.5137 42.5733C45.9652 42.4802 46.3791 42.2555 46.703 41.9274C47.0269 41.5993 47.2464 41.1827 47.3337 40.73Z" fill="#3EA2B8"/>
<path d="M10 58.86C10 59.4789 10.2458 60.0724 10.6834 60.51C11.121 60.9475 11.7145 61.1934 12.3333 61.1934H23.6267L24.3267 58.16L24.63 56.8767V56.76H14.6667V52H29.46L34.1267 47.3334H12.3333C11.7145 47.3334 11.121 47.5792 10.6834 48.0168C10.2458 48.4544 10 49.0479 10 49.6667V58.86Z" fill="#3EA2B8"/>
<path d="M74.1435 34.8967L66.2802 27.0333C65.9312 26.6834 65.5166 26.4058 65.0602 26.2163C64.6037 26.0269 64.1144 25.9294 63.6202 25.9294C63.126 25.9294 62.6367 26.0269 62.1802 26.2163C61.7238 26.4058 61.3092 26.6834 60.9602 27.0333L28.9702 59.21L26.3335 70.4333C26.2348 70.9175 26.2326 71.4164 26.327 71.9015C26.4214 72.3865 26.6106 72.8482 26.8837 73.26C27.1568 73.6718 27.5085 74.0257 27.9185 74.3014C28.3286 74.5771 28.7891 74.7692 29.2735 74.8667C29.5141 74.8901 29.7563 74.8901 29.9969 74.8667C30.2829 74.9113 30.5742 74.9113 30.8602 74.8667L42.1769 72.37L74.1435 40.3333C74.4928 39.9863 74.7699 39.5737 74.959 39.1192C75.1481 38.6647 75.2455 38.1773 75.2455 37.685C75.2455 37.1927 75.1481 36.7053 74.959 36.2508C74.7699 35.7963 74.4928 35.3836 74.1435 35.0367V34.8967ZM39.7969 68.1233L31.2569 70.0133L33.3335 61.5433L57.3202 37.3L63.9002 43.88L39.7969 68.1233ZM66.5369 41.2433L59.9569 34.6633L63.6669 31L70.2935 37.6267L66.5369 41.2433Z" fill="#3EA2B8"/>
</svg>
