<svg width="141" height="38" viewBox="0 0 141 38" fill="none" xmlns="http://www.w3.org/2000/svg">
<path d="M53.5527 20.6528V24.9562C53.5527 25.2959 53.3262 25.5224 52.9864 25.5224H48.7963C48.4565 25.5224 48.23 25.2959 48.23 24.9562V20.6528H40.7557C40.4159 20.6528 40.1895 20.4263 40.1895 20.0865V17.0288C40.1895 16.6891 40.4159 16.4626 40.7557 16.4626H61.027C61.3667 16.4626 61.5932 16.6891 61.5932 17.0288V20.0865C61.5932 20.5395 61.3667 20.6528 61.027 20.6528H53.5527ZM46.3048 10.1207H60.2342C60.574 10.1207 60.8005 10.3472 60.8005 10.687V13.8579C60.8005 14.1976 60.574 14.4241 60.2342 14.4241H41.5484C41.3219 14.4241 41.2087 14.4241 41.0954 14.3109C40.9822 14.1976 40.9822 14.0844 40.9822 13.8579V3.77888C40.9822 3.43914 41.2087 3.21265 41.5484 3.21265H45.8518C46.1916 3.21265 46.4181 3.43914 46.4181 3.77888C46.3048 3.89213 46.3048 10.1207 46.3048 10.1207Z" fill="#004575"/>
<path d="M66.4638 24.2766V12.7254C66.4638 12.3856 66.6903 12.1591 67.0301 12.1591H74.6177V7.51598H66.9168C66.5771 7.51598 66.3506 7.28949 66.3506 6.94974V4.11856C66.3506 3.77882 66.5771 3.55232 66.9168 3.55232H79.0343C79.374 3.55232 79.6005 3.77882 79.6005 4.11856V15.3301C79.6005 15.6698 79.374 15.8963 79.0343 15.8963H71.3335V20.8792H74.2779C75.7501 20.8792 77.2223 20.7659 78.6946 20.5394C80.1668 20.3129 81.4125 19.9732 82.4317 19.407V3.55232C82.4317 3.21258 82.6582 2.98608 82.998 2.98608H86.8484C87.1881 2.98608 87.4146 3.21258 87.4146 3.55232V24.6163C87.4146 24.9561 87.1881 25.1826 86.8484 25.1826H82.998C82.6582 25.1826 82.4317 24.9561 82.4317 24.6163V22.9176C81.5257 23.4839 80.28 23.9369 78.8078 24.2766C77.3356 24.6163 75.6369 24.7296 73.7117 24.7296H66.9168C66.5771 24.8428 66.4638 24.6163 66.4638 24.2766Z" fill="#004575"/>
<path d="M93.6432 15.1036C93.3035 15.1036 93.077 14.8771 93.077 14.5373V12.4989C93.077 12.1591 93.3035 11.9326 93.6432 11.9326C95.0022 11.8194 96.2479 11.7061 97.2671 11.4796C98.2864 11.2531 99.1923 10.8002 99.8718 10.2339L93.077 10.4604C92.7372 10.4604 92.5107 10.2339 92.5107 9.89418V8.19547C92.5107 7.85572 92.7372 7.62923 93.077 7.62923H101.231C101.344 7.28949 101.344 6.8365 101.344 6.38351H93.3035C92.9637 6.38351 92.7372 6.15701 92.7372 5.81727V3.77882C92.7372 3.43907 92.9637 3.21258 93.3035 3.21258H105.987C106.327 3.21258 106.553 3.43907 106.553 3.77882V6.04376C106.553 7.74248 106.214 9.21469 105.421 10.3472C104.628 11.4796 103.722 12.3856 102.477 13.0651C101.231 13.7446 99.8718 14.1976 98.3996 14.5373C96.8141 14.8771 95.2287 14.9903 93.6432 15.1036ZM94.0962 25.0693C93.7565 25.0693 93.53 24.8428 93.53 24.5031V16.3493C93.53 16.0095 93.7565 15.783 94.0962 15.783H98.0599C98.3996 15.783 98.6261 16.0095 98.6261 16.3493V21.8984H108.365V20.3129H99.9851C99.6453 20.3129 99.4188 20.0864 99.4188 19.7467V17.8215C99.4188 17.4818 99.6453 17.2553 99.9851 17.2553H108.365V16.3493C108.365 16.0095 108.592 15.783 108.932 15.783H112.782C113.122 15.783 113.348 16.0095 113.348 16.3493V24.5031C113.348 24.8428 113.122 25.0693 112.782 25.0693C112.669 25.0693 94.0962 25.0693 94.0962 25.0693ZM108.818 14.4241C108.479 14.4241 108.252 14.1976 108.252 13.8578V3.55232C108.252 3.21258 108.479 2.98608 108.818 2.98608H112.669C113.009 2.98608 113.235 3.21258 113.235 3.55232V6.49675H114.481C114.82 6.49675 115.047 6.72325 115.047 7.06299V10.2339C115.047 10.5737 114.82 10.8002 114.481 10.8002H113.235V13.8578C113.235 14.1976 113.009 14.4241 112.669 14.4241H108.818Z" fill="#004575"/>
<path d="M119.577 24.6164C119.237 24.6164 119.011 24.3899 119.011 24.0502V20.9925C119.011 20.6528 119.237 20.4263 119.577 20.4263H139.848C140.188 20.4263 140.414 20.6528 140.414 20.9925V24.0502C140.414 24.5032 140.188 24.6164 139.848 24.6164H119.577ZM125.692 16.8024C125.579 16.9156 125.466 17.0289 125.466 17.1421C125.466 17.2554 125.239 17.2554 125.013 17.2554H119.917C119.69 17.2554 119.577 17.1421 119.464 17.0289C119.35 16.9156 119.35 16.8024 119.577 16.5759L128.524 3.77892C128.637 3.66567 128.75 3.55242 128.863 3.43917C128.977 3.32593 129.09 3.32593 129.203 3.32593H134.639C134.865 3.32593 134.979 3.43917 135.092 3.55242C135.205 3.66567 135.092 3.89216 134.979 4.00541L125.692 16.8024ZM130.222 12.7255C129.996 12.499 130.109 12.1592 130.335 11.9327L132.714 8.64856C132.94 8.30881 133.167 8.30881 133.393 8.64856L140.188 16.5759C140.301 16.6891 140.301 16.9156 140.301 17.0289C140.188 17.1421 140.075 17.2554 139.848 17.2554H134.526C134.412 17.2554 134.186 17.2554 134.073 17.1421C133.959 17.0289 133.846 16.9156 133.846 16.8024L130.222 12.7255Z" fill="#004575"/>
<path d="M40.6432 37.0736C40.6432 37.1869 40.6432 37.1869 40.6432 37.0736L39.3974 37.1869C39.2842 37.1869 39.2842 37.1869 39.2842 37.0736V31.9775C39.2842 31.8643 39.2842 31.8643 39.3974 31.8643H40.5299C40.6432 31.8643 40.6432 31.8643 40.6432 31.9775V33.7895L41.7756 31.9775C41.7756 31.9775 41.7756 31.8643 41.8889 31.8643H42.0021H43.3611H43.4743V31.9775L40.6432 36.0544V37.0736ZM42.1154 37.1869C42.0021 37.1869 42.0021 37.1869 42.1154 37.1869L41.2094 35.7147C41.2094 35.7147 41.2094 35.7147 41.2094 35.6014V35.4882L41.8889 34.4689C42.0021 34.3557 42.0021 34.3557 42.1154 34.4689L43.5876 36.9604C43.5876 37.0736 43.5876 37.0736 43.4743 37.0736L42.1154 37.1869Z" fill="#004575"/>
<path d="M45.6255 33.4497V35.2617C45.6255 35.4882 45.7388 35.7147 45.7388 35.8279C45.9653 36.0544 46.0785 36.0544 46.4183 36.0544C46.758 36.0544 46.8713 35.9412 46.9845 35.8279C47.0978 35.7147 47.211 35.4882 47.211 35.2617V34.1292C47.211 33.9027 47.211 33.7895 47.211 33.6762C47.211 33.563 47.0978 33.4497 46.9845 33.3365C46.8713 33.2232 46.758 33.2232 46.6448 33.11C46.5315 32.9967 46.305 32.9967 46.0785 32.9967H44.4931C44.3798 32.9967 44.3798 32.9967 44.3798 32.8835V31.9775C44.3798 31.8643 44.3798 31.8643 44.4931 31.8643H46.0785C46.5315 31.8643 46.9845 31.8643 47.211 31.9775C47.4375 32.0908 47.7772 32.204 48.0037 32.3172C48.2302 32.4305 48.3435 32.7702 48.4567 32.9967C48.57 33.2232 48.57 33.563 48.57 34.016V35.2617C48.57 35.6014 48.4567 35.9412 48.4567 36.1677C48.4567 36.3942 48.2302 36.6206 48.0037 36.7339C47.7772 37.0736 47.5507 37.1869 47.211 37.1869C46.9845 37.3001 46.6448 37.3001 46.305 37.3001C45.9653 37.3001 45.7388 37.3001 45.399 37.1869C45.1725 37.0736 44.9461 36.9604 44.7196 36.8471C44.4931 36.7339 44.3798 36.5074 44.2666 36.2809C44.1533 36.0544 44.1533 35.7147 44.1533 35.3749V33.563C44.1533 33.4497 44.1533 33.4497 44.2666 33.4497H45.399C45.6255 33.3365 45.6255 33.3365 45.6255 33.4497Z" fill="#004575"/>
<path d="M52.0813 33.7895C52.0813 33.563 51.968 33.3365 51.8548 33.2233C51.7415 33.11 51.515 33.11 51.1753 33.11H49.5898C49.4766 33.11 49.4766 33.11 49.4766 32.9968V32.0908C49.4766 31.9775 49.4766 31.9775 49.5898 31.9775H51.1753C51.8548 31.9775 52.421 32.0908 52.874 32.4305C53.2137 32.7703 53.4402 33.2233 53.4402 33.7895C53.4402 34.1292 53.327 34.3557 53.2137 34.5822C53.1005 34.8087 52.9872 35.0352 52.7607 35.1485L53.6667 36.9604C53.6667 37.0737 53.6667 37.0737 53.5535 37.0737H52.3077C52.1945 37.0737 52.1945 37.0737 52.1945 36.9604L51.6283 35.4882C51.515 35.4882 51.4018 35.4882 51.2885 35.4882H51.1753H51.062V36.8472C51.062 36.9604 51.062 36.9604 50.9488 36.9604H49.8163C49.7031 36.9604 49.7031 36.9604 49.7031 36.8472V33.2233C49.7031 33.11 49.7031 33.11 49.8163 33.11H50.9488C51.062 33.11 51.062 33.11 51.062 33.2233V34.2425H51.1753H51.2885C51.6283 34.2425 51.8548 34.2425 51.968 34.1292C52.0813 34.2425 52.0813 34.016 52.0813 33.7895Z" fill="#004575"/>
<path d="M54.5722 32.9967C54.459 32.9967 54.459 32.9967 54.5722 32.9967L54.459 31.9775C54.459 31.8643 54.459 31.8643 54.5722 31.8643H57.7432C57.8564 31.8643 57.8564 31.8643 57.8564 31.9775V32.8835C57.8564 32.9967 57.8564 32.9967 57.7432 32.9967H54.5722ZM54.6855 37.1869C54.5722 37.1869 54.5722 37.1869 54.6855 37.1869L54.5722 33.4497C54.5722 33.3365 54.5722 33.3365 54.6855 33.3365H55.818C55.9312 33.3365 55.9312 33.3365 55.9312 33.4497V34.016H57.4034C57.5167 34.016 57.5167 34.016 57.5167 34.1292V34.9219C57.5167 35.0352 57.5167 35.0352 57.4034 35.0352H55.9312V36.0544H57.7432C57.8564 36.0544 57.8564 36.0544 57.8564 36.1677V37.0736C57.8564 37.1869 57.8564 37.1869 57.7432 37.1869H54.6855Z" fill="#004575"/>
<path d="M60.2349 37.0736C60.2349 37.1869 60.1217 37.1869 60.0084 37.1869H58.8759H58.7627V37.0736L60.3482 31.9775C60.3482 31.8643 60.4614 31.8643 60.4614 31.8643H61.3674C61.4806 31.8643 61.4806 31.8643 61.4806 31.9775C61.5939 31.9775 60.2349 37.0736 60.2349 37.0736ZM62.1601 37.1869C62.0469 37.1869 62.0469 37.1869 62.1601 37.1869L61.8204 36.3942H60.6879H60.5747V36.2809L60.8011 35.3749C60.8011 35.2617 60.9144 35.2617 60.9144 35.2617H61.3674L61.1409 34.2425C61.1409 34.2425 61.1409 34.1292 61.1409 34.016L61.5939 32.204C61.5939 32.0908 61.5939 32.0908 61.7071 32.0908C61.8204 32.0908 61.8204 32.0908 61.8204 32.204L63.4058 37.0736C63.4058 37.1869 63.4058 37.1869 63.2926 37.1869H62.1601Z" fill="#004575"/>
<path d="M68.9553 33.7895C68.9553 33.563 68.842 33.3365 68.7288 33.2232C68.6155 33.11 68.389 32.9967 68.0493 32.9967H66.4638C66.3506 32.9967 66.3506 32.9967 66.3506 32.8835V31.9775C66.3506 31.8643 66.3506 31.8643 66.4638 31.8643H68.0493C68.7288 31.8643 69.295 31.9775 69.748 32.3172C70.0878 32.657 70.3142 33.11 70.3142 33.6762V33.7895C70.3142 34.1292 70.3142 34.3557 70.201 34.5822C70.0878 34.8087 69.9745 35.0352 69.748 35.1484C69.5215 35.3749 69.295 35.4882 69.0685 35.4882C68.842 35.4882 68.5023 35.6014 68.1625 35.6014H67.9361H67.8228V36.8471C67.8228 36.9604 67.8228 36.9604 67.7096 36.9604H66.5771C66.4638 36.9604 66.4638 36.9604 66.4638 36.8471V33.2232C66.4638 33.11 66.4638 33.11 66.5771 33.11H67.7096C67.8228 33.11 67.8228 33.11 67.8228 33.2232V34.3557H67.9361H68.0493C68.389 34.3557 68.6155 34.3557 68.7288 34.1292C68.842 33.9027 68.9553 34.1292 68.9553 33.7895Z" fill="#004575"/>
<path d="M72.6919 33.4497V35.2617C72.6919 35.4882 72.8052 35.7147 72.8052 35.8279C72.8052 35.9412 73.1449 36.0544 73.3714 36.0544C73.5979 36.0544 73.8244 35.9412 73.9377 35.8279C74.0509 35.7147 74.1642 35.4882 74.1642 35.2617V34.1292C74.1642 33.9027 74.1642 33.7895 74.1642 33.6762C74.1642 33.563 74.0509 33.4497 73.9377 33.3365C73.8244 33.2232 73.7112 33.2232 73.5979 33.11C73.4847 32.9967 73.2582 32.9967 73.0317 32.9967H71.333C71.2197 32.9967 71.2197 32.9967 71.2197 32.8835V31.9775C71.2197 31.8643 71.2197 31.8643 71.333 31.8643H72.9184C73.3714 31.8643 73.8244 31.8643 74.0509 31.9775C74.2774 32.0908 74.6171 32.204 74.8436 32.3172C75.0701 32.4305 75.1834 32.7702 75.2966 32.9967C75.4099 33.2232 75.4099 33.563 75.4099 34.016V35.2617C75.4099 35.6014 75.4099 35.9412 75.2966 36.1677C75.1834 36.3942 75.0701 36.6206 74.8436 36.7339C74.6171 36.8471 74.3907 36.9604 74.1642 37.0736C73.9377 37.1869 73.5979 37.1869 73.2582 37.1869C72.9184 37.1869 72.6919 37.1869 72.3522 37.0736C72.1257 36.9604 71.8992 36.8471 71.6727 36.7339C71.4462 36.6206 71.333 36.3942 71.2197 36.1677C71.4462 36.0544 71.333 35.7147 71.333 35.2617V33.4497C71.333 33.3365 71.333 33.3365 71.4462 33.3365L72.6919 33.4497C72.6919 33.3365 72.6919 33.3365 72.6919 33.4497Z" fill="#004575"/>
<path d="M76.6562 37.0736V31.9775C76.6562 31.8643 76.6563 31.8643 76.7695 31.8643H77.902C78.0152 31.8643 78.0152 31.8643 78.0152 31.9775V35.8279H79.6007C79.7139 35.8279 79.7139 35.8279 79.7139 35.9412V36.9604C79.7139 37.0736 79.7139 37.0736 79.6007 37.0736H76.6562C76.6562 37.1869 76.6562 37.1869 76.6562 37.0736Z" fill="#004575"/>
<path d="M81.9791 37.1869H80.8466C80.7334 37.1869 80.7334 37.1869 80.7334 37.0736V31.9775C80.7334 31.8643 80.7334 31.8643 80.8466 31.8643H81.9791C82.0924 31.8643 82.0924 31.8643 82.0924 31.9775L81.9791 37.1869C82.2056 37.1869 82.0924 37.1869 81.9791 37.1869Z" fill="#004575"/>
<path d="M87.4148 35.3749C87.4148 35.7147 87.3015 36.0544 87.3015 36.2809C87.3015 36.5074 87.075 36.7339 86.8485 36.8471C86.622 36.9604 86.3955 37.0736 86.169 37.1869C85.9425 37.1869 85.6028 37.3001 85.3763 37.3001C85.1498 37.3001 84.8101 37.3001 84.4703 37.1869C84.2438 37.0736 84.0173 36.9604 83.7908 36.8471C83.5644 36.7339 83.4511 36.5074 83.3379 36.2809C83.2246 36.0544 83.2246 35.7147 83.2246 35.3749V33.7895C83.2246 33.4497 83.2246 33.11 83.3379 32.8835C83.4511 32.657 83.5644 32.4305 83.7908 32.3172C84.0173 32.204 84.2438 32.0908 84.4703 31.9775C84.6968 31.8643 85.0366 31.8643 85.3763 31.8643C85.7161 31.8643 85.9425 31.8643 86.2823 31.9775C86.622 32.0908 86.7353 32.204 86.9618 32.3172C87.1883 32.4305 87.3015 32.657 87.4148 32.8835C87.528 33.11 87.528 33.4497 87.528 33.7895C87.528 33.9027 87.528 33.9027 87.4148 33.9027H86.2823C86.169 33.9027 86.169 33.9027 86.169 33.7895V33.6762C86.169 33.4497 86.0558 33.2232 86.0558 33.11C86.0558 32.9967 85.7161 32.8835 85.4896 32.8835C85.2631 32.8835 85.0366 32.9967 84.9233 33.11C84.8101 33.2232 84.6968 33.4497 84.6968 33.6762V35.3749C84.6968 35.6014 84.8101 35.8279 84.9233 35.9412C85.0366 36.0544 85.2631 36.1677 85.4896 36.1677C85.7161 36.1677 85.9425 36.0544 86.0558 35.9412C86.169 35.8279 86.169 35.6014 86.169 35.3749V35.2617C86.169 35.1484 86.169 35.1484 86.2823 35.1484H87.4148C87.528 35.1484 87.528 35.1484 87.528 35.2617V35.3749H87.4148Z" fill="#004575"/>
<path d="M88.4336 32.9967C88.3203 32.9967 88.3203 32.9967 88.4336 32.9967L88.3203 31.9775C88.3203 31.8643 88.3203 31.8643 88.4336 31.8643H91.6045C91.7177 31.8643 91.7177 31.8643 91.7177 31.9775V32.8835C91.7177 32.9967 91.7177 32.9967 91.6045 32.9967H88.4336ZM88.6601 37.1869C88.5468 37.1869 88.5468 37.1869 88.6601 37.1869L88.5468 33.4497C88.5468 33.3365 88.5468 33.3365 88.6601 33.3365H89.7925C89.9058 33.3365 89.9058 33.3365 89.9058 33.4497V34.016H91.378C91.4912 34.016 91.4912 34.016 91.4912 34.1292V34.9219C91.4912 35.0352 91.4912 35.0352 91.378 35.0352H89.9058V36.0544H91.7177C91.831 36.0544 91.831 36.0544 91.831 36.1677V37.0736C91.831 37.1869 91.831 37.1869 91.7177 37.1869H88.6601Z" fill="#004575"/>
<path d="M98.9656 35.3749C98.9656 35.7147 98.8523 36.0544 98.8523 36.2809C98.8523 36.5074 98.6258 36.7339 98.3993 36.8471C98.1728 36.9604 97.9463 37.0736 97.7198 37.1869C97.4933 37.1869 97.1536 37.3001 96.9271 37.3001C96.7006 37.3001 96.3609 37.3001 96.0211 37.1869C95.7946 37.0736 95.5681 36.9604 95.3416 36.8471C95.1151 36.7339 95.0019 36.5074 94.8886 36.2809C94.7754 36.0544 94.7754 35.7147 94.7754 35.3749V33.7895C94.7754 33.4497 94.7754 33.11 94.8886 32.8835C95.0019 32.657 95.1151 32.4305 95.3416 32.3172C95.5681 32.204 95.7946 32.0908 96.0211 31.9775C96.2476 31.8643 96.5874 31.8643 96.9271 31.8643C97.2668 31.8643 97.4933 31.8643 97.8331 31.9775C98.1728 32.0908 98.2861 32.204 98.5126 32.3172C98.7391 32.4305 98.8523 32.657 98.9656 32.8835C99.0788 33.11 99.0788 33.4497 99.0788 33.7895C99.0788 33.9027 99.0788 33.9027 98.9656 33.9027H97.8331C97.7198 33.9027 97.7198 33.9027 97.7198 33.7895V33.6762C97.7198 33.4497 97.6066 33.2232 97.6066 33.11C97.6066 32.9967 97.2668 32.8835 97.0403 32.8835C96.8138 32.8835 96.5873 32.9967 96.4741 33.11C96.3609 33.2232 96.2476 33.4497 96.2476 33.6762V35.3749C96.2476 35.6014 96.3609 35.8279 96.4741 35.9412C96.5873 36.0544 96.8138 36.1677 97.0403 36.1677C97.2668 36.1677 97.4933 36.0544 97.6066 35.9412C97.7198 35.8279 97.7198 35.6014 97.7198 35.3749V35.2617C97.7198 35.1484 97.7198 35.1484 97.8331 35.1484H98.9656C99.0788 35.1484 99.0788 35.1484 99.0788 35.2617V35.3749H98.9656Z" fill="#004575"/>
<path d="M101.457 33.4497V35.2617C101.457 35.4882 101.57 35.7147 101.57 35.8279C101.57 35.9412 101.91 36.0544 102.136 36.0544C102.363 36.0544 102.589 35.9412 102.702 35.8279C102.816 35.7147 102.929 35.4882 102.929 35.2617V34.1292C102.929 33.9027 102.929 33.7895 102.929 33.6762C102.929 33.563 102.816 33.4497 102.702 33.3365C102.589 33.2232 102.476 33.2232 102.363 33.11C102.249 32.9967 102.023 32.9967 101.796 32.9967H100.211C100.098 32.9967 100.098 32.9967 100.098 32.8835V31.9775C100.098 31.8643 100.098 31.8643 100.211 31.8643H101.796C102.249 31.8643 102.702 31.8643 102.929 31.9775C103.155 32.0908 103.495 32.204 103.722 32.3172C103.948 32.4305 104.061 32.7702 104.175 32.9967C104.288 33.2232 104.288 33.563 104.288 34.016V35.2617C104.288 35.6014 104.288 35.9412 104.175 36.1677C104.061 36.3942 103.948 36.6206 103.722 36.7339C103.495 36.8471 103.269 36.9604 103.042 37.0736C102.816 37.1869 102.476 37.1869 102.136 37.1869C101.796 37.1869 101.57 37.1869 101.23 37.0736C101.004 36.9604 100.777 36.8471 100.551 36.7339C100.324 36.6206 100.211 36.3942 100.098 36.1677C99.9844 35.9412 99.9844 35.6014 99.9844 35.2617V33.4497C99.9844 33.3365 99.9844 33.3365 100.098 33.3365H101.23C101.343 33.3365 101.457 33.3365 101.457 33.4497Z" fill="#004575"/>
<path d="M107.911 35.1484L109.044 31.9775V31.8643H109.157H110.289C110.403 31.8643 110.403 31.8643 110.403 31.9775V37.0736C110.403 37.1869 110.403 37.1869 110.289 37.1869H109.27C109.157 37.1869 109.157 37.1869 109.157 37.0736V34.8087L108.364 36.7339V36.8471H108.251H107.345H107.232C107.232 36.8471 107.232 36.8471 107.232 36.7339L105.193 31.9775V31.8643H105.307H106.439C106.552 31.8643 106.552 31.8643 106.552 31.9775L107.911 35.1484ZM105.307 32.9967C105.42 32.8835 105.533 32.8835 105.533 32.9967L106.552 35.4882V35.6014V35.7147V37.0736C106.552 37.1869 106.552 37.1869 106.439 37.1869H105.42C105.307 37.1869 105.307 37.1869 105.307 37.0736V32.9967Z" fill="#004575"/>
<path d="M114.367 35.1484L115.5 31.9775V31.8643H115.613H116.746C116.859 31.8643 116.859 31.8643 116.859 31.9775V37.0736C116.859 37.1869 116.859 37.1869 116.746 37.1869H115.726C115.613 37.1869 115.613 37.1869 115.613 37.0736V34.8087L114.82 36.7339V36.8471H114.707H113.801H113.688C113.688 36.8471 113.688 36.8471 113.688 36.7339L111.649 31.9775V31.8643H111.763H112.895C113.008 31.8643 113.008 31.8643 113.008 31.9775L114.367 35.1484ZM111.649 32.9967C111.763 32.8835 111.876 32.8835 111.876 32.9967L112.895 35.4882V35.6014V35.7147V37.0736C112.895 37.1869 112.895 37.1869 112.782 37.1869H111.763C111.649 37.1869 111.649 37.1869 111.649 37.0736V32.9967Z" fill="#004575"/>
<path d="M122.181 35.2617C122.181 35.6014 122.181 35.9412 122.068 36.1677C121.955 36.3942 121.842 36.6206 121.615 36.7339C121.389 36.8471 121.162 36.9604 120.936 37.0736C120.709 37.1869 120.369 37.1869 120.143 37.1869C119.916 37.1869 119.577 37.1869 119.35 37.0736C119.124 36.9604 118.897 36.8471 118.671 36.7339C118.444 36.6206 118.331 36.3942 118.218 36.1677C118.104 35.9412 118.104 35.6014 118.104 35.2617V31.9775C118.104 31.8643 118.104 31.8643 118.218 31.8643H119.35C119.463 31.8643 119.463 31.8643 119.463 31.9775V35.3749C119.463 35.6014 119.577 35.8279 119.577 35.9412C119.577 36.0544 119.803 36.1677 120.143 36.1677C120.483 36.1677 120.596 36.0544 120.709 35.9412C120.822 35.8279 120.822 35.6014 120.822 35.3749V31.9775C120.822 31.8643 120.822 31.8643 120.936 31.8643H122.068C122.181 31.8643 122.181 31.8643 122.181 31.9775V35.2617Z" fill="#004575"/>
<path d="M123.314 32.0908L123.428 31.9775H124.673C124.787 31.9775 124.787 31.9775 124.787 32.0908L126.146 34.8087V32.0908C126.146 31.9775 126.146 31.9775 126.259 31.9775H127.278C127.391 31.9775 127.391 31.9775 127.391 32.0908V37.1869H127.278H126.146C126.032 37.1869 126.032 37.1869 126.032 37.0737L123.314 32.0908ZM123.314 32.7703C123.428 32.657 123.541 32.657 123.541 32.7703L124.673 34.8087V34.922V35.0352V37.0737C124.673 37.1869 124.673 37.1869 124.56 37.1869H123.541C123.428 37.1869 123.428 37.1869 123.428 37.0737C123.314 37.0737 123.314 32.7703 123.314 32.7703Z" fill="#004575"/>
<path d="M129.996 37.1869H128.863C128.75 37.1869 128.75 37.1869 128.75 37.0736V31.9775C128.75 31.8643 128.75 31.8643 128.863 31.8643H129.996C130.109 31.8643 130.109 31.8643 130.109 31.9775V37.0736C130.109 37.1869 130.109 37.1869 129.996 37.1869Z" fill="#004575"/>
<path d="M131.128 33.2233C131.015 33.2233 131.015 33.2233 131.015 33.11V32.0908C131.015 31.9775 131.015 31.9775 131.128 31.9775H134.639C134.752 31.9775 134.752 31.9775 134.752 32.0908V33.11C134.752 33.2233 134.752 33.2233 134.639 33.2233H131.128ZM133.619 37.0737C133.619 37.1869 133.619 37.1869 133.506 37.1869H132.374C132.26 37.1869 132.26 37.1869 132.26 37.0737V33.4498C132.26 33.3365 132.26 33.3365 132.374 33.3365H133.506C133.619 33.3365 133.619 33.3365 133.619 33.4498V37.0737Z" fill="#004575"/>
<path d="M138.488 37.0736C138.488 37.1869 138.488 37.1869 138.375 37.1869H137.243C137.129 37.1869 137.129 37.1869 137.129 37.0736V35.4881L135.657 32.0907V31.9775H135.77H137.016C137.129 31.9775 137.129 31.9775 137.129 32.0907L138.488 35.7146C138.488 35.8279 138.488 35.8279 138.488 35.9411C138.488 35.8279 138.488 37.0736 138.488 37.0736ZM139.847 31.8642C139.961 31.8642 139.961 31.8642 139.961 31.9775L138.602 35.0351L138.488 35.1484C138.488 35.1484 138.375 35.1484 138.375 35.0351L137.809 33.6762C137.809 33.5629 137.809 33.5629 137.809 33.4497L138.375 31.8642C138.375 31.751 138.488 31.751 138.488 31.751L139.847 31.8642Z" fill="#004575"/>
<mask id="mask0_569_115" style="mask-type:luminance" maskUnits="userSpaceOnUse" x="0" y="0" width="35" height="35">
<path d="M5.54912 0.0415039L30.2371 3.32568C32.7285 3.32568 34.8802 5.36413 34.8802 7.96882L33.5212 30.2786C33.5212 32.77 31.4828 34.9217 28.8781 34.9217L4.64314 32.0905C2.1517 32.0905 0 30.0521 0 27.4474L0.905981 4.68465C0.905981 2.07996 2.94443 0.0415039 5.54912 0.0415039Z" fill="white"/>
</mask>
<g mask="url(#mask0_569_115)">
<path d="M-17.5541 9.10132H45.8645L38.0504 44.3213H-25.3682L-17.5541 9.10132Z" fill="#FBA905"/>
<path d="M48.1297 17.0287L37.3712 11.3663L-5.43636 17.0287L-8.1543 -2.22339L44.5058 -5.50757L48.1297 17.0287Z" fill="#FC0400"/>
<path d="M41.3352 13.971L39.6365 13.7445C34.4271 13.0651 29.1045 14.0843 24.5746 16.689L22.9892 17.595C21.0639 18.7274 18.9122 19.5202 16.7605 20.0864L12.4571 21.1056C9.85246 21.6719 6.00204 22.0116 3.2841 21.6719L-4.75646 20.6526C-5.66244 20.5394 -6.56842 20.4261 -7.4744 20.1996L-12.9103 18.9539C-16.4209 18.1612 -19.7051 16.5757 -22.5363 14.3108L-26.3867 11.2531L-24.235 11.7061C-23.2158 11.9326 -22.3098 12.1591 -21.2906 12.3856L-20.2714 12.7253C-18.4594 13.2916 -16.5342 13.6313 -14.4957 13.7445L-2.26502 14.5373L3.73709 15.1035C6.90802 15.4433 9.96571 15.1035 13.0234 14.1975L20.7242 11.9326L23.5554 11.1399C29.4443 9.44114 35.8994 10.1206 41.3352 12.9518V13.971Z" fill="white"/>
<path d="M26.2727 16.9153L12.5697 24.8426C12.4565 24.8426 12.4565 24.9559 12.3432 24.9559C10.9843 25.4089 9.85178 25.8619 8.71931 25.9751C5.32189 26.4281 1.81122 26.4281 -1.69945 25.9751H-1.8127C-2.60543 25.9751 -3.39816 25.8619 -4.19089 25.7486L-12.1182 22.4644L-11.7785 25.9751H-25.3682V24.5029H-11.7785L-12.2315 20.9922L-4.07765 24.2764C-3.39816 24.3896 -2.71868 24.5029 -1.92595 24.5029C1.47148 24.9559 4.98215 25.0691 8.49282 24.6161H8.60606C9.96503 24.5029 11.324 24.1632 12.5697 23.5969L25.7064 15.6696C26.8389 14.9901 28.0846 13.6311 29.3303 13.6311L34.7662 12.7252L41.2213 13.2914C38.6166 10.8 34.2 12.9517 29.2171 15.2166" fill="white"/>
</g>
</svg>
