<svg width="167" height="47" viewBox="0 0 167 47" fill="none" xmlns="http://www.w3.org/2000/svg">
<path d="M12.3595 0.366058L40.8701 4.16156C43.7473 4.16156 46.2321 6.51739 46.2321 9.52761L44.6628 35.3108C44.6628 38.1902 42.3087 40.6769 39.3007 40.6769L11.3132 37.4049C8.43604 37.4049 5.95117 35.0491 5.95117 32.0389L6.99743 5.73211C6.99743 2.72189 9.35151 0.366058 12.3595 0.366058Z" fill="white"/>
<path d="M12.3595 0.366058L40.8701 4.16156C43.7473 4.16156 46.2321 6.51739 46.2321 9.52761L44.6628 35.3108C44.6628 38.1902 42.3087 40.6769 39.3007 40.6769L11.3132 37.4049C8.43604 37.4049 5.95117 35.0491 5.95117 32.0389L6.99743 5.73211C6.99743 2.72189 9.35151 0.366058 12.3595 0.366058Z" fill="white"/>
<mask id="mask0_663_259" style="mask-type:luminance" maskUnits="userSpaceOnUse" x="5" y="0" width="42" height="41">
<path d="M12.3595 0.366058L40.8701 4.16156C43.7473 4.16156 46.2321 6.51739 46.2321 9.52761L44.6628 35.3108C44.6628 38.1902 42.3087 40.6769 39.3007 40.6769L11.3132 37.4049C8.43604 37.4049 5.95117 35.0491 5.95117 32.0389L6.99743 5.73211C6.99743 2.72189 9.35151 0.366058 12.3595 0.366058Z" fill="white"/>
</mask>
<g mask="url(#mask0_663_259)">
<path d="M-14.3198 10.9673H58.9184L49.8944 51.6708H-23.3438L-14.3198 10.9673Z" fill="white"/>
<path d="M61.534 19.998L49.1097 13.454L-0.326066 19.998L-3.46484 -2.25153L57.349 -6.04703L61.534 19.998Z" fill="white"/>
<path d="M53.6874 16.4642L51.7256 16.2025C45.7097 15.4172 39.5629 16.5951 34.3316 19.6053L32.5006 20.6524C30.2773 21.9612 27.7925 22.8773 25.3076 23.5317L20.3379 24.7096C17.3299 25.364 12.8833 25.7567 9.74448 25.364L0.458933 24.1861C-0.587326 24.0552 -1.63359 23.9243 -2.67985 23.6626L-8.9574 22.2229C-13.0117 21.3068 -16.8043 19.4745 -20.0739 16.8569L-24.5205 13.3231L-22.0356 13.8466C-20.8586 14.1084 -19.8123 14.3702 -18.6353 14.6319L-17.4583 15.0246C-15.3657 15.679 -13.1424 16.0716 -10.7884 16.2025L3.33615 17.1186L10.2676 17.773C13.9295 18.1657 17.4607 17.773 20.9918 16.726L29.885 14.1084L33.1545 13.1922C39.9552 11.2291 47.4098 12.0143 53.6874 15.2863V16.4642Z" fill="white"/>
<path d="M36.293 19.8671L20.4684 29.0286C20.3376 29.0286 20.3376 29.1595 20.2068 29.1595C18.6374 29.683 17.3296 30.2065 16.0218 30.3374C12.0983 30.8609 8.04403 30.8609 3.98977 30.3374H3.85899C2.94351 30.3374 2.02804 30.2065 1.11256 30.0757L-8.04221 26.2802L-7.64986 30.3374H-23.3438V28.636H-7.64986L-8.17299 24.5787L1.24334 28.3742C2.02803 28.5051 2.81273 28.636 3.72821 28.636C7.65168 29.1595 11.7059 29.2904 15.7602 28.7669H15.891C17.4604 28.636 19.0297 28.2434 20.4684 27.589L35.6391 18.4274C36.9469 17.6421 38.3855 16.0716 39.8242 16.0716L46.1017 15.0245L53.5563 15.6789C50.5483 12.7996 45.4478 15.2863 39.6934 17.9039" fill="white"/>
</g>
<path d="M66.6335 26.9346V31.908C66.6335 32.3006 66.3719 32.5624 65.9796 32.5624H61.1406C60.7483 32.5624 60.4867 32.3006 60.4867 31.908V26.9346H51.8551C51.4627 26.9346 51.2012 26.6728 51.2012 26.2802V22.7464C51.2012 22.3538 51.4627 22.092 51.8551 22.092H75.2651C75.6575 22.092 75.919 22.3538 75.919 22.7464V26.2802C75.919 26.8037 75.6575 26.9346 75.2651 26.9346H66.6335ZM58.2634 14.7628H74.3497C74.742 14.7628 75.0036 15.0245 75.0036 15.4172V19.0818C75.0036 19.4744 74.742 19.7362 74.3497 19.7362H52.7706C52.509 19.7362 52.3782 19.7362 52.2474 19.6053C52.1167 19.4744 52.1166 19.3436 52.1166 19.0818V7.43354C52.1166 7.0409 52.3782 6.77914 52.7706 6.77914H57.7403C58.1326 6.77914 58.3942 7.0409 58.3942 7.43354C58.2634 7.56442 58.2634 14.7628 58.2634 14.7628Z" fill="black"/>
<path d="M81.1308 31.6054V18.2557C81.1308 17.863 81.3923 17.6013 81.7847 17.6013H90.5471V12.2352H81.6539C81.2616 12.2352 81 11.9735 81 11.5808V8.30885C81 7.91622 81.2616 7.65446 81.6539 7.65446H95.6476C96.04 7.65446 96.3015 7.91622 96.3015 8.30885V21.2659C96.3015 21.6585 96.04 21.9203 95.6476 21.9203H86.7544V27.679H90.1548C91.8549 27.679 93.5551 27.5481 95.2553 27.2864C96.9555 27.0246 98.3941 26.632 99.5711 25.9776V7.65446C99.5711 7.26182 99.8327 7.00006 100.225 7.00006H104.672C105.064 7.00006 105.326 7.26182 105.326 7.65446V31.998C105.326 32.3906 105.064 32.6524 104.672 32.6524H100.225C99.8327 32.6524 99.5711 32.3906 99.5711 31.998V30.0348C98.5248 30.6892 97.0862 31.2127 95.3861 31.6054C93.6859 31.998 91.7242 32.1289 89.5009 32.1289H81.6539C81.2616 32.2598 81.1308 31.998 81.1308 31.6054Z" fill="black"/>
<path d="M112.931 20.5215C112.539 20.5215 112.277 20.2597 112.277 19.8671V17.5113C112.277 17.1186 112.539 16.8569 112.931 16.8569C114.5 16.726 115.939 16.5951 117.116 16.3333C118.293 16.0716 119.339 15.5481 120.124 14.8937L112.277 15.1554C111.885 15.1554 111.623 14.8937 111.623 14.501V12.5378C111.623 12.1452 111.885 11.8834 112.277 11.8834H121.693C121.824 11.4908 121.824 10.9673 121.824 10.4438H112.539C112.146 10.4438 111.885 10.182 111.885 9.78938V7.43355C111.885 7.04091 112.146 6.77915 112.539 6.77915H127.186C127.579 6.77915 127.84 7.04091 127.84 7.43355V10.0511C127.84 12.0143 127.448 13.7158 126.532 15.0246C125.617 16.3333 124.571 17.3804 123.132 18.1657C121.693 18.9509 120.124 19.4745 118.424 19.8671C116.593 20.2597 114.762 20.3906 112.931 20.5215ZM113.454 32.0389C113.062 32.0389 112.8 31.7771 112.8 31.3845V21.9612C112.8 21.5685 113.062 21.3068 113.454 21.3068H118.031C118.424 21.3068 118.685 21.5685 118.685 21.9612V28.3742H129.933V26.5419H120.255C119.862 26.5419 119.601 26.2802 119.601 25.8875V23.6626C119.601 23.27 119.862 23.0082 120.255 23.0082H129.933V21.9612C129.933 21.5685 130.194 21.3068 130.586 21.3068H135.033C135.425 21.3068 135.687 21.5685 135.687 21.9612V31.3845C135.687 31.7771 135.425 32.0389 135.033 32.0389C134.902 32.0389 113.454 32.0389 113.454 32.0389ZM130.456 19.7362C130.063 19.7362 129.802 19.4744 129.802 19.0818V7.17179C129.802 6.77915 130.063 6.5174 130.456 6.5174H134.902C135.295 6.5174 135.556 6.77915 135.556 7.17179V10.5747H136.995C137.387 10.5747 137.649 10.8364 137.649 11.2291V14.8937C137.649 15.2863 137.387 15.5481 136.995 15.5481H135.556V19.0818C135.556 19.4744 135.295 19.7362 134.902 19.7362H130.456Z" fill="black"/>
<path d="M142.88 31.5153C142.488 31.5153 142.227 31.2536 142.227 30.861V27.3272C142.227 26.9346 142.488 26.6728 142.88 26.6728H166.291C166.683 26.6728 166.944 26.9346 166.944 27.3272V30.861C166.944 31.3845 166.683 31.5153 166.291 31.5153H142.88ZM149.943 22.4847C149.812 22.6156 149.681 22.7464 149.681 22.8773C149.681 23.0082 149.42 23.0082 149.158 23.0082H143.273C143.011 23.0082 142.88 22.8773 142.75 22.7464C142.619 22.6156 142.619 22.4847 142.88 22.2229L153.212 7.43355C153.343 7.30267 153.474 7.17179 153.605 7.04091C153.735 6.91003 153.866 6.91003 153.997 6.91003H160.275C160.536 6.91003 160.667 7.04091 160.798 7.17179C160.928 7.30267 160.798 7.56443 160.667 7.69531L149.943 22.4847ZM155.174 17.773C154.912 17.5113 155.043 17.1186 155.305 16.8569L158.051 13.0614C158.313 12.6687 158.574 12.6687 158.836 13.0614L166.683 22.2229C166.814 22.3538 166.814 22.6156 166.814 22.7464C166.683 22.8773 166.552 23.0082 166.291 23.0082H160.144C160.013 23.0082 159.751 23.0082 159.621 22.8773C159.49 22.7464 159.359 22.6156 159.359 22.4847L155.174 17.773Z" fill="black"/>
<path d="M51.7247 45.9121C51.7247 46.043 51.7247 46.043 51.7247 45.9121L50.2861 46.043C50.1553 46.043 50.1553 46.043 50.1553 45.9121V40.0225C50.1553 39.8916 50.1553 39.8916 50.2861 39.8916H51.5939C51.7247 39.8916 51.7247 39.8916 51.7247 40.0225V42.1166L53.0325 40.0225C53.0325 40.0225 53.0325 39.8916 53.1633 39.8916H53.2941H54.8634H54.9942V40.0225L51.7247 44.7342V45.9121ZM53.4248 46.043C53.2941 46.043 53.2941 46.043 53.4248 46.043L52.3786 44.3415C52.3786 44.3415 52.3786 44.3415 52.3786 44.2106V44.0798L53.1633 42.9019C53.2941 42.771 53.2941 42.771 53.4248 42.9019L55.125 45.7812C55.125 45.9121 55.125 45.9121 54.9942 45.9121L53.4248 46.043Z" fill="black"/>
<path d="M57.4795 41.7239V43.818C57.4795 44.0798 57.6103 44.3415 57.6103 44.4724C57.8718 44.7342 58.0026 44.7342 58.3949 44.7342C58.7873 44.7342 58.9181 44.6033 59.0489 44.4724C59.1796 44.3415 59.3104 44.0798 59.3104 43.818V42.5092C59.3104 42.2475 59.3104 42.1166 59.3104 41.9857C59.3104 41.8548 59.1796 41.7239 59.0489 41.5931C58.9181 41.4622 58.7873 41.4622 58.6565 41.3313C58.5257 41.2004 58.2642 41.2004 58.0026 41.2004H56.1716C56.0409 41.2004 56.0409 41.2004 56.0409 41.0695V40.0225C56.0409 39.8916 56.0409 39.8916 56.1716 39.8916H58.0026C58.5257 39.8916 59.0489 39.8916 59.3104 40.0225C59.572 40.1534 59.9643 40.2843 60.2259 40.4152C60.4875 40.546 60.6182 40.9387 60.749 41.2004C60.8798 41.4622 60.8798 41.8548 60.8798 42.3783V43.818C60.8798 44.2107 60.749 44.6033 60.749 44.865C60.749 45.1268 60.4875 45.3886 60.2259 45.5194C59.9643 45.9121 59.7028 46.043 59.3104 46.043C59.0489 46.1738 58.6565 46.1738 58.2642 46.1738C57.8718 46.1738 57.6102 46.1738 57.2179 46.043C56.9563 45.9121 56.6948 45.7812 56.4332 45.6503C56.1716 45.5194 56.0409 45.2577 55.9101 44.9959C55.7793 44.7342 55.7793 44.3415 55.7793 43.9489V41.8548C55.7793 41.7239 55.7793 41.7239 55.9101 41.7239H57.2179C57.4795 41.5931 57.4795 41.5931 57.4795 41.7239Z" fill="black"/>
<path d="M64.9338 42.1166C64.9338 41.8548 64.803 41.5931 64.6722 41.4622C64.5414 41.3313 64.2799 41.3313 63.8875 41.3313H62.0566C61.9258 41.3313 61.9258 41.3313 61.9258 41.2004V40.1534C61.9258 40.0225 61.9258 40.0225 62.0566 40.0225H63.8875C64.6722 40.0225 65.3261 40.1534 65.8493 40.546C66.2416 40.9387 66.5032 41.4622 66.5032 42.1166C66.5032 42.5092 66.3724 42.771 66.2416 43.0327C66.1108 43.2945 65.98 43.5563 65.7185 43.6871L66.7647 45.7812C66.7647 45.9121 66.7647 45.9121 66.634 45.9121H65.1953C65.0646 45.9121 65.0646 45.9121 65.0646 45.7812L64.4106 44.0798C64.2799 44.0798 64.1491 44.0798 64.0183 44.0798H63.8875H63.7567V45.6503C63.7567 45.7812 63.7567 45.7812 63.626 45.7812H62.3181C62.1874 45.7812 62.1874 45.7812 62.1874 45.6503V41.4622C62.1874 41.3313 62.1874 41.3313 62.3181 41.3313H63.626C63.7567 41.3313 63.7567 41.3313 63.7567 41.4622V42.6401H63.8875H64.0183C64.4107 42.6401 64.6722 42.6401 64.803 42.5092C64.9338 42.6401 64.9338 42.3783 64.9338 42.1166Z" fill="black"/>
<path d="M67.8105 41.2004C67.6797 41.2004 67.6797 41.2004 67.8105 41.2004L67.6797 40.0225C67.6797 39.8916 67.6797 39.8916 67.8105 39.8916H71.4724C71.6032 39.8916 71.6032 39.8916 71.6032 40.0225V41.0695C71.6032 41.2004 71.6032 41.2004 71.4724 41.2004H67.8105ZM67.9413 46.043C67.8105 46.043 67.8105 46.043 67.9413 46.043L67.8105 41.7239C67.8105 41.5931 67.8105 41.5931 67.9413 41.5931H69.2491C69.3799 41.5931 69.3799 41.5931 69.3799 41.7239V42.3783H71.08C71.2108 42.3783 71.2108 42.3783 71.2108 42.5092V43.4254C71.2108 43.5563 71.2108 43.5563 71.08 43.5563H69.3799V44.7342H71.4724C71.6032 44.7342 71.6032 44.7342 71.6032 44.865V45.9121C71.6032 46.043 71.6032 46.043 71.4724 46.043H67.9413Z" fill="black"/>
<path d="M74.3496 45.9121C74.3496 46.043 74.2188 46.043 74.088 46.043H72.7802H72.6494V45.9121L74.4804 40.0225C74.4804 39.8916 74.6112 39.8916 74.6112 39.8916H75.6574C75.7882 39.8916 75.7882 39.8916 75.7882 40.0225C75.919 40.0225 74.3496 45.9121 74.3496 45.9121ZM76.5729 46.043C76.4421 46.043 76.4421 46.043 76.5729 46.043L76.1805 45.1268H74.8727H74.7419V44.9959L75.0035 43.9489C75.0035 43.818 75.1343 43.818 75.1343 43.818H75.6574L75.3958 42.6401C75.3958 42.6401 75.3958 42.5092 75.3958 42.3783L75.919 40.2843C75.919 40.1534 75.919 40.1534 76.0498 40.1534C76.1805 40.1534 76.1805 40.1534 76.1805 40.2843L78.0115 45.9121C78.0115 46.043 78.0115 46.043 77.8807 46.043H76.5729Z" fill="black"/>
<path d="M84.4201 42.1166C84.4201 41.8548 84.2893 41.5931 84.1585 41.4622C84.0278 41.3313 83.7662 41.2004 83.3738 41.2004H81.5429C81.4121 41.2004 81.4121 41.2004 81.4121 41.0695V40.0225C81.4121 39.8916 81.4121 39.8916 81.5429 39.8916H83.3738C84.1585 39.8916 84.8125 40.0225 85.3356 40.4152C85.7279 40.8078 85.9895 41.3313 85.9895 41.9857V42.1166C85.9895 42.5092 85.9895 42.771 85.8587 43.0327C85.7279 43.2945 85.5971 43.5563 85.3356 43.6871C85.074 43.9489 84.8125 44.0798 84.5509 44.0798C84.2893 44.0798 83.897 44.2106 83.5046 44.2106H83.2431H83.1123V45.6503C83.1123 45.7812 83.1123 45.7812 82.9815 45.7812H81.6737C81.5429 45.7812 81.5429 45.7812 81.5429 45.6503V41.4622C81.5429 41.3313 81.5429 41.3313 81.6737 41.3313H82.9815C83.1123 41.3313 83.1123 41.3313 83.1123 41.4622V42.771H83.2431H83.3738C83.7662 42.771 84.0278 42.771 84.1585 42.5092C84.2893 42.2475 84.4201 42.5092 84.4201 42.1166Z" fill="black"/>
<path d="M88.7363 41.7239V43.818C88.7363 44.0798 88.8671 44.3415 88.8671 44.4724C88.8671 44.6033 89.2594 44.7342 89.521 44.7342C89.7826 44.7342 90.0441 44.6033 90.1749 44.4724C90.3057 44.3415 90.4365 44.0798 90.4365 43.818V42.5092C90.4365 42.2475 90.4365 42.1166 90.4365 41.9857C90.4365 41.8548 90.3057 41.7239 90.1749 41.5931C90.0441 41.4622 89.9133 41.4622 89.7826 41.3313C89.6518 41.2004 89.3902 41.2004 89.1286 41.2004H87.1669C87.0361 41.2004 87.0361 41.2004 87.0361 41.0695V40.0225C87.0361 39.8916 87.0361 39.8916 87.1669 39.8916H88.9979C89.521 39.8916 90.0441 39.8916 90.3057 40.0225C90.5673 40.1534 90.9596 40.2843 91.2212 40.4152C91.4827 40.546 91.6135 40.9387 91.7443 41.2004C91.8751 41.4622 91.8751 41.8548 91.8751 42.3783V43.818C91.8751 44.2107 91.8751 44.6033 91.7443 44.865C91.6135 45.1268 91.4827 45.3886 91.2212 45.5194C90.9596 45.6503 90.698 45.7812 90.4365 45.9121C90.1749 46.043 89.7826 46.043 89.3902 46.043C88.9979 46.043 88.7363 46.043 88.344 45.9121C88.0824 45.7812 87.8208 45.6503 87.5593 45.5194C87.2977 45.3886 87.1669 45.1268 87.0361 44.865C87.2977 44.7342 87.1669 44.3415 87.1669 43.818V41.7239C87.1669 41.5931 87.1669 41.5931 87.2977 41.5931L88.7363 41.7239C88.7363 41.5931 88.7363 41.5931 88.7363 41.7239Z" fill="black"/>
<path d="M93.3135 45.9121V40.0225C93.3135 39.8916 93.3135 39.8916 93.4443 39.8916H94.7521C94.8829 39.8916 94.8829 39.8916 94.8829 40.0225V44.4724H96.7138C96.8446 44.4724 96.8446 44.4724 96.8446 44.6033V45.7812C96.8446 45.9121 96.8446 45.9121 96.7138 45.9121H93.3135C93.3135 46.043 93.3135 46.043 93.3135 45.9121Z" fill="black"/>
<path d="M99.4601 46.043H98.1523C98.0215 46.043 98.0215 46.043 98.0215 45.9121V40.0225C98.0215 39.8916 98.0215 39.8916 98.1523 39.8916H99.4601C99.5909 39.8916 99.5909 39.8916 99.5909 40.0225L99.4601 46.043C99.7217 46.043 99.5909 46.043 99.4601 46.043Z" fill="black"/>
<path d="M105.737 43.9489C105.737 44.3415 105.607 44.7342 105.607 44.9959C105.607 45.2577 105.345 45.5194 105.083 45.6503C104.822 45.7812 104.56 45.9121 104.299 46.043C104.037 46.043 103.645 46.1738 103.383 46.1738C103.122 46.1738 102.729 46.1738 102.337 46.043C102.075 45.9121 101.814 45.7812 101.552 45.6503C101.291 45.5194 101.16 45.2577 101.029 44.9959C100.898 44.7342 100.898 44.3415 100.898 43.9489V42.1166C100.898 41.7239 100.898 41.3313 101.029 41.0695C101.16 40.8078 101.291 40.546 101.552 40.4152C101.814 40.2843 102.075 40.1534 102.337 40.0225C102.599 39.8916 102.991 39.8916 103.383 39.8916C103.776 39.8916 104.037 39.8916 104.43 40.0225C104.822 40.1534 104.953 40.2843 105.214 40.4152C105.476 40.546 105.607 40.8078 105.737 41.0695C105.868 41.3313 105.868 41.7239 105.868 42.1166C105.868 42.2475 105.868 42.2475 105.737 42.2475H104.43C104.299 42.2475 104.299 42.2475 104.299 42.1166V41.9857C104.299 41.7239 104.168 41.4622 104.168 41.3313C104.168 41.2004 103.776 41.0695 103.514 41.0695C103.253 41.0695 102.991 41.2004 102.86 41.3313C102.729 41.4622 102.599 41.7239 102.599 41.9857V43.9489C102.599 44.2107 102.729 44.4724 102.86 44.6033C102.991 44.7342 103.253 44.865 103.514 44.865C103.776 44.865 104.037 44.7342 104.168 44.6033C104.299 44.4724 104.299 44.2107 104.299 43.9489V43.818C104.299 43.6871 104.299 43.6871 104.43 43.6871H105.737C105.868 43.6871 105.868 43.6871 105.868 43.818V43.9489H105.737Z" fill="black"/>
<path d="M106.915 41.2004C106.784 41.2004 106.784 41.2004 106.915 41.2004L106.784 40.0225C106.784 39.8916 106.784 39.8916 106.915 39.8916H110.577C110.708 39.8916 110.708 39.8916 110.708 40.0225V41.0695C110.708 41.2004 110.708 41.2004 110.577 41.2004H106.915ZM107.177 46.043C107.046 46.043 107.046 46.043 107.177 46.043L107.046 41.7239C107.046 41.5931 107.046 41.5931 107.177 41.5931H108.484C108.615 41.5931 108.615 41.5931 108.615 41.7239V42.3783H110.315C110.446 42.3783 110.446 42.3783 110.446 42.5092V43.4254C110.446 43.5563 110.446 43.5563 110.315 43.5563H108.615V44.7342H110.708C110.838 44.7342 110.838 44.7342 110.838 44.865V45.9121C110.838 46.043 110.838 46.043 110.708 46.043H107.177Z" fill="black"/>
<path d="M119.077 43.9489C119.077 44.3415 118.946 44.7342 118.946 44.9959C118.946 45.2577 118.685 45.5194 118.423 45.6503C118.162 45.7812 117.9 45.9121 117.639 46.043C117.377 46.043 116.985 46.1738 116.723 46.1738C116.462 46.1738 116.069 46.1738 115.677 46.043C115.415 45.9121 115.154 45.7812 114.892 45.6503C114.631 45.5194 114.5 45.2577 114.369 44.9959C114.238 44.7342 114.238 44.3415 114.238 43.9489V42.1166C114.238 41.7239 114.238 41.3313 114.369 41.0695C114.5 40.8078 114.631 40.546 114.892 40.4152C115.154 40.2843 115.415 40.1534 115.677 40.0225C115.938 39.8916 116.331 39.8916 116.723 39.8916C117.115 39.8916 117.377 39.8916 117.769 40.0225C118.162 40.1534 118.293 40.2843 118.554 40.4152C118.816 40.546 118.946 40.8078 119.077 41.0695C119.208 41.3313 119.208 41.7239 119.208 42.1166C119.208 42.2475 119.208 42.2475 119.077 42.2475H117.769C117.639 42.2475 117.639 42.2475 117.639 42.1166V41.9857C117.639 41.7239 117.508 41.4622 117.508 41.3313C117.508 41.2004 117.115 41.0695 116.854 41.0695C116.592 41.0695 116.331 41.2004 116.2 41.3313C116.069 41.4622 115.938 41.7239 115.938 41.9857V43.9489C115.938 44.2107 116.069 44.4724 116.2 44.6033C116.331 44.7342 116.592 44.865 116.854 44.865C117.115 44.865 117.377 44.7342 117.508 44.6033C117.639 44.4724 117.639 44.2107 117.639 43.9489V43.818C117.639 43.6871 117.639 43.6871 117.769 43.6871H119.077C119.208 43.6871 119.208 43.6871 119.208 43.818V43.9489H119.077Z" fill="black"/>
<path d="M121.955 41.7239V43.818C121.955 44.0798 122.086 44.3415 122.086 44.4724C122.086 44.6033 122.478 44.7342 122.74 44.7342C123.001 44.7342 123.263 44.6033 123.394 44.4724C123.524 44.3415 123.655 44.0798 123.655 43.818V42.5092C123.655 42.2475 123.655 42.1166 123.655 41.9857C123.655 41.8548 123.524 41.7239 123.394 41.5931C123.263 41.4622 123.132 41.4622 123.001 41.3313C122.871 41.2004 122.609 41.2004 122.347 41.2004H120.516C120.386 41.2004 120.386 41.2004 120.386 41.0695V40.0225C120.386 39.8916 120.386 39.8916 120.516 39.8916H122.347C122.871 39.8916 123.394 39.8916 123.655 40.0225C123.917 40.1534 124.309 40.2843 124.571 40.4152C124.832 40.546 124.963 40.9387 125.094 41.2004C125.225 41.4622 125.225 41.8548 125.225 42.3783V43.818C125.225 44.2107 125.225 44.6033 125.094 44.865C124.963 45.1268 124.832 45.3886 124.571 45.5194C124.309 45.6503 124.048 45.7812 123.786 45.9121C123.524 46.043 123.132 46.043 122.74 46.043C122.347 46.043 122.086 46.043 121.693 45.9121C121.432 45.7812 121.17 45.6503 120.909 45.5194C120.647 45.3886 120.516 45.1268 120.386 44.865C120.255 44.6033 120.255 44.2107 120.255 43.818V41.7239C120.255 41.5931 120.255 41.5931 120.386 41.5931H121.693C121.824 41.5931 121.955 41.5931 121.955 41.7239Z" fill="black"/>
<path d="M129.409 43.6871L130.717 40.0225V39.8916H130.848H132.156C132.286 39.8916 132.286 39.8916 132.286 40.0225V45.9121C132.286 46.043 132.286 46.043 132.156 46.043H130.979C130.848 46.043 130.848 46.043 130.848 45.9121V43.2945L129.932 45.5194V45.6503H129.802H128.755H128.625C128.625 45.6503 128.625 45.6503 128.625 45.5194L126.271 40.0225V39.8916H126.401H127.709C127.84 39.8916 127.84 39.8916 127.84 40.0225L129.409 43.6871ZM126.401 41.2004C126.532 41.0695 126.663 41.0695 126.663 41.2004L127.84 44.0798V44.2106V44.3415V45.9121C127.84 46.043 127.84 46.043 127.709 46.043H126.532C126.401 46.043 126.401 46.043 126.401 45.9121V41.2004Z" fill="black"/>
<path d="M136.864 43.6871L138.172 40.0225V39.8916H138.303H139.611C139.742 39.8916 139.742 39.8916 139.742 40.0225V45.9121C139.742 46.043 139.742 46.043 139.611 46.043H138.434C138.303 46.043 138.303 46.043 138.303 45.9121V43.2945L137.387 45.5194V45.6503H137.257H136.21H136.08C136.08 45.6503 136.08 45.6503 136.08 45.5194L133.726 40.0225V39.8916H133.856H135.164C135.295 39.8916 135.295 39.8916 135.295 40.0225L136.864 43.6871ZM133.726 41.2004C133.856 41.0695 133.987 41.0695 133.987 41.2004L135.164 44.0798V44.2106V44.3415V45.9121C135.164 46.043 135.164 46.043 135.033 46.043H133.856C133.726 46.043 133.726 46.043 133.726 45.9121V41.2004Z" fill="black"/>
<path d="M145.888 43.818C145.888 44.2107 145.888 44.6033 145.757 44.865C145.626 45.1268 145.495 45.3886 145.234 45.5194C144.972 45.6503 144.711 45.7812 144.449 45.9121C144.188 46.043 143.795 46.043 143.534 46.043C143.272 46.043 142.88 46.043 142.618 45.9121C142.357 45.7812 142.095 45.6503 141.834 45.5194C141.572 45.3886 141.441 45.1268 141.31 44.865C141.18 44.6033 141.18 44.2107 141.18 43.818V40.0225C141.18 39.8916 141.18 39.8916 141.31 39.8916H142.618C142.749 39.8916 142.749 39.8916 142.749 40.0225V43.9489C142.749 44.2107 142.88 44.4724 142.88 44.6033C142.88 44.7342 143.141 44.865 143.534 44.865C143.926 44.865 144.057 44.7342 144.188 44.6033C144.318 44.4724 144.318 44.2107 144.318 43.9489V40.0225C144.318 39.8916 144.318 39.8916 144.449 39.8916H145.757C145.888 39.8916 145.888 39.8916 145.888 40.0225V43.818Z" fill="black"/>
<path d="M147.196 40.1534L147.327 40.0225H148.766C148.896 40.0225 148.896 40.0225 148.896 40.1534L150.466 43.2945V40.1534C150.466 40.0225 150.466 40.0225 150.597 40.0225H151.774C151.904 40.0225 151.904 40.0225 151.904 40.1534V46.043H151.774H150.466C150.335 46.043 150.335 46.043 150.335 45.9121L147.196 40.1534ZM147.196 40.9387C147.327 40.8078 147.458 40.8078 147.458 40.9387L148.766 43.2945V43.4254V43.5563V45.9121C148.766 46.043 148.766 46.043 148.635 46.043H147.458C147.327 46.043 147.327 46.043 147.327 45.9121C147.196 45.9121 147.196 40.9387 147.196 40.9387Z" fill="black"/>
<path d="M154.912 46.043H153.604C153.474 46.043 153.474 46.043 153.474 45.9121V40.0225C153.474 39.8916 153.474 39.8916 153.604 39.8916H154.912C155.043 39.8916 155.043 39.8916 155.043 40.0225V45.9121C155.043 46.043 155.043 46.043 154.912 46.043Z" fill="black"/>
<path d="M156.22 41.4622C156.089 41.4622 156.089 41.4622 156.089 41.3313V40.1534C156.089 40.0225 156.089 40.0225 156.22 40.0225H160.274C160.405 40.0225 160.405 40.0225 160.405 40.1534V41.3313C160.405 41.4622 160.405 41.4622 160.274 41.4622H156.22ZM159.097 45.9121C159.097 46.043 159.097 46.043 158.966 46.043H157.658C157.527 46.043 157.527 46.043 157.527 45.9121V41.724C157.527 41.5931 157.527 41.5931 157.658 41.5931H158.966C159.097 41.5931 159.097 41.5931 159.097 41.724V45.9121Z" fill="black"/>
<path d="M164.721 45.9121C164.721 46.043 164.721 46.0429 164.59 46.0429H163.282C163.151 46.0429 163.151 46.043 163.151 45.9121V44.0798L161.451 40.1534V40.0225H161.582H163.021C163.151 40.0225 163.151 40.0225 163.151 40.1534L164.721 44.3415C164.721 44.4724 164.721 44.4724 164.721 44.6033C164.721 44.4724 164.721 45.9121 164.721 45.9121ZM166.29 39.8916C166.421 39.8916 166.421 39.8916 166.421 40.0225L164.852 43.5562L164.721 43.6871C164.721 43.6871 164.59 43.6871 164.59 43.5562L163.936 41.9857C163.936 41.8548 163.936 41.8548 163.936 41.7239L164.59 39.8916C164.59 39.7607 164.721 39.7607 164.721 39.7607L166.29 39.8916Z" fill="black"/>
<mask id="mask1_663_259" style="mask-type:luminance" maskUnits="userSpaceOnUse" x="0" y="3" width="42" height="41">
<path d="M7.12806 3.11453L35.6386 6.91003C38.5158 6.91003 41.0007 9.26586 41.0007 12.2761L39.4313 38.0593C39.4313 40.9387 37.0772 43.4254 34.0692 43.4254L6.08181 40.1534C3.20459 40.1534 0.719727 37.7976 0.719727 34.7873L1.76599 8.48059C1.76599 5.47036 4.12007 3.11453 7.12806 3.11453Z" fill="white"/>
</mask>
<g mask="url(#mask1_663_259)">
<path d="M-19.5512 13.5849H53.6869L44.663 54.2883H-28.5752L-19.5512 13.5849Z" fill="#B0B0B0"/>
<path d="M56.3026 22.7464L43.8782 16.2025L-5.55751 22.7464L-8.69629 0.496947L52.1175 -3.29855L56.3026 22.7464Z" fill="#4E4E4E"/>
<path d="M48.4559 19.2127L46.4942 18.9509C40.4782 18.1657 34.3314 19.3436 29.1001 22.3538L27.2692 23.4008C25.0459 24.7096 22.561 25.6258 20.0761 26.2802L15.1064 27.4581C12.0984 28.1125 7.65182 28.5051 4.51304 28.1125L-4.77251 26.9346C-5.81877 26.8037 -6.86503 26.6728 -7.91129 26.4111L-14.1888 24.9714C-18.2431 24.0552 -22.0358 22.2229 -25.3054 19.6053L-29.752 16.0716L-27.2671 16.5951C-26.09 16.8569 -25.0438 17.1186 -23.8667 17.3804L-22.6897 17.773C-20.5972 18.4274 -18.3739 18.8201 -16.0198 18.9509L-1.8953 19.8671L5.03617 20.5215C8.69808 20.9141 12.2292 20.5215 15.7603 19.4745L24.6535 16.8569L27.9231 15.9407C34.7238 13.9775 42.1784 14.7628 48.4559 18.0348V19.2127Z" fill="white"/>
<path d="M31.0616 22.6156L15.2369 31.7771C15.1061 31.7771 15.1061 31.908 14.9753 31.908C13.406 32.4315 12.0981 32.955 10.7903 33.0859C6.86683 33.6094 2.81258 33.6094 -1.24167 33.0859H-1.37246C-2.28793 33.0859 -3.20341 32.955 -4.11889 32.8241L-13.2737 29.0286L-12.8813 33.0859H-28.5752V31.3845H-12.8813L-13.4044 27.3272L-3.9881 31.1227C-3.20341 31.2536 -2.41871 31.3845 -1.50324 31.3845C2.42023 31.908 6.47449 32.0389 10.5287 31.5153H10.6595C12.2289 31.3845 13.7983 30.9918 15.2369 30.3374L30.4077 21.1759C31.7155 20.3906 33.1541 18.8201 34.5927 18.8201L40.8703 17.773L48.3249 18.4274C45.3169 15.5481 40.2163 18.0348 34.4619 20.6524" fill="white"/>
</g>
</svg>
