<svg width="258" height="95" viewBox="0 0 258 95" fill="none" xmlns="http://www.w3.org/2000/svg">
<path d="M224.808 94.9999H33.192C14.8616 94.9999 0 76.5314 0 53.7467C0 30.9675 14.8616 12.499 33.192 12.499H224.808C243.138 12.499 258 30.9675 258 53.7467C258 76.5258 243.138 94.9944 224.808 94.9944V94.9999Z" fill="#CCCCCC"/>
<path d="M224.808 82.5009H33.192C14.8616 82.5009 0 64.0324 0 41.2477C0 18.4685 14.8616 0 33.192 0H224.808C243.138 0 258 18.4685 258 41.2477C258 64.0268 243.138 82.4953 224.808 82.4953V82.5009Z" fill="#FF6B03"/>
<g style="mix-blend-mode:multiply">
<path d="M224.808 70.6228H33.192C16.4866 70.6228 2.70536 55.2722 0.383929 35.3113C0.15625 37.253 0 39.228 0 41.2474C0 64.0265 14.8616 82.4951 33.192 82.4951H224.808C243.138 82.4951 258 64.0265 258 41.2474C258 39.228 257.844 37.253 257.616 35.3113C255.295 55.2722 241.509 70.6228 224.804 70.6228H224.808Z" fill="#FF6B03"/>
</g>
<path d="M44.8477 62.8135C60.7107 62.8135 73.5703 50.5621 73.5703 35.4493C73.5703 20.3365 60.7107 8.08521 44.8477 8.08521C28.9846 8.08521 16.125 20.3365 16.125 35.4493C16.125 50.5621 28.9846 62.8135 44.8477 62.8135Z" fill="white"/>
<path fill-rule="evenodd" clip-rule="evenodd" d="M45.415 25.3506C47.7247 25.3786 49.9348 26.2355 51.5794 27.7533C53.2239 29.2654 54.1771 31.3153 54.2347 33.4716V33.7852L54.109 43.5024L55.5964 43.5192C55.9735 43.5192 56.3401 43.6648 56.6124 43.9113C56.8848 44.1577 57.0471 44.4937 57.0629 44.8466C57.0786 45.1994 56.9529 45.5467 56.7067 45.8155C56.4606 46.0843 56.1097 46.2524 55.7326 46.2916H55.5597L45.1427 46.1795L34.7256 46.0619C34.3485 46.0619 33.9819 45.9163 33.7095 45.6699C33.4372 45.4235 33.2748 45.0874 33.2591 44.7346C33.2434 44.3817 33.3691 44.0345 33.6153 43.7656C33.8614 43.4968 34.2123 43.3288 34.5894 43.2896H34.7622L36.2496 43.3008L36.3753 33.5836C36.4068 31.3769 37.3704 29.2654 39.0673 27.7253C40.7642 26.1851 43.0477 25.3282 45.415 25.3562V25.3506ZM44.0481 32.2562L41.7855 35.6782C41.6441 35.8911 41.5708 36.1319 41.5603 36.3783C41.5551 36.6248 41.6179 36.8712 41.7436 37.0896C41.8693 37.308 42.0579 37.4873 42.2883 37.6161C42.5188 37.7449 42.7754 37.8121 43.0425 37.8177L44.8546 37.8401L43.959 39.1955C43.76 39.5091 43.7024 39.8844 43.7914 40.2372C43.8857 40.5901 44.1214 40.8981 44.4566 41.0885C44.7865 41.2789 45.1898 41.3405 45.5669 41.2621C45.9492 41.1837 46.2792 40.9653 46.4887 40.6573L48.7512 37.2352C48.8926 37.0224 48.9659 36.7816 48.9764 36.5352C48.9816 36.2887 48.9188 36.0423 48.7931 35.8239C48.6674 35.6054 48.4788 35.4262 48.2484 35.2974C48.018 35.1686 47.7613 35.1014 47.4942 35.0958L45.6821 35.0734L46.5777 33.718C46.7767 33.4044 46.8343 33.0291 46.7453 32.6763C46.651 32.3234 46.4153 32.0154 46.0801 31.825C45.7502 31.6345 45.3469 31.5729 44.9698 31.6513C44.5875 31.7298 44.2576 31.9482 44.0481 32.2562ZM35.8359 22.6566L35.9721 22.7742L37.0091 23.7656C37.2709 24.0176 37.4228 24.3536 37.4281 24.7065C37.4333 25.0593 37.2971 25.401 37.0457 25.6642C36.7943 25.9274 36.4434 26.0899 36.0663 26.1179C35.6893 26.1459 35.3174 26.0394 35.0189 25.821L34.8827 25.7034L33.8457 24.7121C33.5838 24.46 33.432 24.124 33.4267 23.7712C33.4215 23.4183 33.5577 23.0767 33.809 22.8134C34.0604 22.5502 34.4113 22.3878 34.7884 22.3598C35.1655 22.3318 35.5374 22.4382 35.8359 22.6566ZM57.021 23.0151C57.2985 23.2783 57.4504 23.6311 57.4452 24.0008C57.4452 24.3704 57.2776 24.7177 56.9948 24.9753L55.9316 25.9442C55.7902 26.073 55.6278 26.1795 55.4445 26.2523C55.2612 26.3251 55.0674 26.3587 54.8684 26.3587C54.6694 26.3587 54.4756 26.3195 54.2923 26.2467C54.109 26.1739 53.9466 26.0674 53.8052 25.9386C53.6691 25.8042 53.5591 25.653 53.4858 25.4794C53.4124 25.3058 53.3758 25.1265 53.381 24.9417C53.381 24.7569 53.4281 24.5777 53.5067 24.4096C53.5853 24.2416 53.7005 24.0904 53.8471 23.9616L54.9103 22.9927C55.1931 22.735 55.5754 22.595 55.9683 22.6006C56.3611 22.6062 56.7381 22.7574 57.0157 23.0207L57.021 23.0151ZM45.504 18.4113C45.8968 18.4113 46.2739 18.5681 46.5515 18.8313C46.8291 19.0946 46.981 19.4474 46.9757 19.8171L46.96 21.206C46.96 21.5757 46.7924 21.9229 46.5096 22.1806C46.2268 22.4382 45.8445 22.5782 45.4517 22.5726C45.0589 22.5726 44.6818 22.4158 44.4042 22.1526C44.1266 21.8893 43.9747 21.5365 43.98 21.1668L43.9957 19.7779C43.9957 19.4082 44.1633 19.061 44.4461 18.8033C44.7289 18.5457 45.1112 18.4057 45.504 18.4113Z" fill="#FC0400"/>
<path d="M108.224 24.936H111.44V41.136H108.224V24.936ZM96.632 44.208H111.992V46.752H96.632V44.208ZM96.632 39.576H99.824V45.528H96.632V39.576ZM98.168 26.136H100.808V28.296C100.808 32.64 98.816 36.648 94.496 38.16L92.888 35.616C96.608 34.344 98.168 31.248 98.168 28.296V26.136ZM98.816 26.136H101.432V28.296C101.432 31.2 102.944 34.056 106.592 35.232L104.96 37.776C100.76 36.36 98.816 32.592 98.816 28.296V26.136ZM117.102 26.784H131.19V29.352H117.102V26.784ZM115.062 41.88H135.15V44.472H115.062V41.88ZM122.166 34.248H125.358V43.152H122.166V34.248ZM130.038 26.784H133.23V28.92C133.23 31.704 133.23 34.824 132.342 39.576L129.15 39.216C130.038 34.8 130.038 31.584 130.038 28.92V26.784ZM151.372 24.912H154.54V47.136H151.372V24.912ZM153.82 33.576H157.756V36.24H153.82V33.576ZM137.02 28.2H149.956V30.744H137.02V28.2ZM143.524 31.992C146.764 31.992 149.164 34.2 149.164 37.296C149.164 40.392 146.764 42.6 143.524 42.6C140.284 42.6 137.884 40.392 137.884 37.296C137.884 34.2 140.284 31.992 143.524 31.992ZM143.524 34.584C142.012 34.584 140.932 35.592 140.932 37.296C140.932 39 142.012 40.008 143.524 40.008C145.036 40.008 146.116 39 146.116 37.296C146.116 35.592 145.036 34.584 143.524 34.584ZM141.916 25.272H145.108V29.16H141.916V25.272ZM174.506 24.912H177.722V47.136H174.506V24.912ZM167.954 27.216H171.122C171.122 34.008 168.818 39.576 160.922 43.392L159.266 40.848C165.65 37.776 167.954 33.744 167.954 27.792V27.216ZM160.442 27.216H169.466V29.736H160.442V27.216Z" fill="white"/>
</svg>
