<svg width="256" height="95" viewBox="0 0 256 95" fill="none" xmlns="http://www.w3.org/2000/svg">
<path d="M223.065 94.9999H32.9347C14.7464 94.9999 0 75.4938 0 51.429C0 27.3701 14.7464 7.86401 32.9347 7.86401H223.065C241.254 7.86401 256 27.3701 256 51.429C256 75.488 241.254 94.9941 223.065 94.9941V94.9999Z" fill="#CCCCCC"/>
<path d="M223.065 87.1359H32.9347C14.7464 87.1359 0 67.6298 0 43.565C0 19.5061 14.7464 0 32.9347 0H223.065C241.254 0 256 19.5061 256 43.565C256 67.6239 241.254 87.1301 223.065 87.1301V87.1359Z" fill="#FF2D00"/>
<path d="M44.5 67.4097C60.2401 67.4097 73 54.47 73 38.5082C73 22.5463 60.2401 9.60669 44.5 9.60669C28.7599 9.60669 16 22.5463 16 38.5082C16 54.47 28.7599 67.4097 44.5 67.4097Z" fill="white"/>
<path fill-rule="evenodd" clip-rule="evenodd" d="M45.0629 27.8422C47.3547 27.8718 49.5477 28.7769 51.1795 30.3799C52.8113 31.9771 53.7571 34.1421 53.8143 36.4195V36.7508L53.6895 47.0139L55.1654 47.0316C55.5396 47.0316 55.9034 47.1854 56.1736 47.4457C56.4438 47.706 56.6049 48.0609 56.6205 48.4336C56.6361 48.8062 56.5114 49.173 56.2671 49.4569C56.0229 49.7409 55.6747 49.9183 55.3005 49.9597H55.129L44.7927 49.8414L34.4564 49.7172C34.0822 49.7172 33.7185 49.5634 33.4482 49.3031C33.178 49.0429 33.0169 48.6879 33.0013 48.3153C32.9857 47.9426 33.1104 47.5759 33.3547 47.2919C33.5989 47.008 33.9471 46.8305 34.3213 46.7891H34.4928L35.9686 46.8009L36.0934 36.5378C36.1245 34.2072 37.0807 31.9771 38.7645 30.3503C40.4482 28.7236 42.714 27.8186 45.0629 27.8481V27.8422ZM43.7066 35.1359L41.4616 38.7501C41.3213 38.9749 41.2485 39.2293 41.2381 39.4896C41.2329 39.7498 41.2953 40.0101 41.42 40.2408C41.5448 40.4715 41.7318 40.6608 41.9605 40.7969C42.1891 40.9329 42.4438 41.0039 42.7088 41.0098L44.5069 41.0335L43.6183 42.465C43.4208 42.7962 43.3636 43.1926 43.452 43.5652C43.5455 43.9379 43.7794 44.2633 44.1119 44.4644C44.4393 44.6655 44.8395 44.7306 45.2137 44.6478C45.593 44.5649 45.9204 44.3342 46.1283 44.0089L48.3733 40.3946C48.5136 40.1698 48.5863 39.9155 48.5967 39.6552C48.6019 39.3949 48.5396 39.1346 48.4148 38.9039C48.2901 38.6732 48.103 38.484 47.8744 38.3479C47.6457 38.2118 47.3911 38.1409 47.1261 38.1349L45.328 38.1113L46.2166 36.6798C46.4141 36.3485 46.4713 35.9522 46.3829 35.5795C46.2894 35.2068 46.0555 34.8815 45.7229 34.6804C45.3955 34.4793 44.9954 34.4142 44.6212 34.497C44.2419 34.5798 43.9145 34.8105 43.7066 35.1359ZM35.5581 24.9969L35.6932 25.1212L36.7222 26.1682C36.982 26.4344 37.1327 26.7893 37.1379 27.162C37.1431 27.5346 37.008 27.8955 36.7585 28.1735C36.5091 28.4515 36.1609 28.6231 35.7868 28.6526C35.4126 28.6822 35.0436 28.5698 34.7474 28.3391L34.6123 28.2149L33.5833 27.1679C33.3235 26.9017 33.1728 26.5468 33.1676 26.1741C33.1624 25.8014 33.2975 25.4406 33.547 25.1626C33.7964 24.8846 34.1446 24.713 34.5188 24.6834C34.8929 24.6539 35.2619 24.7663 35.5581 24.9969ZM56.5789 25.3755C56.8544 25.6536 57.0051 26.0262 56.9999 26.4166C56.9999 26.807 56.8336 27.1738 56.553 27.4459L55.498 28.4693C55.3577 28.6053 55.1966 28.7177 55.0147 28.7946C54.8328 28.8715 54.6406 28.907 54.4431 28.907C54.2456 28.907 54.0533 28.8656 53.8714 28.7887C53.6895 28.7118 53.5284 28.5994 53.3881 28.4633C53.253 28.3214 53.1439 28.1617 53.0711 27.9783C52.9984 27.7949 52.962 27.6056 52.9672 27.4104C52.9672 27.2152 53.014 27.0259 53.0919 26.8485C53.1699 26.671 53.2842 26.5113 53.4297 26.3752L54.4846 25.3519C54.7653 25.0798 55.1446 24.9319 55.5344 24.9378C55.9241 24.9437 56.2983 25.1034 56.5737 25.3814L56.5789 25.3755ZM45.1513 20.5131C45.5411 20.5131 45.9152 20.6787 46.1906 20.9568C46.4661 21.2348 46.6168 21.6075 46.6116 21.9979L46.596 23.4649C46.596 23.8553 46.4297 24.222 46.1491 24.4941C45.8684 24.7662 45.4891 24.9141 45.0993 24.9082C44.7096 24.9082 44.3354 24.7426 44.06 24.4646C43.7846 24.1865 43.6338 23.8139 43.639 23.4235L43.6546 21.9565C43.6546 21.566 43.8209 21.1993 44.1015 20.9272C44.3822 20.6551 44.7615 20.5072 45.1513 20.5131Z" fill="#FC0400"/>
<path d="M108.224 25.936H111.44V42.136H108.224V25.936ZM96.632 45.208H111.992V47.752H96.632V45.208ZM96.632 40.576H99.824V46.528H96.632V40.576ZM98.168 27.136H100.808V29.296C100.808 33.64 98.816 37.648 94.496 39.16L92.888 36.616C96.608 35.344 98.168 32.248 98.168 29.296V27.136ZM98.816 27.136H101.432V29.296C101.432 32.2 102.944 35.056 106.592 36.232L104.96 38.776C100.76 37.36 98.816 33.592 98.816 29.296V27.136ZM117.102 27.784H131.19V30.352H117.102V27.784ZM115.062 42.88H135.15V45.472H115.062V42.88ZM122.166 35.248H125.358V44.152H122.166V35.248ZM130.038 27.784H133.23V29.92C133.23 32.704 133.23 35.824 132.342 40.576L129.15 40.216C130.038 35.8 130.038 32.584 130.038 29.92V27.784ZM151.372 25.912H154.54V48.136H151.372V25.912ZM153.82 34.576H157.756V37.24H153.82V34.576ZM137.02 29.2H149.956V31.744H137.02V29.2ZM143.524 32.992C146.764 32.992 149.164 35.2 149.164 38.296C149.164 41.392 146.764 43.6 143.524 43.6C140.284 43.6 137.884 41.392 137.884 38.296C137.884 35.2 140.284 32.992 143.524 32.992ZM143.524 35.584C142.012 35.584 140.932 36.592 140.932 38.296C140.932 40 142.012 41.008 143.524 41.008C145.036 41.008 146.116 40 146.116 38.296C146.116 36.592 145.036 35.584 143.524 35.584ZM141.916 26.272H145.108V30.16H141.916V26.272ZM174.506 25.912H177.722V48.136H174.506V25.912ZM167.954 28.216H171.122C171.122 35.008 168.818 40.576 160.922 44.392L159.266 41.848C165.65 38.776 167.954 34.744 167.954 28.792V28.216ZM160.442 28.216H169.466V30.736H160.442V28.216Z" fill="white"/>
</svg>
