<svg width="34" height="34" viewBox="0 0 34 34" fill="none" xmlns="http://www.w3.org/2000/svg">
<path d="M0.816406 4.50246C0.816406 5.61212 1.24697 6.67634 2.01337 7.46098C2.77977 8.24563 3.81923 8.68644 4.90309 8.68644C5.98694 8.68644 7.0264 8.24563 7.7928 7.46098C8.55921 6.67634 8.98977 5.61212 8.98977 4.50246C8.98977 3.3928 8.55921 2.32859 7.7928 1.54394C7.0264 0.759292 5.98694 0.318481 4.90309 0.318481C3.81923 0.318481 2.77977 0.759292 2.01337 1.54394C1.24697 2.32859 0.816406 3.3928 0.816406 4.50246ZM13.0764 29.6063C13.0764 30.716 13.507 31.7802 14.2734 32.5649C15.0398 33.3495 16.0793 33.7903 17.1631 33.7903C18.247 33.7903 19.2864 33.3495 20.0528 32.5649C20.8192 31.7802 21.2498 30.716 21.2498 29.6063C21.2498 28.4967 20.8192 27.4325 20.0528 26.6478C19.2864 25.8632 18.247 25.4224 17.1631 25.4224C16.0793 25.4224 15.0398 25.8632 14.2734 26.6478C13.507 27.4325 13.0764 28.4967 13.0764 29.6063ZM13.0764 17.0544C13.0764 18.1641 13.507 19.2283 14.2734 20.0129C15.0398 20.7976 16.0793 21.2384 17.1631 21.2384C18.247 21.2384 19.2864 20.7976 20.0528 20.0129C20.8192 19.2283 21.2498 18.1641 21.2498 17.0544C21.2498 15.9447 20.8192 14.8805 20.0528 14.0959C19.2864 13.3112 18.247 12.8704 17.1631 12.8704C16.0793 12.8704 15.0398 13.3112 14.2734 14.0959C13.507 14.8805 13.0764 15.9447 13.0764 17.0544ZM13.0764 4.50246C13.0764 5.61212 13.507 6.67634 14.2734 7.46098C15.0398 8.24563 16.0793 8.68644 17.1631 8.68644C18.247 8.68644 19.2864 8.24563 20.0528 7.46098C20.8192 6.67634 21.2498 5.61212 21.2498 4.50246C21.2498 3.3928 20.8192 2.32859 20.0528 1.54394C19.2864 0.759292 18.247 0.318481 17.1631 0.318481C16.0793 0.318481 15.0398 0.759292 14.2734 1.54394C13.507 2.32859 13.0764 3.3928 13.0764 4.50246ZM25.3365 4.50246C25.3365 5.61212 25.767 6.67634 26.5334 7.46098C27.2998 8.24563 28.3393 8.68644 29.4232 8.68644C30.507 8.68644 31.5465 8.24563 32.3129 7.46098C33.0793 6.67634 33.5098 5.61212 33.5098 4.50246C33.5098 3.3928 33.0793 2.32859 32.3129 1.54394C31.5465 0.759292 30.507 0.318481 29.4232 0.318481C28.3393 0.318481 27.2998 0.759292 26.5334 1.54394C25.767 2.32859 25.3365 3.3928 25.3365 4.50246Z" fill="white"/>
</svg>
