<svg width="73" height="73" viewBox="0 0 73 73" fill="none" xmlns="http://www.w3.org/2000/svg">
<circle cx="36.5" cy="36.5" r="36.5" fill="#E3E3E3"/>
<circle cx="36.5" cy="36.5" r="28.5" fill="#1B437D"/>
<ellipse cx="36.5" cy="35" rx="26.5" ry="26" fill="#2F7BB0"/>
<path d="M22.4375 33.8168V31.8182H31.0433V33.8168H27.956V42H25.5298V33.8168H22.4375ZM41.3904 36.9091C41.3904 38.0294 41.175 38.9789 40.7441 39.7578C40.3133 40.5367 39.7299 41.1283 38.9941 41.5327C38.2617 41.937 37.4397 42.1392 36.5282 42.1392C35.6135 42.1392 34.7898 41.9354 34.0574 41.5277C33.3249 41.12 32.7432 40.5284 32.3123 39.7528C31.8848 38.974 31.671 38.026 31.671 36.9091C31.671 35.7888 31.8848 34.8393 32.3123 34.0604C32.7432 33.2815 33.3249 32.6899 34.0574 32.2855C34.7898 31.8812 35.6135 31.679 36.5282 31.679C37.4397 31.679 38.2617 31.8812 38.9941 32.2855C39.7299 32.6899 40.3133 33.2815 40.7441 34.0604C41.175 34.8393 41.3904 35.7888 41.3904 36.9091ZM38.8748 36.9091C38.8748 36.2462 38.7804 35.6861 38.5914 35.2287C38.4058 34.7713 38.1374 34.425 37.786 34.1896C37.438 33.9543 37.0188 33.8366 36.5282 33.8366C36.041 33.8366 35.6217 33.9543 35.2704 34.1896C34.9191 34.425 34.649 34.7713 34.46 35.2287C34.2744 35.6861 34.1816 36.2462 34.1816 36.9091C34.1816 37.572 34.2744 38.1321 34.46 38.5895C34.649 39.0469 34.9191 39.3932 35.2704 39.6286C35.6217 39.8639 36.041 39.9815 36.5282 39.9815C37.0188 39.9815 37.438 39.8639 37.786 39.6286C38.1374 39.3932 38.4058 39.0469 38.5914 38.5895C38.7804 38.1321 38.8748 37.572 38.8748 36.9091ZM42.8272 42V31.8182H47.0332C47.7955 31.8182 48.4534 31.9673 49.0069 32.2656C49.5637 32.5606 49.993 32.9732 50.2946 33.5036C50.5962 34.0305 50.747 34.6437 50.747 35.343C50.747 36.0457 50.5929 36.6605 50.2846 37.1875C49.9797 37.7112 49.5439 38.1172 48.9771 38.4055C48.4103 38.6939 47.7375 38.8381 46.9586 38.8381H44.3635V36.8991H46.5012C46.8725 36.8991 47.1824 36.8345 47.4309 36.7053C47.6828 36.576 47.8734 36.3954 48.0027 36.1634C48.1319 35.928 48.1966 35.6546 48.1966 35.343C48.1966 35.0282 48.1319 34.7564 48.0027 34.5277C47.8734 34.2957 47.6828 34.1167 47.4309 33.9908C47.179 33.8648 46.8691 33.8018 46.5012 33.8018H45.2882V42H42.8272Z" fill="white"/>
<path fill-rule="evenodd" clip-rule="evenodd" d="M36.051 21.2184C36.0965 21.152 36.1619 21.0969 36.2407 21.0585C36.3194 21.0202 36.4088 21 36.4998 21C36.5908 21 36.6802 21.0202 36.759 21.0585C36.8378 21.0969 36.9032 21.152 36.9486 21.2184L39.9306 25.5685C39.9761 25.6348 40 25.7101 40 25.7867C40 25.8633 39.9761 25.9385 39.9306 26.0049C39.8851 26.0712 39.8197 26.1263 39.741 26.1646C39.6622 26.2029 39.5729 26.223 39.482 26.223H33.518C33.4271 26.223 33.3378 26.2029 33.259 26.1646C33.1803 26.1263 33.1149 26.0712 33.0694 26.0049C33.0239 25.9385 33 25.8633 33 25.7867C33 25.7101 33.0239 25.6348 33.0694 25.5685L36.0514 21.2184H36.051Z" fill="white"/>
</svg>
