<svg width="73" height="73" viewBox="0 0 73 73" fill="none" xmlns="http://www.w3.org/2000/svg">
<circle cx="36.5" cy="36.5" r="36.5" fill="#E3E3E3"/>
<circle cx="36.5" cy="36.5" r="28.5" fill="#1B437D"/>
<ellipse cx="36.5" cy="35" rx="26.5" ry="26" fill="#1B437D"/>
<path d="M22.4375 35.8168V33.8182H31.0433V35.8168H27.956V44H25.5298V35.8168H22.4375ZM41.3904 38.9091C41.3904 40.0294 41.175 40.9789 40.7441 41.7578C40.3133 42.5367 39.7299 43.1283 38.9941 43.5327C38.2617 43.937 37.4397 44.1392 36.5282 44.1392C35.6135 44.1392 34.7898 43.9354 34.0574 43.5277C33.3249 43.12 32.7432 42.5284 32.3123 41.7528C31.8848 40.974 31.671 40.026 31.671 38.9091C31.671 37.7888 31.8848 36.8393 32.3123 36.0604C32.7432 35.2815 33.3249 34.6899 34.0574 34.2855C34.7898 33.8812 35.6135 33.679 36.5282 33.679C37.4397 33.679 38.2617 33.8812 38.9941 34.2855C39.7299 34.6899 40.3133 35.2815 40.7441 36.0604C41.175 36.8393 41.3904 37.7888 41.3904 38.9091ZM38.8748 38.9091C38.8748 38.2462 38.7804 37.6861 38.5914 37.2287C38.4058 36.7713 38.1374 36.425 37.786 36.1896C37.438 35.9543 37.0188 35.8366 36.5282 35.8366C36.041 35.8366 35.6217 35.9543 35.2704 36.1896C34.9191 36.425 34.649 36.7713 34.46 37.2287C34.2744 37.6861 34.1816 38.2462 34.1816 38.9091C34.1816 39.572 34.2744 40.1321 34.46 40.5895C34.649 41.0469 34.9191 41.3932 35.2704 41.6286C35.6217 41.8639 36.041 41.9815 36.5282 41.9815C37.0188 41.9815 37.438 41.8639 37.786 41.6286C38.1374 41.3932 38.4058 41.0469 38.5914 40.5895C38.7804 40.1321 38.8748 39.572 38.8748 38.9091ZM42.8272 44V33.8182H47.0332C47.7955 33.8182 48.4534 33.9673 49.0069 34.2656C49.5637 34.5606 49.993 34.9732 50.2946 35.5036C50.5962 36.0305 50.747 36.6437 50.747 37.343C50.747 38.0457 50.5929 38.6605 50.2846 39.1875C49.9797 39.7112 49.5439 40.1172 48.9771 40.4055C48.4103 40.6939 47.7375 40.8381 46.9586 40.8381H44.3635V38.8991H46.5012C46.8725 38.8991 47.1824 38.8345 47.4309 38.7053C47.6828 38.576 47.8734 38.3954 48.0027 38.1634C48.1319 37.928 48.1966 37.6546 48.1966 37.343C48.1966 37.0282 48.1319 36.7564 48.0027 36.5277C47.8734 36.2957 47.6828 36.1167 47.4309 35.9908C47.179 35.8648 46.8691 35.8018 46.5012 35.8018H45.2882V44H42.8272Z" fill="white"/>
<path fill-rule="evenodd" clip-rule="evenodd" d="M36.051 23.2184C36.0965 23.152 36.1619 23.0969 36.2407 23.0585C36.3194 23.0202 36.4088 23 36.4998 23C36.5908 23 36.6802 23.0202 36.759 23.0585C36.8378 23.0969 36.9032 23.152 36.9486 23.2184L39.9306 27.5685C39.9761 27.6348 40 27.7101 40 27.7867C40 27.8633 39.9761 27.9385 39.9306 28.0049C39.8851 28.0712 39.8197 28.1263 39.741 28.1646C39.6622 28.2029 39.5729 28.223 39.482 28.223H33.518C33.4271 28.223 33.3378 28.2029 33.259 28.1646C33.1803 28.1263 33.1149 28.0712 33.0694 28.0049C33.0239 27.9385 33 27.8633 33 27.7867C33 27.7101 33.0239 27.6348 33.0694 27.5685L36.0514 23.2184H36.051Z" fill="white"/>
</svg>
