<svg width="55" height="39" viewBox="0 0 55 39" fill="none" xmlns="http://www.w3.org/2000/svg">
<path d="M7.37164 21.2716V22.2716H8.37164V21.2716H7.37164ZM17.4575 34.8699L18.4575 34.8699L18.4575 34.8699L17.4575 34.8699ZM17.4575 30.3331V29.3331H16.4575V30.3331H17.4575ZM11.3486 14.2122C10.7963 14.2122 10.3486 14.6599 10.3486 15.2122C10.3486 15.7644 10.7963 16.2122 11.3486 16.2122V14.2122ZM26.9432 16.2122C27.4955 16.2122 27.9432 15.7644 27.9432 15.2122C27.9432 14.6599 27.4955 14.2122 26.9432 14.2122V16.2122ZM16.113 17.9632C15.5607 17.9632 15.113 18.4109 15.113 18.9632C15.113 19.5155 15.5607 19.9632 16.113 19.9632V17.9632ZM26.3176 19.9632C26.8699 19.9632 27.3176 19.5155 27.3176 18.9632C27.3176 18.4109 26.8699 17.9632 26.3176 17.9632V19.9632ZM3.83942 24.1761C3.28713 24.1761 2.83942 24.6239 2.83942 25.1761C2.83942 25.7284 3.28713 26.1761 3.83942 26.1761V24.1761ZM12.6934 26.1761C13.2457 26.1761 13.6934 25.7284 13.6934 25.1761C13.6934 24.6239 13.2457 24.1761 12.6934 24.1761V26.1761ZM3.83942 27.6509C3.28713 27.6509 2.83942 28.0986 2.83942 28.6509C2.83942 29.2032 3.28713 29.6509 3.83942 29.6509V27.6509ZM12.6934 29.6509C13.2457 29.6509 13.6934 29.2032 13.6934 28.6509C13.6934 28.0986 13.2457 27.6509 12.6934 27.6509V29.6509ZM3.83942 31.1318C3.28713 31.1318 2.83942 31.5795 2.83942 32.1318C2.83942 32.684 3.28713 33.1318 3.83942 33.1318V31.1318ZM8.26642 33.1318C8.81871 33.1318 9.26642 32.684 9.26642 32.1318C9.26642 31.5795 8.81871 31.1318 8.26642 31.1318V33.1318ZM11.7511 32.0614C11.5053 31.5668 10.9052 31.3651 10.4106 31.6108C9.91597 31.8566 9.71425 32.4568 9.96001 32.9514L11.7511 32.0614ZM12.2374 35.2874L11.3419 35.7324C11.4888 36.028 11.7721 36.2321 12.0991 36.2778C12.426 36.3235 12.7544 36.2049 12.9767 35.9608L12.2374 35.2874ZM15.5154 33.1736C15.8873 32.7653 15.8578 32.1328 15.4494 31.7609C15.0411 31.389 14.4087 31.4186 14.0368 31.8269L15.5154 33.1736ZM14.85 21.2716L14.85 22.2716H14.85V21.2716ZM17.4575 23.8317L16.4575 23.8317L16.4575 23.8317L17.4575 23.8317ZM33.9722 21.2224L33.0601 20.8125L32.7914 21.4103L33.2324 21.8952L33.9722 21.2224ZM46.6905 21.2224L47.4303 21.8952L47.8719 21.4097L47.6021 20.8114L46.6905 21.2224ZM50.5037 0H10.298V2H50.5037V0ZM10.298 0C8.14216 0 6.37164 1.72111 6.37164 3.87314H8.37164C8.37164 2.85735 9.2148 2 10.298 2V0ZM6.37164 3.87314V21.2716H8.37164V3.87314H6.37164ZM7.37164 20.2716H3.60743V22.2716H7.37164V20.2716ZM3.60743 20.2716C1.63437 20.2716 0 21.8501 0 23.8317H2C2 22.9891 2.70419 22.2716 3.60743 22.2716V20.2716ZM0 23.8317V34.8699H2V23.8317H0ZM0 34.8699C0 36.8514 1.63436 38.43 3.60743 38.43V36.43C2.7042 36.43 2 35.7124 2 34.8699H0ZM3.60743 38.43H14.85V36.43H3.60743V38.43ZM14.85 38.43C16.8231 38.43 18.4575 36.8514 18.4575 34.8699H16.4575C16.4575 35.7124 15.7533 36.43 14.85 36.43V38.43ZM18.4575 34.8699V30.3331H16.4575V34.8699H18.4575ZM17.4575 31.3331H50.5037V29.3331H17.4575V31.3331ZM50.5037 31.3331C52.6595 31.3331 54.43 29.612 54.43 27.4599H52.43C52.43 28.4757 51.5868 29.3331 50.5037 29.3331V31.3331ZM54.43 27.4599V3.87314H52.43V27.4599H54.43ZM54.43 3.87314C54.43 1.71222 52.6504 0 50.5037 0V2C51.5834 2 52.43 2.85397 52.43 3.87314H54.43ZM12.4997 8.29879H26.431V6.29879H12.4997V8.29879ZM26.431 8.29879C26.9356 8.29879 27.3131 8.69562 27.3131 9.14669H29.3131C29.3131 7.55662 28.0054 6.29879 26.431 6.29879V8.29879ZM27.3131 9.14669V10.0123H29.3131V9.14669H27.3131ZM27.3131 10.0123C27.3131 10.4634 26.9356 10.8602 26.431 10.8602V12.8602C28.0054 12.8602 29.3131 11.6024 29.3131 10.0123H27.3131ZM26.431 10.8602H12.4997V12.8602H26.431V10.8602ZM12.4997 10.8602C11.9952 10.8602 11.6176 10.4634 11.6176 10.0123H9.61762C9.61762 11.6024 10.9253 12.8602 12.4997 12.8602V10.8602ZM11.6176 10.0123V9.14669H9.61762V10.0123H11.6176ZM11.6176 9.14669C11.6176 8.69562 11.9952 8.29879 12.4997 8.29879V6.29879C10.9253 6.29879 9.61762 7.55662 9.61762 9.14669H11.6176ZM11.3486 16.2122H26.9432V14.2122H11.3486V16.2122ZM16.113 19.9632H26.3176V17.9632H16.113V19.9632ZM3.83942 26.1761H12.6934V24.1761H3.83942V26.1761ZM3.83942 29.6509H12.6934V27.6509H3.83942V29.6509ZM3.83942 33.1318H8.26642V31.1318H3.83942V33.1318ZM9.96001 32.9514L11.3419 35.7324L13.133 34.8424L11.7511 32.0614L9.96001 32.9514ZM12.9767 35.9608L15.5154 33.1736L14.0368 31.8269L11.4981 34.614L12.9767 35.9608ZM42.1444 14.8745C42.1444 16.0583 41.2668 16.895 40.3306 16.895V18.895C42.5025 18.895 44.1444 17.027 44.1444 14.8745H42.1444ZM40.3306 16.895C39.3945 16.895 38.5168 16.0583 38.5168 14.8745H36.5168C36.5168 17.027 38.1587 18.895 40.3306 18.895V16.895ZM38.5168 14.8745C38.5168 13.6907 39.3945 12.854 40.3306 12.854V10.854C38.1587 10.854 36.5168 12.722 36.5168 14.8745H38.5168ZM40.3306 12.854C41.2668 12.854 42.1444 13.6907 42.1444 14.8745H44.1444C44.1444 12.722 42.5025 10.854 40.3306 10.854V12.854ZM3.60743 22.2716L14.85 22.2716L14.85 20.2716L3.60743 20.2716L3.60743 22.2716ZM14.85 22.2716C15.7552 22.2716 16.4575 22.9873 16.4575 23.8317H18.4575C18.4575 21.8483 16.825 20.2716 14.85 20.2716V22.2716ZM16.4575 23.8317L16.4575 34.8699L18.4575 34.8699L18.4575 23.8317L16.4575 23.8317ZM16.4575 34.8699C16.4575 35.7143 15.7552 36.43 14.85 36.43V38.43C16.825 38.43 18.4575 36.8533 18.4575 34.8699H16.4575ZM3.60743 36.43C2.7023 36.43 2 35.7143 2 34.8699H0C0 36.8533 1.63247 38.43 3.60743 38.43V36.43ZM2 23.8317C2 22.9873 2.7023 22.2716 3.60743 22.2716V20.2716C1.63247 20.2716 0 21.8483 0 23.8317H2ZM40.3306 16.895C37.1113 16.895 34.1425 18.4041 33.0601 20.8125L34.8843 21.6324C35.5402 20.173 37.6097 18.895 40.3306 18.895V16.895ZM33.2324 21.8952C34.9764 23.813 37.5046 25.0342 40.3314 25.0342V23.0342C38.0933 23.0342 36.0945 22.0698 34.7121 20.5496L33.2324 21.8952ZM40.3314 25.0342C43.1581 25.0342 45.6863 23.813 47.4303 21.8952L45.9507 20.5496C44.5683 22.0698 42.5694 23.0342 40.3314 23.0342V25.0342ZM47.6021 20.8114C46.5199 18.4111 43.5513 16.895 40.3306 16.895V18.895C43.0501 18.895 45.1228 20.1783 45.7789 21.6334L47.6021 20.8114ZM47.8531 15.6665C47.8531 19.7185 44.5032 23.0342 40.3314 23.0342V25.0342C45.5733 25.0342 49.8531 20.8573 49.8531 15.6665H47.8531ZM40.3314 23.0342C36.1592 23.0342 32.8079 19.7182 32.8079 15.6665H30.8079C30.8079 20.8575 35.0897 25.0342 40.3314 25.0342V23.0342ZM32.8079 15.6665C32.8079 11.6146 36.1585 8.29879 40.3305 8.29879V6.29879C35.0887 6.29879 30.8079 10.4756 30.8079 15.6665H32.8079ZM40.3305 8.29879C44.5025 8.29879 47.8531 11.6146 47.8531 15.6665H49.8531C49.8531 10.4756 45.5723 6.29879 40.3305 6.29879V8.29879Z" fill="#FF6B03"/>
</svg>
